{"asset":{"version":"2.0","generator":"Blockbench 5.0.5 glTF exporter"},"scenes":[{"nodes":[16],"name":"blockbench_export"}],"scene":0,"nodes":[{"rotation":[0,-0.3826834323650898,0,0.9238795325112867],"translation":[-0.029737149239669414,0.06902512167858665,0.04620260692762607],"name":"cube","mesh":0},{"translation":[0.029737149239669303,0,0.04665728614474785],"name":"left_wing","children":[0]},{"rotation":[0,0.3826834323650898,0,0.9238795325112867],"translation":[0.029737149239669414,0.06902512167858665,0.04620260692762607],"name":"cube","mesh":1},{"translation":[-0.029737149239669525,0,0.04665728614474785],"name":"right_wing","children":[2]},{"rotation":[0,0,0.19509032201612825,0.9807852804032304],"translation":[-0.08892266381421643,0.046198793635221946,0.09285989307237393],"name":"cube","mesh":2},{"rotation":[0.06540312923014306,0,0,0.9978589232386035],"translation":[0.08892266381421632,0.022826328043364708,0],"name":"left_arm","children":[4]},{"rotation":[0,0,-0.19509032201612825,0.9807852804032304],"translation":[0.08892266381421643,0.046198793635221946,0.09285989307237393],"name":"cube","mesh":3},{"rotation":[0.06540312923014306,0,0,0.9978589232386035],"translation":[-0.08892266381421654,0.022826328043364708,0],"name":"right_arm","children":[6]},{"rotation":[-0.19509032201612825,0,0,0.9807852804032304],"translation":[-0.06093750000000009,0.21222487832141335,0.10494970595597014],"name":"cube","mesh":4},{"rotation":[0.06540312923014306,0,0,0.9978589232386035],"translation":[0.06093749999999998,-0.1431997566428267,-0.012089812883596215],"name":"left_leg","children":[8]},{"rotation":[-0.19509032201612825,0,0,0.9807852804032304],"translation":[0.06093750000000009,0.21222487832141335,0.10494970595597014],"name":"cube","mesh":5},{"rotation":[0.06540312923014306,0,0,0.9978589232386035],"translation":[-0.0609375000000002,-0.1431997566428267,-0.012089812883596215],"name":"right_leg","children":[10]},{"translation":[-1.1102230246251565e-16,0.045587621678586654,0.09285989307237393],"name":"cube","mesh":6},{"translation":[-1.1102230246251565e-16,0.045587621678586654,0.09285989307237393],"name":"cube","mesh":7},{"translation":[0,0.0234375,0],"name":"h_head","children":[12,13]},{"translation":[-1.1102230246251565e-16,0.06902512167858665,0.09285989307237393],"name":"cube","mesh":8},{"rotation":[-0.042956710859025644,-0.1734829030790772,-0.007574427126938522,0.9838704342468719],"translation":[-0.6874999999999999,2.8059748783214133,-0.030359893072373856],"name":"body","children":[1,3,5,7,9,11,14,15]}],"bufferViews":[{"buffer":0,"byteOffset":0,"byteLength":288,"target":34962,"byteStride":12},{"buffer":0,"byteOffset":288,"byteLength":288,"target":34962,"byteStride":12},{"buffer":0,"byteOffset":576,"byteLength":192,"target":34962,"byteStride":8},{"buffer":0,"byteOffset":768,"byteLength":72,"target":34963},{"buffer":0,"byteOffset":840,"byteLength":288,"target":34962,"byteStride":12},{"buffer":0,"byteOffset":1128,"byteLength":288,"target":34962,"byteStride":12},{"buffer":0,"byteOffset":1416,"byteLength":192,"target":34962,"byteStride":8},{"buffer":0,"byteOffset":1608,"byteLength":72,"target":34963},{"buffer":0,"byteOffset":1680,"byteLength":288,"target":34962,"byteStride":12},{"buffer":0,"byteOffset":1968,"byteLength":288,"target":34962,"byteStride":12},{"buffer":0,"byteOffset":2256,"byteLength":192,"target":34962,"byteStride":8},{"buffer":0,"byteOffset":2448,"byteLength":72,"target":34963},{"buffer":0,"byteOffset":2520,"byteLength":288,"target":34962,"byteStride":12},{"buffer":0,"byteOffset":2808,"byteLength":288,"target":34962,"byteStride":12},{"buffer":0,"byteOffset":3096,"byteLength":192,"target":34962,"byteStride":8},{"buffer":0,"byteOffset":3288,"byteLength":72,"target":34963},{"buffer":0,"byteOffset":3360,"byteLength":288,"target":34962,"byteStride":12},{"buffer":0,"byteOffset":3648,"byteLength":288,"target":34962,"byteStride":12},{"buffer":0,"byteOffset":3936,"byteLength":192,"target":34962,"byteStride":8},{"buffer":0,"byteOffset":4128,"byteLength":72,"target":34963},{"buffer":0,"byteOffset":4200,"byteLength":288,"target":34962,"byteStride":12},{"buffer":0,"byteOffset":4488,"byteLength":288,"target":34962,"byteStride":12},{"buffer":0,"byteOffset":4776,"byteLength":192,"target":34962,"byteStride":8},{"buffer":0,"byteOffset":4968,"byteLength":72,"target":34963},{"buffer":0,"byteOffset":5040,"byteLength":288,"target":34962,"byteStride":12},{"buffer":0,"byteOffset":5328,"byteLength":288,"target":34962,"byteStride":12},{"buffer":0,"byteOffset":5616,"byteLength":192,"target":34962,"byteStride":8},{"buffer":0,"byteOffset":5808,"byteLength":72,"target":34963},{"buffer":0,"byteOffset":5880,"byteLength":288,"target":34962,"byteStride":12},{"buffer":0,"byteOffset":6168,"byteLength":288,"target":34962,"byteStride":12},{"buffer":0,"byteOffset":6456,"byteLength":192,"target":34962,"byteStride":8},{"buffer":0,"byteOffset":6648,"byteLength":72,"target":34963},{"buffer":0,"byteOffset":6720,"byteLength":288,"target":34962,"byteStride":12},{"buffer":0,"byteOffset":7008,"byteLength":288,"target":34962,"byteStride":12},{"buffer":0,"byteOffset":7296,"byteLength":192,"target":34962,"byteStride":8},{"buffer":0,"byteOffset":7488,"byteLength":72,"target":34963},{"buffer":0,"byteOffset":7560,"byteLength":152},{"buffer":0,"byteOffset":7712,"byteLength":608},{"buffer":0,"byteOffset":8320,"byteLength":156},{"buffer":0,"byteOffset":8476,"byteLength":468},{"buffer":0,"byteOffset":8944,"byteLength":152},{"buffer":0,"byteOffset":9096,"byteLength":608},{"buffer":0,"byteOffset":9704,"byteLength":156},{"buffer":0,"byteOffset":9860,"byteLength":624},{"buffer":0,"byteOffset":10484,"byteLength":108},{"buffer":0,"byteOffset":10592,"byteLength":432},{"buffer":0,"byteOffset":11024,"byteLength":156},{"buffer":0,"byteOffset":11180,"byteLength":624},{"buffer":0,"byteOffset":11804,"byteLength":152},{"buffer":0,"byteOffset":11956,"byteLength":608},{"buffer":0,"byteOffset":12564,"byteLength":108},{"buffer":0,"byteOffset":12672,"byteLength":432},{"buffer":0,"byteOffset":13104,"byteLength":152},{"buffer":0,"byteOffset":13256,"byteLength":608},{"buffer":0,"byteOffset":13864,"byteLength":156},{"buffer":0,"byteOffset":14020,"byteLength":468},{"buffer":0,"byteOffset":14488,"byteLength":152},{"buffer":0,"byteOffset":14640,"byteLength":608},{"buffer":0,"byteOffset":15248,"byteLength":156},{"buffer":0,"byteOffset":15404,"byteLength":624},{"buffer":0,"byteOffset":16028,"byteLength":108},{"buffer":0,"byteOffset":16136,"byteLength":432},{"buffer":0,"byteOffset":16568,"byteLength":156},{"buffer":0,"byteOffset":16724,"byteLength":624},{"buffer":0,"byteOffset":17348,"byteLength":152},{"buffer":0,"byteOffset":17500,"byteLength":608},{"buffer":0,"byteOffset":18108,"byteLength":108},{"buffer":0,"byteOffset":18216,"byteLength":432},{"buffer":0,"byteOffset":18648,"byteLength":8},{"buffer":0,"byteOffset":18656,"byteLength":32},{"buffer":0,"byteOffset":18688,"byteLength":152},{"buffer":0,"byteOffset":18840,"byteLength":608},{"buffer":0,"byteOffset":19448,"byteLength":156},{"buffer":0,"byteOffset":19604,"byteLength":468},{"buffer":0,"byteOffset":20072,"byteLength":156},{"buffer":0,"byteOffset":20228,"byteLength":624},{"buffer":0,"byteOffset":20852,"byteLength":156},{"buffer":0,"byteOffset":21008,"byteLength":624},{"buffer":0,"byteOffset":21632,"byteLength":108},{"buffer":0,"byteOffset":21740,"byteLength":432},{"buffer":0,"byteOffset":22172,"byteLength":156},{"buffer":0,"byteOffset":22328,"byteLength":624},{"buffer":0,"byteOffset":22952,"byteLength":156},{"buffer":0,"byteOffset":23108,"byteLength":624},{"buffer":0,"byteOffset":23732,"byteLength":108},{"buffer":0,"byteOffset":23840,"byteLength":432},{"buffer":0,"byteOffset":24272,"byteLength":8},{"buffer":0,"byteOffset":24280,"byteLength":32}],"buffers":[{"byteLength":24312,"uri":"data:application/octet-stream;base64,"}],"accessors":[{"bufferView":0,"componentType":5126,"count":24,"max":[0.42586833238601685,0.14972487092018127,-0.053635016083717346],"min":[-0.011631675995886326,-0.2877751290798187,-0.05369751527905464],"type":"VEC3"},{"bufferView":1,"componentType":5126,"count":24,"max":[1,1,1],"min":[-1,-1,-1],"type":"VEC3"},{"bufferView":2,"componentType":5126,"count":24,"max":[0.515625,0.5],"min":[0,0],"type":"VEC2"},{"bufferView":3,"componentType":5123,"count":36,"max":[23],"min":[0],"type":"SCALAR"},{"bufferView":4,"componentType":5126,"count":24,"max":[0.011631675995886326,0.14972487092018127,-0.053635016083717346],"min":[-0.42586833238601685,-0.2877751290798187,-0.05369751527905464],"type":"VEC3"},{"bufferView":5,"componentType":5126,"count":24,"max":[1,1,1],"min":[-1,-1,-1],"type":"VEC3"},{"bufferView":6,"componentType":5126,"count":24,"max":[0.515625,0.5],"min":[0,0],"type":"VEC2"},{"bufferView":7,"componentType":5123,"count":36,"max":[23],"min":[0],"type":"SCALAR"},{"bufferView":8,"componentType":5126,"count":24,"max":[0.0951087698340416,-0.06469351798295975,-0.030359892174601555],"min":[0.032608769834041595,-0.18969351053237915,-0.1553598940372467],"type":"VEC3"},{"bufferView":9,"componentType":5126,"count":24,"max":[1,1,1],"min":[-1,-1,-1],"type":"VEC3"},{"bufferView":10,"componentType":5126,"count":24,"max":[0.40625,0.421875],"min":[0.0625,0.046875],"type":"VEC2"},{"bufferView":11,"componentType":5123,"count":36,"max":[23],"min":[0],"type":"SCALAR"},{"bufferView":12,"componentType":5126,"count":24,"max":[-0.032608769834041595,-0.06469351798295975,-0.030359892174601555],"min":[-0.0951087698340416,-0.18969351053237915,-0.1553598940372467],"type":"VEC3"},{"bufferView":13,"componentType":5126,"count":24,"max":[1,1,1],"min":[-1,-1,-1],"type":"VEC3"},{"bufferView":14,"componentType":5126,"count":24,"max":[0.40625,0.421875],"min":[0.0625,0.046875],"type":"VEC2"},{"bufferView":15,"componentType":5123,"count":36,"max":[23],"min":[0],"type":"SCALAR"},{"bufferView":16,"componentType":5126,"count":24,"max":[0.09218750149011612,-0.14269399642944336,-0.11917849630117416],"min":[0.02968749962747097,-0.26769399642944336,-0.24417850375175476],"type":"VEC3"},{"bufferView":17,"componentType":5126,"count":24,"max":[1,1,1],"min":[-1,-1,-1],"type":"VEC3"},{"bufferView":18,"componentType":5126,"count":24,"max":[0.40625,0.421875],"min":[0,0],"type":"VEC2"},{"bufferView":19,"componentType":5123,"count":36,"max":[23],"min":[0],"type":"SCALAR"},{"bufferView":20,"componentType":5126,"count":24,"max":[-0.02968749962747097,-0.14269399642944336,-0.11917849630117416],"min":[-0.09218750149011612,-0.26769399642944336,-0.24417850375175476],"type":"VEC3"},{"bufferView":21,"componentType":5126,"count":24,"max":[1,1,1],"min":[-1,-1,-1],"type":"VEC3"},{"bufferView":22,"componentType":5126,"count":24,"max":[0.40625,0.421875],"min":[0,0],"type":"VEC2"},{"bufferView":23,"componentType":5123,"count":36,"max":[23],"min":[0],"type":"SCALAR"},{"bufferView":24,"componentType":5126,"count":24,"max":[0.125,0.21222487092018127,0.032140105962753296],"min":[-0.125,-0.03777512162923813,-0.2178598940372467],"type":"VEC3"},{"bufferView":25,"componentType":5126,"count":24,"max":[1,1,1],"min":[-1,-1,-1],"type":"VEC3"},{"bufferView":26,"componentType":5126,"count":24,"max":[0.3125,0.3125],"min":[0,0],"type":"VEC2"},{"bufferView":27,"componentType":5123,"count":36,"max":[23],"min":[0],"type":"SCALAR"},{"bufferView":28,"componentType":5126,"count":24,"max":[0.125,0.25916236639022827,0.032140105962753296],"min":[-0.125,0.2590998709201813,-0.2178598940372467],"type":"VEC3"},{"bufferView":29,"componentType":5126,"count":24,"max":[1,1,1],"min":[-1,-1,-1],"type":"VEC3"},{"bufferView":30,"componentType":5126,"count":24,"max":[0.484375,0.3125],"min":[0.234375,0],"type":"VEC2"},{"bufferView":31,"componentType":5123,"count":36,"max":[23],"min":[0],"type":"SCALAR"},{"bufferView":32,"componentType":5126,"count":24,"max":[0.09375,-0.03777512162923813,-0.045984894037246704],"min":[-0.09375,-0.22527512907981873,-0.1709848940372467],"type":"VEC3"},{"bufferView":33,"componentType":5126,"count":24,"max":[1,1,1],"min":[-1,-1,-1],"type":"VEC3"},{"bufferView":34,"componentType":5126,"count":24,"max":[0.375,0.375],"min":[0,0],"type":"VEC2"},{"bufferView":35,"componentType":5123,"count":36,"max":[23],"min":[0],"type":"SCALAR"},{"bufferView":36,"componentType":5126,"count":38,"max":[2],"min":[0],"type":"SCALAR"},{"bufferView":37,"componentType":5126,"count":38,"max":[0.0008550006314180791,-0.17297986149787903,0.00015075967530719936,0.9848077297210693],"min":[-0.08631874620914459,-0.1736481785774231,-0.015220323577523232,0.981017529964447],"type":"VEC4"},{"bufferView":38,"componentType":5126,"count":39,"max":[2],"min":[0],"type":"SCALAR"},{"bufferView":39,"componentType":5126,"count":39,"max":[-0.6875,1.6184748411178589,-0.030359892174601555],"min":[-0.6875,1.5559748411178589,-0.030359892174601555],"type":"VEC3"},{"bufferView":40,"componentType":5126,"count":38,"max":[2],"min":[0],"type":"SCALAR"},{"bufferView":41,"componentType":5126,"count":38,"max":[0.10886687785387039,0,0,0.9999988079071045],"min":[-0.09202300757169724,0,0,0.9940563440322876],"type":"VEC4"},{"bufferView":42,"componentType":5126,"count":39,"max":[2],"min":[0],"type":"SCALAR"},{"bufferView":43,"componentType":5126,"count":39,"max":[0.13052618503570557,0,0,0.9998031854629517],"min":[0.019840147346258163,0,0,0.9914448857307434],"type":"VEC4"},{"bufferView":44,"componentType":5126,"count":27,"max":[2],"min":[0],"type":"SCALAR"},{"bufferView":45,"componentType":5126,"count":27,"max":[0,0.3420201539993286,0,0.9985129833221436],"min":[0,-0.237685889005661,0,0.9396926164627075],"type":"VEC4"},{"bufferView":46,"componentType":5126,"count":39,"max":[2],"min":[0],"type":"SCALAR"},{"bufferView":47,"componentType":5126,"count":39,"max":[0.13052618503570557,0,0,0.9998031854629517],"min":[0.019840147346258163,0,0,0.9914448857307434],"type":"VEC4"},{"bufferView":48,"componentType":5126,"count":38,"max":[2],"min":[0],"type":"SCALAR"},{"bufferView":49,"componentType":5126,"count":38,"max":[0.10886687785387039,0,0,0.9999988079071045],"min":[-0.09202300757169724,0,0,0.9940563440322876],"type":"VEC4"},{"bufferView":50,"componentType":5126,"count":27,"max":[2],"min":[0],"type":"SCALAR"},{"bufferView":51,"componentType":5126,"count":27,"max":[0,0.237685889005661,0,0.9985129833221436],"min":[0,-0.3420201539993286,0,0.9396926164627075],"type":"VEC4"},{"bufferView":52,"componentType":5126,"count":38,"max":[2],"min":[0],"type":"SCALAR"},{"bufferView":53,"componentType":5126,"count":38,"max":[-0.1912878155708313,-0.1666867583990097,-0.033729203045368195,0.9660513997077942],"min":[-0.2760471701622009,-0.17034092545509338,-0.0486745648086071,0.9453275799751282],"type":"VEC4"},{"bufferView":54,"componentType":5126,"count":39,"max":[2],"min":[0],"type":"SCALAR"},{"bufferView":55,"componentType":5126,"count":39,"max":[-0.6875,1.6184748411178589,-0.030359892174601555],"min":[-0.6875,1.5559748411178589,-0.030359892174601555],"type":"VEC3"},{"bufferView":56,"componentType":5126,"count":38,"max":[2],"min":[0],"type":"SCALAR"},{"bufferView":57,"componentType":5126,"count":38,"max":[0.10886687785387039,0,0,0.9999988079071045],"min":[-0.09202300757169724,0,0,0.9940563440322876],"type":"VEC4"},{"bufferView":58,"componentType":5126,"count":39,"max":[2],"min":[0],"type":"SCALAR"},{"bufferView":59,"componentType":5126,"count":39,"max":[0.13052618503570557,0,0,0.9998031854629517],"min":[0.019840147346258163,0,0,0.9914448857307434],"type":"VEC4"},{"bufferView":60,"componentType":5126,"count":27,"max":[2],"min":[0],"type":"SCALAR"},{"bufferView":61,"componentType":5126,"count":27,"max":[0,0.3420201539993286,0,0.9985129833221436],"min":[0,-0.237685889005661,0,0.9396926164627075],"type":"VEC4"},{"bufferView":62,"componentType":5126,"count":39,"max":[2],"min":[0],"type":"SCALAR"},{"bufferView":63,"componentType":5126,"count":39,"max":[0.13052618503570557,0,0,0.9998031854629517],"min":[0.019840147346258163,0,0,0.9914448857307434],"type":"VEC4"},{"bufferView":64,"componentType":5126,"count":38,"max":[2],"min":[0],"type":"SCALAR"},{"bufferView":65,"componentType":5126,"count":38,"max":[0.10886687785387039,0,0,0.9999988079071045],"min":[-0.09202300757169724,0,0,0.9940563440322876],"type":"VEC4"},{"bufferView":66,"componentType":5126,"count":27,"max":[2],"min":[0],"type":"SCALAR"},{"bufferView":67,"componentType":5126,"count":27,"max":[0,0.237685889005661,0,0.9985129833221436],"min":[0,-0.3420201539993286,0,0.9396926164627075],"type":"VEC4"},{"bufferView":68,"componentType":5126,"count":2,"max":[2],"min":[0],"type":"SCALAR"},{"bufferView":69,"componentType":5126,"count":2,"max":[0.10886687785387039,0,0,0.9940563440322876],"min":[0.10886687785387039,0,0,0.9940563440322876],"type":"VEC4"},{"bufferView":70,"componentType":5126,"count":38,"max":[2],"min":[0],"type":"SCALAR"},{"bufferView":71,"componentType":5126,"count":38,"max":[0.0008550006314180791,-0.17297986149787903,0.00015075967530719936,0.9848077297210693],"min":[-0.08631874620914459,-0.1736481785774231,-0.015220323577523232,0.981017529964447],"type":"VEC4"},{"bufferView":72,"componentType":5126,"count":39,"max":[2],"min":[0],"type":"SCALAR"},{"bufferView":73,"componentType":5126,"count":39,"max":[-0.6875,1.6184748411178589,-0.030359892174601555],"min":[-0.6875,1.5559748411178589,-0.030359892174601555],"type":"VEC3"},{"bufferView":74,"componentType":5126,"count":39,"max":[2],"min":[0],"type":"SCALAR"},{"bufferView":75,"componentType":5126,"count":39,"max":[0.8331397771835327,-0.29755839705467224,0.35480159521102905,0.356259286403656],"min":[0.8115751147270203,-0.320128470659256,0.3345787525177002,0.30241188406944275],"type":"VEC4"},{"bufferView":76,"componentType":5126,"count":39,"max":[2],"min":[0],"type":"SCALAR"},{"bufferView":77,"componentType":5126,"count":39,"max":[0.13052618503570557,0,0,0.9998031854629517],"min":[0.019840147346258163,0,0,0.9914448857307434],"type":"VEC4"},{"bufferView":78,"componentType":5126,"count":27,"max":[2],"min":[0],"type":"SCALAR"},{"bufferView":79,"componentType":5126,"count":27,"max":[0,0.3420201539993286,0,0.9985129833221436],"min":[0,-0.237685889005661,0,0.9396926164627075],"type":"VEC4"},{"bufferView":80,"componentType":5126,"count":39,"max":[2],"min":[0],"type":"SCALAR"},{"bufferView":81,"componentType":5126,"count":39,"max":[0.13052618503570557,0,0,0.9998031854629517],"min":[0.019840147346258163,0,0,0.9914448857307434],"type":"VEC4"},{"bufferView":82,"componentType":5126,"count":39,"max":[2],"min":[0],"type":"SCALAR"},{"bufferView":83,"componentType":5126,"count":39,"max":[0.8331397771835327,0.320128470659256,-0.3345787525177002,0.356259286403656],"min":[0.8115751147270203,0.29755839705467224,-0.35480159521102905,0.30241188406944275],"type":"VEC4"},{"bufferView":84,"componentType":5126,"count":27,"max":[2],"min":[0],"type":"SCALAR"},{"bufferView":85,"componentType":5126,"count":27,"max":[0,0.237685889005661,0,0.9985129833221436],"min":[0,-0.3420201539993286,0,0.9396926164627075],"type":"VEC4"},{"bufferView":86,"componentType":5126,"count":2,"max":[2],"min":[0],"type":"SCALAR"},{"bufferView":87,"componentType":5126,"count":2,"max":[0.15212339162826538,0,0,0.9883615374565125],"min":[0.15212339162826538,0,0,0.9883615374565125],"type":"VEC4"}],"materials":[{"pbrMetallicRoughness":{"metallicFactor":0,"roughnessFactor":1,"baseColorTexture":{"index":0}},"alphaMode":"MASK","alphaCutoff":0.05,"doubleSided":true}],"textures":[{"sampler":0,"source":0,"name":"dawnbringer_angel"}],"samplers":[{"magFilter":9728,"minFilter":9728,"wrapS":33071,"wrapT":33071}],"images":[{"mimeType":"image/png","uri":"data:image/png;base64,"}],"meshes":[{"primitives":[{"mode":4,"attributes":{"POSITION":0,"NORMAL":1,"TEXCOORD_0":2},"indices":3,"material":0}]},{"primitives":[{"mode":4,"attributes":{"POSITION":4,"NORMAL":5,"TEXCOORD_0":6},"indices":7,"material":0}]},{"primitives":[{"mode":4,"attributes":{"POSITION":8,"NORMAL":9,"TEXCOORD_0":10},"indices":11,"material":0}]},{"primitives":[{"mode":4,"attributes":{"POSITION":12,"NORMAL":13,"TEXCOORD_0":14},"indices":15,"material":0}]},{"primitives":[{"mode":4,"attributes":{"POSITION":16,"NORMAL":17,"TEXCOORD_0":18},"indices":19,"material":0}]},{"primitives":[{"mode":4,"attributes":{"POSITION":20,"NORMAL":21,"TEXCOORD_0":22},"indices":23,"material":0}]},{"primitives":[{"mode":4,"attributes":{"POSITION":24,"NORMAL":25,"TEXCOORD_0":26},"indices":27,"material":0}]},{"primitives":[{"mode":4,"attributes":{"POSITION":28,"NORMAL":29,"TEXCOORD_0":30},"indices":31,"material":0}]},{"primitives":[{"mode":4,"attributes":{"POSITION":32,"NORMAL":33,"TEXCOORD_0":34},"indices":35,"material":0}]}],"animations":[{"name":"idle","samplers":[{"input":36,"output":37,"interpolation":"LINEAR"},{"input":38,"output":39,"interpolation":"LINEAR"},{"input":40,"output":41,"interpolation":"LINEAR"},{"input":42,"output":43,"interpolation":"LINEAR"},{"input":44,"output":45,"interpolation":"LINEAR"},{"input":46,"output":47,"interpolation":"LINEAR"},{"input":48,"output":49,"interpolation":"LINEAR"},{"input":50,"output":51,"interpolation":"LINEAR"}],"channels":[{"sampler":0,"target":{"node":16,"path":"rotation"}},{"sampler":1,"target":{"node":16,"path":"translation"}},{"sampler":2,"target":{"node":5,"path":"rotation"}},{"sampler":3,"target":{"node":9,"path":"rotation"}},{"sampler":4,"target":{"node":1,"path":"rotation"}},{"sampler":5,"target":{"node":11,"path":"rotation"}},{"sampler":6,"target":{"node":7,"path":"rotation"}},{"sampler":7,"target":{"node":3,"path":"rotation"}}]},{"name":"walk","samplers":[{"input":52,"output":53,"interpolation":"LINEAR"},{"input":54,"output":55,"interpolation":"LINEAR"},{"input":56,"output":57,"interpolation":"LINEAR"},{"input":58,"output":59,"interpolation":"LINEAR"},{"input":60,"output":61,"interpolation":"LINEAR"},{"input":62,"output":63,"interpolation":"LINEAR"},{"input":64,"output":65,"interpolation":"LINEAR"},{"input":66,"output":67,"interpolation":"LINEAR"},{"input":68,"output":69,"interpolation":"LINEAR"}],"channels":[{"sampler":0,"target":{"node":16,"path":"rotation"}},{"sampler":1,"target":{"node":16,"path":"translation"}},{"sampler":2,"target":{"node":5,"path":"rotation"}},{"sampler":3,"target":{"node":9,"path":"rotation"}},{"sampler":4,"target":{"node":1,"path":"rotation"}},{"sampler":5,"target":{"node":11,"path":"rotation"}},{"sampler":6,"target":{"node":7,"path":"rotation"}},{"sampler":7,"target":{"node":3,"path":"rotation"}},{"sampler":8,"target":{"node":14,"path":"rotation"}}]},{"name":"skill","samplers":[{"input":70,"output":71,"interpolation":"LINEAR"},{"input":72,"output":73,"interpolation":"LINEAR"},{"input":74,"output":75,"interpolation":"LINEAR"},{"input":76,"output":77,"interpolation":"LINEAR"},{"input":78,"output":79,"interpolation":"LINEAR"},{"input":80,"output":81,"interpolation":"LINEAR"},{"input":82,"output":83,"interpolation":"LINEAR"},{"input":84,"output":85,"interpolation":"LINEAR"},{"input":86,"output":87,"interpolation":"LINEAR"}],"channels":[{"sampler":0,"target":{"node":16,"path":"rotation"}},{"sampler":1,"target":{"node":16,"path":"translation"}},{"sampler":2,"target":{"node":5,"path":"rotation"}},{"sampler":3,"target":{"node":9,"path":"rotation"}},{"sampler":4,"target":{"node":1,"path":"rotation"}},{"sampler":5,"target":{"node":11,"path":"rotation"}},{"sampler":6,"target":{"node":7,"path":"rotation"}},{"sampler":7,"target":{"node":3,"path":"rotation"}},{"sampler":8,"target":{"node":14,"path":"rotation"}}]}]}