{"asset":{"version":"2.0","generator":"Blockbench 5.0.5 glTF exporter"},"scenes":[{"nodes":[7,9],"name":"blockbench_export"}],"scene":0,"nodes":[{"rotation":[0,0,-0.3826834323650898,0.9238795325112867],"name":"cube","mesh":0},{"rotation":[0.07465784395186659,0.37533026738881314,0.18023993221173026,0.9061274543653403],"name":"bone","children":[0]},{"rotation":[0,0,0.3826834323650898,0.9238795325112867],"name":"cube","mesh":1},{"name":"ef_flash2","children":[1,2]},{"translation":[0,-0.0625,0],"name":"cube","mesh":2},{"translation":[0,0.0625,1.144584375],"name":"ef_final_ball_bullet","children":[3,4]},{"translation":[0,0.5,-1.144584375],"name":"allef","children":[5]},{"name":"ebony_cat","children":[6]},{"translation":[0,-0.375,0],"name":"hitbox","mesh":3},{"translation":[0,1.40625,0],"name":"hitbox","children":[8]}],"bufferViews":[{"buffer":0,"byteOffset":0,"byteLength":288,"target":34962,"byteStride":12},{"buffer":0,"byteOffset":288,"byteLength":288,"target":34962,"byteStride":12},{"buffer":0,"byteOffset":576,"byteLength":192,"target":34962,"byteStride":8},{"buffer":0,"byteOffset":768,"byteLength":24,"target":34963},{"buffer":0,"byteOffset":792,"byteLength":288,"target":34962,"byteStride":12},{"buffer":0,"byteOffset":1080,"byteLength":288,"target":34962,"byteStride":12},{"buffer":0,"byteOffset":1368,"byteLength":192,"target":34962,"byteStride":8},{"buffer":0,"byteOffset":1560,"byteLength":24,"target":34963},{"buffer":0,"byteOffset":1584,"byteLength":288,"target":34962,"byteStride":12},{"buffer":0,"byteOffset":1872,"byteLength":288,"target":34962,"byteStride":12},{"buffer":0,"byteOffset":2160,"byteLength":192,"target":34962,"byteStride":8},{"buffer":0,"byteOffset":2352,"byteLength":72,"target":34963},{"buffer":0,"byteOffset":2424,"byteLength":288,"target":34962,"byteStride":12},{"buffer":0,"byteOffset":2712,"byteLength":288,"target":34962,"byteStride":12},{"buffer":0,"byteOffset":3000,"byteLength":192,"target":34962,"byteStride":8},{"buffer":0,"byteOffset":3192,"byteLength":72,"target":34963},{"buffer":0,"byteOffset":3264,"byteLength":16},{"buffer":0,"byteOffset":3280,"byteLength":64},{"buffer":0,"byteOffset":3344,"byteLength":52},{"buffer":0,"byteOffset":3396,"byteLength":156},{"buffer":0,"byteOffset":3552,"byteLength":4},{"buffer":0,"byteOffset":3556,"byteLength":12},{"buffer":0,"byteOffset":3568,"byteLength":16},{"buffer":0,"byteOffset":3584,"byteLength":64},{"buffer":0,"byteOffset":3648,"byteLength":52},{"buffer":0,"byteOffset":3700,"byteLength":156},{"buffer":0,"byteOffset":3856,"byteLength":4},{"buffer":0,"byteOffset":3860,"byteLength":12}],"buffers":[{"byteLength":3872,"uri":"data:application/octet-stream;base64,"}],"accessors":[{"bufferView":0,"componentType":5126,"count":24,"max":[2.25,0.3125,0.0031250000465661287],"min":[-2.25,-0.3125,-0.0031250000465661287],"type":"VEC3"},{"bufferView":1,"componentType":5126,"count":24,"max":[1,1,1],"min":[-1,-1,-1],"type":"VEC3"},{"bufferView":2,"componentType":5126,"count":24,"max":[1,1],"min":[0,0],"type":"VEC2"},{"bufferView":3,"componentType":5123,"count":12,"max":[23],"min":[16],"type":"SCALAR"},{"bufferView":4,"componentType":5126,"count":24,"max":[2.25,0.3125,0.0031250000465661287],"min":[-2.25,-0.3125,-0.0031250000465661287],"type":"VEC3"},{"bufferView":5,"componentType":5126,"count":24,"max":[1,1,1],"min":[-1,-1,-1],"type":"VEC3"},{"bufferView":6,"componentType":5126,"count":24,"max":[1,1],"min":[0,0],"type":"VEC2"},{"bufferView":7,"componentType":5123,"count":12,"max":[23],"min":[16],"type":"SCALAR"},{"bufferView":8,"componentType":5126,"count":24,"max":[0.375,0.4375,0.375],"min":[-0.375,-0.3125,-0.375],"type":"VEC3"},{"bufferView":9,"componentType":5126,"count":24,"max":[1,1,1],"min":[-1,-1,-1],"type":"VEC3"},{"bufferView":10,"componentType":5126,"count":24,"max":[0.625,0.296875],"min":[0.53125,0.203125],"type":"VEC2"},{"bufferView":11,"componentType":5123,"count":36,"max":[23],"min":[0],"type":"SCALAR"},{"bufferView":12,"componentType":5126,"count":24,"max":[0.34375,0.65625,0.34375],"min":[-0.34375,-1.03125,-0.34375],"type":"VEC3"},{"bufferView":13,"componentType":5126,"count":24,"max":[1,1,1],"min":[-1,-1,-1],"type":"VEC3"},{"bufferView":14,"componentType":5126,"count":24,"max":[1,0],"min":[1,0],"type":"VEC2"},{"bufferView":15,"componentType":5123,"count":36,"max":[23],"min":[0],"type":"SCALAR"},{"bufferView":16,"componentType":5126,"count":4,"max":[0.5],"min":[0],"type":"SCALAR"},{"bufferView":17,"componentType":5126,"count":4,"max":[0,0,0,1],"min":[0,-0.8660253882408142,0,-1],"type":"VEC4"},{"bufferView":18,"componentType":5126,"count":13,"max":[0.5],"min":[0],"type":"SCALAR"},{"bufferView":19,"componentType":5126,"count":13,"max":[1.7999999523162842,1.5,1],"min":[0.8999999761581421,1,1],"type":"VEC3"},{"bufferView":20,"componentType":5126,"count":1,"max":[0],"min":[0],"type":"SCALAR"},{"bufferView":21,"componentType":5126,"count":1,"max":[0,0.375,0],"min":[0,0.375,0],"type":"VEC3"},{"bufferView":22,"componentType":5126,"count":4,"max":[0.5],"min":[0],"type":"SCALAR"},{"bufferView":23,"componentType":5126,"count":4,"max":[0,0,0,1],"min":[0,-0.8660253882408142,0,-1],"type":"VEC4"},{"bufferView":24,"componentType":5126,"count":13,"max":[0.5],"min":[0],"type":"SCALAR"},{"bufferView":25,"componentType":5126,"count":13,"max":[1.7999999523162842,1.5,1],"min":[0.8999999761581421,1,1],"type":"VEC3"},{"bufferView":26,"componentType":5126,"count":1,"max":[0],"min":[0],"type":"SCALAR"},{"bufferView":27,"componentType":5126,"count":1,"max":[0,0.375,0],"min":[0,0.375,0],"type":"VEC3"}],"materials":[{"pbrMetallicRoughness":{"metallicFactor":0,"roughnessFactor":1,"baseColorTexture":{"index":0}},"alphaMode":"MASK","alphaCutoff":0.05,"doubleSided":true},{"pbrMetallicRoughness":{"metallicFactor":0,"roughnessFactor":1,"baseColorTexture":{"index":1}},"alphaMode":"MASK","alphaCutoff":0.05,"doubleSided":true}],"textures":[{"sampler":0,"source":0,"name":"vfx_ebony_cat.png"},{"sampler":1,"source":1,"name":"black_cat.png"}],"samplers":[{"magFilter":9728,"minFilter":9728,"wrapS":33071,"wrapT":33071},{"magFilter":9728,"minFilter":9728,"wrapS":33071,"wrapT":33071}],"images":[{"mimeType":"image/png","uri":"data:image/png;base64,"},{"mimeType":"image/png","uri":"data:image/png;base64,"}],"meshes":[{"primitives":[{"mode":4,"attributes":{"POSITION":0,"NORMAL":1,"TEXCOORD_0":2},"indices":3,"material":0}]},{"primitives":[{"mode":4,"attributes":{"POSITION":4,"NORMAL":5,"TEXCOORD_0":6},"indices":7,"material":0}]},{"primitives":[{"mode":4,"attributes":{"POSITION":8,"NORMAL":9,"TEXCOORD_0":10},"indices":11,"material":0}]},{"primitives":[{"mode":4,"attributes":{"POSITION":12,"NORMAL":13,"TEXCOORD_0":14},"indices":15,"material":1}]}],"animations":[{"name":"idle","samplers":[{"input":16,"output":17,"interpolation":"LINEAR"},{"input":18,"output":19,"interpolation":"LINEAR"},{"input":20,"output":21,"interpolation":"LINEAR"}],"channels":[{"sampler":0,"target":{"node":5,"path":"rotation"}},{"sampler":1,"target":{"node":5,"path":"scale"}},{"sampler":2,"target":{"node":7,"path":"translation"}}]},{"name":"walk","samplers":[{"input":22,"output":23,"interpolation":"LINEAR"},{"input":24,"output":25,"interpolation":"LINEAR"},{"input":26,"output":27,"interpolation":"LINEAR"}],"channels":[{"sampler":0,"target":{"node":5,"path":"rotation"}},{"sampler":1,"target":{"node":5,"path":"scale"}},{"sampler":2,"target":{"node":7,"path":"translation"}}]}]}