{"asset":{"version":"2.0","generator":"Blockbench 5.0.5 glTF exporter"},"scenes":[{"nodes":[24],"name":"blockbench_export"}],"scene":0,"nodes":[{"rotation":[0.19509032201612825,0,0,0.9807852804032304],"name":"cube","mesh":0},{"rotation":[0.19509032201612825,0,0,0.9807852804032304],"name":"cube_outline","mesh":1},{"translation":[0.1875,0.0625,-0.0625],"name":"h_sub1","children":[0,1]},{"rotation":[0,-0.3826834323650898,0,0.9238795325112867],"translation":[0.044194173824159244,-1.1102230246251565e-16,-0.044194173824159244],"name":"cube","mesh":2},{"rotation":[0,-0.3826834323650898,0,0.9238795325112867],"translation":[0.044194173824159244,-1.1102230246251565e-16,-0.044194173824159244],"name":"cube_outline","mesh":3},{"translation":[-0.13794417382415924,-0.012154848911523963,-0.08305363335104565],"name":"h_sub5","children":[3,4]},{"rotation":[0,0,-0.3826834323650898,0.9238795325112867],"translation":[0,0,1.1102230246251565e-16],"name":"cube","mesh":4},{"rotation":[0,0,-0.3826834323650898,0.9238795325112867],"translation":[0,0,1.1102230246251565e-16],"name":"cube_outline","mesh":5},{"translation":[0.03883252147247762,-0.012154848911523963,-0.25983032864768263],"name":"h_sub2","children":[6,7]},{"rotation":[0.19509032201612825,0,0,0.9807852804032304],"translation":[0.20453125000000003,0.13974552837471488,0.19994846942217825],"name":"cube","mesh":6},{"rotation":[0.19509032201612825,0,0,0.9807852804032304],"translation":[0.20453125000000003,0.13974552837471488,0.19994846942217825],"name":"cube_outline","mesh":7},{"translation":[-0.01718750000000005,-0.079323969106736,-0.3700156706031117],"name":"h_sub4","children":[9,10]},{"rotation":[-0.3826834323650898,0,0,0.9238795325112867],"name":"cube","mesh":8},{"rotation":[-0.3826834323650898,0,0,0.9238795325112867],"name":"cube_outline","mesh":9},{"translation":[0.0625,-0.02402136894982032,-0.47873528295541334],"name":"h_sub3","children":[12,13]},{"translation":[0,0,-0.3125],"name":"h_bone","children":[2,5,8,11,14]},{"name":"cube","mesh":10},{"name":"cube_outline","mesh":11},{"name":"h_main","children":[16,17]},{"translation":[0,0,0.15625],"name":"cube","mesh":12},{"translation":[0,0,0.15625],"name":"cube","mesh":13},{"translation":[0,0,0.15625],"name":"cube","mesh":14},{"translation":[0,0,0.15625],"name":"cube","mesh":15},{"translation":[0,0,0.34375],"name":"h_wave","children":[19,20,21,22]},{"translation":[0,1,0],"name":"h_whole","children":[15,18,23]}],"bufferViews":[{"buffer":0,"byteOffset":0,"byteLength":288,"target":34962,"byteStride":12},{"buffer":0,"byteOffset":288,"byteLength":288,"target":34962,"byteStride":12},{"buffer":0,"byteOffset":576,"byteLength":192,"target":34962,"byteStride":8},{"buffer":0,"byteOffset":768,"byteLength":72,"target":34963},{"buffer":0,"byteOffset":840,"byteLength":288,"target":34962,"byteStride":12},{"buffer":0,"byteOffset":1128,"byteLength":288,"target":34962,"byteStride":12},{"buffer":0,"byteOffset":1416,"byteLength":192,"target":34962,"byteStride":8},{"buffer":0,"byteOffset":1608,"byteLength":72,"target":34963},{"buffer":0,"byteOffset":1680,"byteLength":288,"target":34962,"byteStride":12},{"buffer":0,"byteOffset":1968,"byteLength":288,"target":34962,"byteStride":12},{"buffer":0,"byteOffset":2256,"byteLength":192,"target":34962,"byteStride":8},{"buffer":0,"byteOffset":2448,"byteLength":72,"target":34963},{"buffer":0,"byteOffset":2520,"byteLength":288,"target":34962,"byteStride":12},{"buffer":0,"byteOffset":2808,"byteLength":288,"target":34962,"byteStride":12},{"buffer":0,"byteOffset":3096,"byteLength":192,"target":34962,"byteStride":8},{"buffer":0,"byteOffset":3288,"byteLength":72,"target":34963},{"buffer":0,"byteOffset":3360,"byteLength":288,"target":34962,"byteStride":12},{"buffer":0,"byteOffset":3648,"byteLength":288,"target":34962,"byteStride":12},{"buffer":0,"byteOffset":3936,"byteLength":192,"target":34962,"byteStride":8},{"buffer":0,"byteOffset":4128,"byteLength":72,"target":34963},{"buffer":0,"byteOffset":4200,"byteLength":288,"target":34962,"byteStride":12},{"buffer":0,"byteOffset":4488,"byteLength":288,"target":34962,"byteStride":12},{"buffer":0,"byteOffset":4776,"byteLength":192,"target":34962,"byteStride":8},{"buffer":0,"byteOffset":4968,"byteLength":72,"target":34963},{"buffer":0,"byteOffset":5040,"byteLength":288,"target":34962,"byteStride":12},{"buffer":0,"byteOffset":5328,"byteLength":288,"target":34962,"byteStride":12},{"buffer":0,"byteOffset":5616,"byteLength":192,"target":34962,"byteStride":8},{"buffer":0,"byteOffset":5808,"byteLength":72,"target":34963},{"buffer":0,"byteOffset":5880,"byteLength":288,"target":34962,"byteStride":12},{"buffer":0,"byteOffset":6168,"byteLength":288,"target":34962,"byteStride":12},{"buffer":0,"byteOffset":6456,"byteLength":192,"target":34962,"byteStride":8},{"buffer":0,"byteOffset":6648,"byteLength":72,"target":34963},{"buffer":0,"byteOffset":6720,"byteLength":288,"target":34962,"byteStride":12},{"buffer":0,"byteOffset":7008,"byteLength":288,"target":34962,"byteStride":12},{"buffer":0,"byteOffset":7296,"byteLength":192,"target":34962,"byteStride":8},{"buffer":0,"byteOffset":7488,"byteLength":72,"target":34963},{"buffer":0,"byteOffset":7560,"byteLength":288,"target":34962,"byteStride":12},{"buffer":0,"byteOffset":7848,"byteLength":288,"target":34962,"byteStride":12},{"buffer":0,"byteOffset":8136,"byteLength":192,"target":34962,"byteStride":8},{"buffer":0,"byteOffset":8328,"byteLength":72,"target":34963},{"buffer":0,"byteOffset":8400,"byteLength":288,"target":34962,"byteStride":12},{"buffer":0,"byteOffset":8688,"byteLength":288,"target":34962,"byteStride":12},{"buffer":0,"byteOffset":8976,"byteLength":192,"target":34962,"byteStride":8},{"buffer":0,"byteOffset":9168,"byteLength":72,"target":34963},{"buffer":0,"byteOffset":9240,"byteLength":288,"target":34962,"byteStride":12},{"buffer":0,"byteOffset":9528,"byteLength":288,"target":34962,"byteStride":12},{"buffer":0,"byteOffset":9816,"byteLength":192,"target":34962,"byteStride":8},{"buffer":0,"byteOffset":10008,"byteLength":72,"target":34963},{"buffer":0,"byteOffset":10080,"byteLength":288,"target":34962,"byteStride":12},{"buffer":0,"byteOffset":10368,"byteLength":288,"target":34962,"byteStride":12},{"buffer":0,"byteOffset":10656,"byteLength":192,"target":34962,"byteStride":8},{"buffer":0,"byteOffset":10848,"byteLength":72,"target":34963},{"buffer":0,"byteOffset":10920,"byteLength":288,"target":34962,"byteStride":12},{"buffer":0,"byteOffset":11208,"byteLength":288,"target":34962,"byteStride":12},{"buffer":0,"byteOffset":11496,"byteLength":192,"target":34962,"byteStride":8},{"buffer":0,"byteOffset":11688,"byteLength":72,"target":34963},{"buffer":0,"byteOffset":11760,"byteLength":288,"target":34962,"byteStride":12},{"buffer":0,"byteOffset":12048,"byteLength":288,"target":34962,"byteStride":12},{"buffer":0,"byteOffset":12336,"byteLength":192,"target":34962,"byteStride":8},{"buffer":0,"byteOffset":12528,"byteLength":72,"target":34963},{"buffer":0,"byteOffset":12600,"byteLength":288,"target":34962,"byteStride":12},{"buffer":0,"byteOffset":12888,"byteLength":288,"target":34962,"byteStride":12},{"buffer":0,"byteOffset":13176,"byteLength":192,"target":34962,"byteStride":8},{"buffer":0,"byteOffset":13368,"byteLength":72,"target":34963},{"buffer":0,"byteOffset":13440,"byteLength":20},{"buffer":0,"byteOffset":13460,"byteLength":80},{"buffer":0,"byteOffset":13540,"byteLength":20},{"buffer":0,"byteOffset":13560,"byteLength":80},{"buffer":0,"byteOffset":13640,"byteLength":28},{"buffer":0,"byteOffset":13668,"byteLength":84},{"buffer":0,"byteOffset":13752,"byteLength":20},{"buffer":0,"byteOffset":13772,"byteLength":80},{"buffer":0,"byteOffset":13852,"byteLength":28},{"buffer":0,"byteOffset":13880,"byteLength":84},{"buffer":0,"byteOffset":13964,"byteLength":20},{"buffer":0,"byteOffset":13984,"byteLength":80},{"buffer":0,"byteOffset":14064,"byteLength":28},{"buffer":0,"byteOffset":14092,"byteLength":84},{"buffer":0,"byteOffset":14176,"byteLength":20},{"buffer":0,"byteOffset":14196,"byteLength":80},{"buffer":0,"byteOffset":14276,"byteLength":28},{"buffer":0,"byteOffset":14304,"byteLength":84},{"buffer":0,"byteOffset":14388,"byteLength":20},{"buffer":0,"byteOffset":14408,"byteLength":80},{"buffer":0,"byteOffset":14488,"byteLength":28},{"buffer":0,"byteOffset":14516,"byteLength":84},{"buffer":0,"byteOffset":14600,"byteLength":20},{"buffer":0,"byteOffset":14620,"byteLength":80},{"buffer":0,"byteOffset":14700,"byteLength":28},{"buffer":0,"byteOffset":14728,"byteLength":84},{"buffer":0,"byteOffset":14812,"byteLength":64},{"buffer":0,"byteOffset":14876,"byteLength":192},{"buffer":0,"byteOffset":15068,"byteLength":60},{"buffer":0,"byteOffset":15128,"byteLength":180},{"buffer":0,"byteOffset":15308,"byteLength":4},{"buffer":0,"byteOffset":15312,"byteLength":16}],"buffers":[{"byteLength":15328,"uri":"data:application/octet-stream;base64,"}],"accessors":[{"bufferView":0,"componentType":5126,"count":24,"max":[0.078125,0.078125,0.078125],"min":[-0.078125,-0.078125,-0.078125],"type":"VEC3"},{"bufferView":1,"componentType":5126,"count":24,"max":[1,1,1],"min":[-1,-1,-1],"type":"VEC3"},{"bufferView":2,"componentType":5126,"count":24,"max":[0.703125,0.703125],"min":[0.3125,0.234375],"type":"VEC2"},{"bufferView":3,"componentType":5123,"count":36,"max":[23],"min":[0],"type":"SCALAR"},{"bufferView":4,"componentType":5126,"count":24,"max":[0.11249999701976776,0.11249999701976776,0.11249999701976776],"min":[-0.11249999701976776,-0.11249999701976776,-0.11249999701976776],"type":"VEC3"},{"bufferView":5,"componentType":5126,"count":24,"max":[1,1,1],"min":[-1,-1,-1],"type":"VEC3"},{"bufferView":6,"componentType":5126,"count":24,"max":[0.671875,0.6875],"min":[0,0],"type":"VEC2"},{"bufferView":7,"componentType":5123,"count":36,"max":[23],"min":[0],"type":"SCALAR"},{"bufferView":8,"componentType":5126,"count":24,"max":[0.109375,0.109375,0.171875],"min":[-0.109375,-0.109375,-0.046875],"type":"VEC3"},{"bufferView":9,"componentType":5126,"count":24,"max":[1,1,1],"min":[-1,-1,-1],"type":"VEC3"},{"bufferView":10,"componentType":5126,"count":24,"max":[0.640625,0.640625],"min":[0.28125,0.078125],"type":"VEC2"},{"bufferView":11,"componentType":5123,"count":36,"max":[23],"min":[0],"type":"SCALAR"},{"bufferView":12,"componentType":5126,"count":24,"max":[0.14374999701976776,0.14374999701976776,0.20624999701976776],"min":[-0.14374999701976776,-0.14374999701976776,-0.08124999701976776],"type":"VEC3"},{"bufferView":13,"componentType":5126,"count":24,"max":[1,1,1],"min":[-1,-1,-1],"type":"VEC3"},{"bufferView":14,"componentType":5126,"count":24,"max":[0.5625,0.625],"min":[0,0.453125],"type":"VEC2"},{"bufferView":15,"componentType":5123,"count":36,"max":[23],"min":[0],"type":"SCALAR"},{"bufferView":16,"componentType":5126,"count":24,"max":[0.08937499672174454,0.08937499672174454,0.08937499672174454],"min":[-0.08937499672174454,-0.08937499672174454,-0.08937499672174454],"type":"VEC3"},{"bufferView":17,"componentType":5126,"count":24,"max":[1,1,1],"min":[-1,-1,-1],"type":"VEC3"},{"bufferView":18,"componentType":5126,"count":24,"max":[0.703125,0.734375],"min":[0,0.421875],"type":"VEC2"},{"bufferView":19,"componentType":5123,"count":36,"max":[23],"min":[0],"type":"SCALAR"},{"bufferView":20,"componentType":5126,"count":24,"max":[0.12075000256299973,0.12075000256299973,0.12075000256299973],"min":[-0.12075000256299973,-0.12075000256299973,-0.12075000256299973],"type":"VEC3"},{"bufferView":21,"componentType":5126,"count":24,"max":[1,1,1],"min":[-1,-1,-1],"type":"VEC3"},{"bufferView":22,"componentType":5126,"count":24,"max":[0.71875,0.71875],"min":[0.078125,0.078125],"type":"VEC2"},{"bufferView":23,"componentType":5123,"count":36,"max":[23],"min":[0],"type":"SCALAR"},{"bufferView":24,"componentType":5126,"count":24,"max":[-0.15453125536441803,-0.15562500059604645,-0.08124999701976776],"min":[-0.25453126430511475,-0.25562500953674316,-0.18125000596046448],"type":"VEC3"},{"bufferView":25,"componentType":5126,"count":24,"max":[1,1,1],"min":[-1,-1,-1],"type":"VEC3"},{"bufferView":26,"componentType":5126,"count":24,"max":[0.46875,0.75],"min":[0.09375,0.078125],"type":"VEC2"},{"bufferView":27,"componentType":5123,"count":36,"max":[23],"min":[0],"type":"SCALAR"},{"bufferView":28,"componentType":5126,"count":24,"max":[-0.12578125298023224,-0.12687499821186066,-0.05249999836087227],"min":[-0.28328123688697815,-0.28437501192092896,-0.20999999344348907],"type":"VEC3"},{"bufferView":29,"componentType":5126,"count":24,"max":[1,1,1],"min":[-1,-1,-1],"type":"VEC3"},{"bufferView":30,"componentType":5126,"count":24,"max":[0.765625,0.765625],"min":[0.0625,0],"type":"VEC2"},{"bufferView":31,"componentType":5123,"count":36,"max":[23],"min":[0],"type":"SCALAR"},{"bufferView":32,"componentType":5126,"count":24,"max":[0.042500000447034836,0.042500000447034836,0.042500000447034836],"min":[-0.042500000447034836,-0.042500000447034836,-0.042500000447034836],"type":"VEC3"},{"bufferView":33,"componentType":5126,"count":24,"max":[1,1,1],"min":[-1,-1,-1],"type":"VEC3"},{"bufferView":34,"componentType":5126,"count":24,"max":[0.734375,0.734375],"min":[0.09375,0.125],"type":"VEC2"},{"bufferView":35,"componentType":5123,"count":36,"max":[23],"min":[0],"type":"SCALAR"},{"bufferView":36,"componentType":5126,"count":24,"max":[0.06975000351667404,0.06975000351667404,0.06975000351667404],"min":[-0.06975000351667404,-0.06975000351667404,-0.06975000351667404],"type":"VEC3"},{"bufferView":37,"componentType":5126,"count":24,"max":[1,1,1],"min":[-1,-1,-1],"type":"VEC3"},{"bufferView":38,"componentType":5126,"count":24,"max":[0.75,0.75],"min":[0.3125,0.234375],"type":"VEC2"},{"bufferView":39,"componentType":5123,"count":36,"max":[23],"min":[0],"type":"SCALAR"},{"bufferView":40,"componentType":5126,"count":24,"max":[0.15625,0.15625,0.15625],"min":[-0.15625,-0.15625,-0.15625],"type":"VEC3"},{"bufferView":41,"componentType":5126,"count":24,"max":[1,1,1],"min":[-1,-1,-1],"type":"VEC3"},{"bufferView":42,"componentType":5126,"count":24,"max":[0.5625,0.5625],"min":[0,0.078125],"type":"VEC2"},{"bufferView":43,"componentType":5123,"count":36,"max":[23],"min":[0],"type":"SCALAR"},{"bufferView":44,"componentType":5126,"count":24,"max":[0.23749999701976776,0.23749999701976776,0.23749999701976776],"min":[-0.23749999701976776,-0.23749999701976776,-0.23749999701976776],"type":"VEC3"},{"bufferView":45,"componentType":5126,"count":24,"max":[1,1,1],"min":[-1,-1,-1],"type":"VEC3"},{"bufferView":46,"componentType":5126,"count":24,"max":[0.40625,0.40625],"min":[0,0],"type":"VEC2"},{"bufferView":47,"componentType":5123,"count":36,"max":[23],"min":[0],"type":"SCALAR"},{"bufferView":48,"componentType":5126,"count":24,"max":[0.34375,-0.343687504529953,-0.15625],"min":[-0.34375,-0.34375,-0.40625],"type":"VEC3"},{"bufferView":49,"componentType":5126,"count":24,"max":[1,1,1],"min":[-1,-1,-1],"type":"VEC3"},{"bufferView":50,"componentType":5126,"count":24,"max":[0.890625,0.5],"min":[0.140625,0.140625],"type":"VEC2"},{"bufferView":51,"componentType":5123,"count":36,"max":[23],"min":[0],"type":"SCALAR"},{"bufferView":52,"componentType":5126,"count":24,"max":[0.343812495470047,0.34375,-0.15625],"min":[0.34375,-0.34375,-0.40625],"type":"VEC3"},{"bufferView":53,"componentType":5126,"count":24,"max":[1,1,1],"min":[-1,-1,-1],"type":"VEC3"},{"bufferView":54,"componentType":5126,"count":24,"max":[0.640625,0.890625],"min":[0.140625,0.21875],"type":"VEC2"},{"bufferView":55,"componentType":5123,"count":36,"max":[23],"min":[0],"type":"SCALAR"},{"bufferView":56,"componentType":5126,"count":24,"max":[-0.343687504529953,0.34375,-0.15625],"min":[-0.34375,-0.34375,-0.40625],"type":"VEC3"},{"bufferView":57,"componentType":5126,"count":24,"max":[1,1,1],"min":[-1,-1,-1],"type":"VEC3"},{"bufferView":58,"componentType":5126,"count":24,"max":[0.734375,0.875],"min":[0.21875,0.15625],"type":"VEC2"},{"bufferView":59,"componentType":5123,"count":36,"max":[23],"min":[0],"type":"SCALAR"},{"bufferView":60,"componentType":5126,"count":24,"max":[0.34375,0.343812495470047,-0.15625],"min":[-0.34375,0.34375,-0.40625],"type":"VEC3"},{"bufferView":61,"componentType":5126,"count":24,"max":[1,1,1],"min":[-1,-1,-1],"type":"VEC3"},{"bufferView":62,"componentType":5126,"count":24,"max":[0.90625,0.5625],"min":[0.296875,0],"type":"VEC2"},{"bufferView":63,"componentType":5123,"count":36,"max":[23],"min":[0],"type":"SCALAR"},{"bufferView":64,"componentType":5126,"count":5,"max":[1],"min":[0],"type":"SCALAR"},{"bufferView":65,"componentType":5126,"count":5,"max":[0,0,0,1],"min":[0,0,-1,-1],"type":"VEC4"},{"bufferView":66,"componentType":5126,"count":5,"max":[1],"min":[0],"type":"SCALAR"},{"bufferView":67,"componentType":5126,"count":5,"max":[1,0,0,1],"min":[0,0,0,-1],"type":"VEC4"},{"bufferView":68,"componentType":5126,"count":7,"max":[1],"min":[0],"type":"SCALAR"},{"bufferView":69,"componentType":5126,"count":7,"max":[1.2999999523162842,1.2999999523162842,1.2999999523162842],"min":[1,1,1],"type":"VEC3"},{"bufferView":70,"componentType":5126,"count":5,"max":[1],"min":[0],"type":"SCALAR"},{"bufferView":71,"componentType":5126,"count":5,"max":[0,1,0,1],"min":[0,0,0,-1],"type":"VEC4"},{"bufferView":72,"componentType":5126,"count":7,"max":[1],"min":[0],"type":"SCALAR"},{"bufferView":73,"componentType":5126,"count":7,"max":[1.2999999523162842,1.2999999523162842,1.2999999523162842],"min":[1,1,1],"type":"VEC3"},{"bufferView":74,"componentType":5126,"count":5,"max":[1],"min":[0],"type":"SCALAR"},{"bufferView":75,"componentType":5126,"count":5,"max":[0,0,0,1],"min":[0,-1,0,-1],"type":"VEC4"},{"bufferView":76,"componentType":5126,"count":7,"max":[1],"min":[0],"type":"SCALAR"},{"bufferView":77,"componentType":5126,"count":7,"max":[1.2999999523162842,1.2999999523162842,1.2999999523162842],"min":[1,1,1],"type":"VEC3"},{"bufferView":78,"componentType":5126,"count":5,"max":[1],"min":[0],"type":"SCALAR"},{"bufferView":79,"componentType":5126,"count":5,"max":[0,0,0,1],"min":[0,-1,0,-1],"type":"VEC4"},{"bufferView":80,"componentType":5126,"count":7,"max":[1],"min":[0],"type":"SCALAR"},{"bufferView":81,"componentType":5126,"count":7,"max":[1.2999999523162842,1.2999999523162842,1.2999999523162842],"min":[1,1,1],"type":"VEC3"},{"bufferView":82,"componentType":5126,"count":5,"max":[1],"min":[0],"type":"SCALAR"},{"bufferView":83,"componentType":5126,"count":5,"max":[0,0,0,1],"min":[0,-1,0,-1],"type":"VEC4"},{"bufferView":84,"componentType":5126,"count":7,"max":[1],"min":[0],"type":"SCALAR"},{"bufferView":85,"componentType":5126,"count":7,"max":[1.2999999523162842,1.2999999523162842,1.2999999523162842],"min":[1,1,1],"type":"VEC3"},{"bufferView":86,"componentType":5126,"count":5,"max":[1],"min":[0],"type":"SCALAR"},{"bufferView":87,"componentType":5126,"count":5,"max":[0,0,0,1],"min":[0,-1,0,-1],"type":"VEC4"},{"bufferView":88,"componentType":5126,"count":7,"max":[1],"min":[0],"type":"SCALAR"},{"bufferView":89,"componentType":5126,"count":7,"max":[1.2999999523162842,1.2999999523162842,1.2999999523162842],"min":[1,1,1],"type":"VEC3"},{"bufferView":90,"componentType":5126,"count":16,"max":[1],"min":[0],"type":"SCALAR"},{"bufferView":91,"componentType":5126,"count":16,"max":[0,0,0.65625],"min":[0,0,-0.96875],"type":"VEC3"},{"bufferView":92,"componentType":5126,"count":15,"max":[1],"min":[0],"type":"SCALAR"},{"bufferView":93,"componentType":5126,"count":15,"max":[1.3857142925262451,1.3857142925262451,1],"min":[0.6000000238418579,0.6000000238418579,0],"type":"VEC3"},{"bufferView":94,"componentType":5126,"count":1,"max":[0],"min":[0],"type":"SCALAR"},{"bufferView":95,"componentType":5126,"count":1,"max":[0,-1,0,6.123234262925839e-17],"min":[0,-1,0,6.123234262925839e-17],"type":"VEC4"}],"materials":[{"pbrMetallicRoughness":{"metallicFactor":0,"roughnessFactor":1,"baseColorTexture":{"index":0}},"alphaMode":"MASK","alphaCutoff":0.05,"doubleSided":true}],"textures":[{"sampler":0,"source":0,"name":"monk_chi_blast"}],"samplers":[{"magFilter":9728,"minFilter":9728,"wrapS":33071,"wrapT":33071}],"images":[{"mimeType":"image/png","uri":"data:image/png;base64,"}],"meshes":[{"primitives":[{"mode":4,"attributes":{"POSITION":0,"NORMAL":1,"TEXCOORD_0":2},"indices":3,"material":0}]},{"primitives":[{"mode":4,"attributes":{"POSITION":4,"NORMAL":5,"TEXCOORD_0":6},"indices":7,"material":0}]},{"primitives":[{"mode":4,"attributes":{"POSITION":8,"NORMAL":9,"TEXCOORD_0":10},"indices":11,"material":0}]},{"primitives":[{"mode":4,"attributes":{"POSITION":12,"NORMAL":13,"TEXCOORD_0":14},"indices":15,"material":0}]},{"primitives":[{"mode":4,"attributes":{"POSITION":16,"NORMAL":17,"TEXCOORD_0":18},"indices":19,"material":0}]},{"primitives":[{"mode":4,"attributes":{"POSITION":20,"NORMAL":21,"TEXCOORD_0":22},"indices":23,"material":0}]},{"primitives":[{"mode":4,"attributes":{"POSITION":24,"NORMAL":25,"TEXCOORD_0":26},"indices":27,"material":0}]},{"primitives":[{"mode":4,"attributes":{"POSITION":28,"NORMAL":29,"TEXCOORD_0":30},"indices":31,"material":0}]},{"primitives":[{"mode":4,"attributes":{"POSITION":32,"NORMAL":33,"TEXCOORD_0":34},"indices":35,"material":0}]},{"primitives":[{"mode":4,"attributes":{"POSITION":36,"NORMAL":37,"TEXCOORD_0":38},"indices":39,"material":0}]},{"primitives":[{"mode":4,"attributes":{"POSITION":40,"NORMAL":41,"TEXCOORD_0":42},"indices":43,"material":0}]},{"primitives":[{"mode":4,"attributes":{"POSITION":44,"NORMAL":45,"TEXCOORD_0":46},"indices":47,"material":0}]},{"primitives":[{"mode":4,"attributes":{"POSITION":48,"NORMAL":49,"TEXCOORD_0":50},"indices":51,"material":0}]},{"primitives":[{"mode":4,"attributes":{"POSITION":52,"NORMAL":53,"TEXCOORD_0":54},"indices":55,"material":0}]},{"primitives":[{"mode":4,"attributes":{"POSITION":56,"NORMAL":57,"TEXCOORD_0":58},"indices":59,"material":0}]},{"primitives":[{"mode":4,"attributes":{"POSITION":60,"NORMAL":61,"TEXCOORD_0":62},"indices":63,"material":0}]}],"animations":[{"name":"idle","samplers":[{"input":64,"output":65,"interpolation":"LINEAR"},{"input":66,"output":67,"interpolation":"LINEAR"},{"input":68,"output":69,"interpolation":"LINEAR"},{"input":70,"output":71,"interpolation":"LINEAR"},{"input":72,"output":73,"interpolation":"LINEAR"},{"input":74,"output":75,"interpolation":"LINEAR"},{"input":76,"output":77,"interpolation":"LINEAR"},{"input":78,"output":79,"interpolation":"LINEAR"},{"input":80,"output":81,"interpolation":"LINEAR"},{"input":82,"output":83,"interpolation":"LINEAR"},{"input":84,"output":85,"interpolation":"LINEAR"},{"input":86,"output":87,"interpolation":"LINEAR"},{"input":88,"output":89,"interpolation":"LINEAR"},{"input":90,"output":91,"interpolation":"LINEAR"},{"input":92,"output":93,"interpolation":"LINEAR"},{"input":94,"output":95,"interpolation":"LINEAR"}],"channels":[{"sampler":0,"target":{"node":15,"path":"rotation"}},{"sampler":1,"target":{"node":18,"path":"rotation"}},{"sampler":2,"target":{"node":18,"path":"scale"}},{"sampler":3,"target":{"node":2,"path":"rotation"}},{"sampler":4,"target":{"node":2,"path":"scale"}},{"sampler":5,"target":{"node":8,"path":"rotation"}},{"sampler":6,"target":{"node":8,"path":"scale"}},{"sampler":7,"target":{"node":14,"path":"rotation"}},{"sampler":8,"target":{"node":14,"path":"scale"}},{"sampler":9,"target":{"node":11,"path":"rotation"}},{"sampler":10,"target":{"node":11,"path":"scale"}},{"sampler":11,"target":{"node":5,"path":"rotation"}},{"sampler":12,"target":{"node":5,"path":"scale"}},{"sampler":13,"target":{"node":23,"path":"translation"}},{"sampler":14,"target":{"node":23,"path":"scale"}},{"sampler":15,"target":{"node":24,"path":"rotation"}}]}]}