{"asset":{"version":"2.0","generator":"Blockbench 5.0.5 glTF exporter"},"scenes":[{"nodes":[1,6],"name":"blockbench_export"}],"scene":0,"nodes":[{"name":"cube","mesh":0},{"translation":[0,1.0636875000000001,0],"name":"h_body","children":[0]},{"rotation":[0,0,-0.3826834323650898,0.9238795325112867],"translation":[1.3305121125538564,-0.000020965933799743652,-0.5385446275463804],"name":"cube","mesh":1},{"rotation":[0,0,-0.3826834323650898,0.9238795325112867],"translation":[1.3305121125538564,-0.000020965933799743652,-0.5385446275463804],"name":"cube","mesh":2},{"rotation":[0,0,-0.3826834323650898,0.9238795325112867],"translation":[1.3305121125538564,-0.000020965933799743652,-0.5385446275463804],"name":"cube","mesh":3},{"rotation":[0,0,-0.3826834323650898,0.9238795325112867],"translation":[1.3305121125538564,-0.000020965933799743652,-0.5385446275463804],"name":"cube","mesh":4},{"rotation":[0,0.5372996083468239,0,0.8433914458128857],"translation":[0,1.062468707561493,-0.07797561889961613],"name":"h_main2","children":[2,3,4,5]}],"bufferViews":[{"buffer":0,"byteOffset":0,"byteLength":288,"target":34962,"byteStride":12},{"buffer":0,"byteOffset":288,"byteLength":288,"target":34962,"byteStride":12},{"buffer":0,"byteOffset":576,"byteLength":192,"target":34962,"byteStride":8},{"buffer":0,"byteOffset":768,"byteLength":72,"target":34963},{"buffer":0,"byteOffset":840,"byteLength":288,"target":34962,"byteStride":12},{"buffer":0,"byteOffset":1128,"byteLength":288,"target":34962,"byteStride":12},{"buffer":0,"byteOffset":1416,"byteLength":192,"target":34962,"byteStride":8},{"buffer":0,"byteOffset":1608,"byteLength":72,"target":34963},{"buffer":0,"byteOffset":1680,"byteLength":288,"target":34962,"byteStride":12},{"buffer":0,"byteOffset":1968,"byteLength":288,"target":34962,"byteStride":12},{"buffer":0,"byteOffset":2256,"byteLength":192,"target":34962,"byteStride":8},{"buffer":0,"byteOffset":2448,"byteLength":72,"target":34963},{"buffer":0,"byteOffset":2520,"byteLength":288,"target":34962,"byteStride":12},{"buffer":0,"byteOffset":2808,"byteLength":288,"target":34962,"byteStride":12},{"buffer":0,"byteOffset":3096,"byteLength":192,"target":34962,"byteStride":8},{"buffer":0,"byteOffset":3288,"byteLength":72,"target":34963},{"buffer":0,"byteOffset":3360,"byteLength":288,"target":34962,"byteStride":12},{"buffer":0,"byteOffset":3648,"byteLength":288,"target":34962,"byteStride":12},{"buffer":0,"byteOffset":3936,"byteLength":192,"target":34962,"byteStride":8},{"buffer":0,"byteOffset":4128,"byteLength":72,"target":34963},{"buffer":0,"byteOffset":4200,"byteLength":8},{"buffer":0,"byteOffset":4208,"byteLength":32},{"buffer":0,"byteOffset":4240,"byteLength":8},{"buffer":0,"byteOffset":4248,"byteLength":32},{"buffer":0,"byteOffset":4280,"byteLength":8},{"buffer":0,"byteOffset":4288,"byteLength":24},{"buffer":0,"byteOffset":4312,"byteLength":12},{"buffer":0,"byteOffset":4324,"byteLength":36},{"buffer":0,"byteOffset":4360,"byteLength":8},{"buffer":0,"byteOffset":4368,"byteLength":32},{"buffer":0,"byteOffset":4400,"byteLength":8},{"buffer":0,"byteOffset":4408,"byteLength":32},{"buffer":0,"byteOffset":4440,"byteLength":8},{"buffer":0,"byteOffset":4448,"byteLength":24},{"buffer":0,"byteOffset":4472,"byteLength":12},{"buffer":0,"byteOffset":4484,"byteLength":36},{"buffer":0,"byteOffset":4520,"byteLength":24},{"buffer":0,"byteOffset":4544,"byteLength":96},{"buffer":0,"byteOffset":4640,"byteLength":8},{"buffer":0,"byteOffset":4648,"byteLength":24},{"buffer":0,"byteOffset":4672,"byteLength":24},{"buffer":0,"byteOffset":4696,"byteLength":96},{"buffer":0,"byteOffset":4792,"byteLength":8},{"buffer":0,"byteOffset":4800,"byteLength":24},{"buffer":0,"byteOffset":4824,"byteLength":12},{"buffer":0,"byteOffset":4836,"byteLength":36}],"buffers":[{"byteLength":4872,"uri":"data:application/octet-stream;base64,"}],"accessors":[{"bufferView":0,"componentType":5126,"count":24,"max":[2.21875,0.0000625000029685907,2.21875],"min":[-2.21875,0,-2.21875],"type":"VEC3"},{"bufferView":1,"componentType":5126,"count":24,"max":[1,1,1],"min":[-1,-1,-1],"type":"VEC3"},{"bufferView":2,"componentType":5126,"count":24,"max":[1,1],"min":[0,0],"type":"VEC2"},{"bufferView":3,"componentType":5123,"count":36,"max":[23],"min":[0],"type":"SCALAR"},{"bufferView":4,"componentType":5126,"count":24,"max":[-0.6977425217628479,0.6978469491004944,0.19196650385856628],"min":[-0.6978049874305725,-0.6977630853652954,-0.19196650385856628],"type":"VEC3"},{"bufferView":5,"componentType":5126,"count":24,"max":[1,1,1],"min":[-1,-1,-1],"type":"VEC3"},{"bufferView":6,"componentType":5126,"count":24,"max":[0.453125,0.8125],"min":[0,0],"type":"VEC2"},{"bufferView":7,"componentType":5123,"count":36,"max":[23],"min":[0],"type":"SCALAR"},{"bufferView":8,"componentType":5126,"count":24,"max":[0.6978675127029419,0.6978469491004944,0.19196650385856628],"min":[0.6978049874305725,-0.6977630853652954,-0.19196650385856628],"type":"VEC3"},{"bufferView":9,"componentType":5126,"count":24,"max":[1,1,1],"min":[-1,-1,-1],"type":"VEC3"},{"bufferView":10,"componentType":5126,"count":24,"max":[0.421875,0.8125],"min":[0.03125,0],"type":"VEC2"},{"bufferView":11,"componentType":5123,"count":36,"max":[23],"min":[0],"type":"SCALAR"},{"bufferView":12,"componentType":5126,"count":24,"max":[0.6978049874305725,0.6978675127029419,0.19196650385856628],"min":[-0.6978049874305725,0.6978049874305725,-0.19196650385856628],"type":"VEC3"},{"bufferView":13,"componentType":5126,"count":24,"max":[1,1,1],"min":[-1,-1,-1],"type":"VEC3"},{"bufferView":14,"componentType":5126,"count":24,"max":[0.78125,0.46875],"min":[0,0.21875],"type":"VEC2"},{"bufferView":15,"componentType":5123,"count":36,"max":[23],"min":[0],"type":"SCALAR"},{"bufferView":16,"componentType":5126,"count":24,"max":[0.6978049874305725,-0.6977425217628479,0.19196650385856628],"min":[-0.6978049874305725,-0.6978049874305725,-0.19196650385856628],"type":"VEC3"},{"bufferView":17,"componentType":5126,"count":24,"max":[1,1,1],"min":[-1,-1,-1],"type":"VEC3"},{"bufferView":18,"componentType":5126,"count":24,"max":[0.8125,0.28125],"min":[0.4375,0],"type":"VEC2"},{"bufferView":19,"componentType":5123,"count":36,"max":[23],"min":[0],"type":"SCALAR"},{"bufferView":20,"componentType":5126,"count":2,"max":[0.5],"min":[0],"type":"SCALAR"},{"bufferView":21,"componentType":5126,"count":2,"max":[-0.031905464828014374,-0.10652103275060654,-0.011283406056463718,0.9936237931251526],"min":[-0.03518158197402954,-0.31905561685562134,-0.018630633130669594,0.9470155835151672],"type":"VEC4"},{"bufferView":22,"componentType":5126,"count":2,"max":[0.5],"min":[0],"type":"SCALAR"},{"bufferView":23,"componentType":5126,"count":2,"max":[0,0.591309666633606,0,0.8064445853233337],"min":[0,-0.6087614297866821,0,0.7933533191680908],"type":"VEC4"},{"bufferView":24,"componentType":5126,"count":2,"max":[0.5],"min":[0],"type":"SCALAR"},{"bufferView":25,"componentType":5126,"count":2,"max":[0,1.0624687671661377,1.1095243692398071],"min":[0,1.0624687671661377,-0.26547563076019287],"type":"VEC3"},{"bufferView":26,"componentType":5126,"count":3,"max":[0.5],"min":[0],"type":"SCALAR"},{"bufferView":27,"componentType":5126,"count":3,"max":[1,1,1],"min":[0.6000000238418579,0.6000000238418579,0],"type":"VEC3"},{"bufferView":28,"componentType":5126,"count":2,"max":[0.5],"min":[0],"type":"SCALAR"},{"bufferView":29,"componentType":5126,"count":2,"max":[0.34393274784088135,0.024826442822813988,0.9796673059463501,0.030820731073617935],"min":[0.19719752669334412,0.020375022664666176,0.9382671117782593,0.027362508699297905],"type":"VEC4"},{"bufferView":30,"componentType":5126,"count":2,"max":[0.5],"min":[0],"type":"SCALAR"},{"bufferView":31,"componentType":5126,"count":2,"max":[0,0.9600498676300049,0,0.3420201539993286],"min":[0,0.9396926164627075,0,-0.2798290252685547],"type":"VEC4"},{"bufferView":32,"componentType":5126,"count":2,"max":[0.5],"min":[0],"type":"SCALAR"},{"bufferView":33,"componentType":5126,"count":2,"max":[0,1.0624687671661377,1.1095243692398071],"min":[0,1.0624687671661377,-0.26547563076019287],"type":"VEC3"},{"bufferView":34,"componentType":5126,"count":3,"max":[0.5],"min":[0],"type":"SCALAR"},{"bufferView":35,"componentType":5126,"count":3,"max":[1,1,1],"min":[0.6000000238418579,0.6000000238418579,0],"type":"VEC3"},{"bufferView":36,"componentType":5126,"count":6,"max":[0.5],"min":[0],"type":"SCALAR"},{"bufferView":37,"componentType":5126,"count":6,"max":[-0.4582131505012512,-0.4469926953315735,0.5346143245697021,0.1568637192249298],"min":[-0.6946551203727722,-0.6970729827880859,-0.17450501024723053,-0.5517479181289673],"type":"VEC4"},{"bufferView":38,"componentType":5126,"count":2,"max":[0.5],"min":[0],"type":"SCALAR"},{"bufferView":39,"componentType":5126,"count":2,"max":[0,1.9386874437332153,0.5],"min":[0,1.5636874437332153,-0.25],"type":"VEC3"},{"bufferView":40,"componentType":5126,"count":6,"max":[0.5],"min":[0],"type":"SCALAR"},{"bufferView":41,"componentType":5126,"count":6,"max":[0.18095572292804718,0.474686861038208,0.6675567030906677,0.6971014142036438],"min":[-0.45451948046684265,-0.18887221813201904,0.5213338136672974,0.5443302989006042],"type":"VEC4"},{"bufferView":42,"componentType":5126,"count":2,"max":[0.5],"min":[0],"type":"SCALAR"},{"bufferView":43,"componentType":5126,"count":2,"max":[0,2.0624687671661377,-0.39047563076019287],"min":[0,0.8749687075614929,-0.8904756307601929],"type":"VEC3"},{"bufferView":44,"componentType":5126,"count":3,"max":[0.375],"min":[0],"type":"SCALAR"},{"bufferView":45,"componentType":5126,"count":3,"max":[1,1,1],"min":[0.6000000238418579,0.6000000238418579,0],"type":"VEC3"}],"materials":[{"pbrMetallicRoughness":{"metallicFactor":0,"roughnessFactor":1,"baseColorTexture":{"index":0}},"alphaMode":"MASK","alphaCutoff":0.05,"doubleSided":true},{"pbrMetallicRoughness":{"metallicFactor":0,"roughnessFactor":1,"baseColorTexture":{"index":1}},"alphaMode":"MASK","alphaCutoff":0.05,"doubleSided":true}],"textures":[{"sampler":0,"source":0,"name":"monk_swift_strike_5.png"},{"sampler":1,"source":1,"name":"monk_swift_strike_wave"}],"samplers":[{"magFilter":9728,"minFilter":9728,"wrapS":33071,"wrapT":33071},{"magFilter":9728,"minFilter":9728,"wrapS":33071,"wrapT":33071}],"images":[{"mimeType":"image/png","uri":"data:image/png;base64,"},{"mimeType":"image/png","uri":"data:image/png;base64,"}],"meshes":[{"primitives":[{"mode":4,"attributes":{"POSITION":0,"NORMAL":1,"TEXCOORD_0":2},"indices":3,"material":0}]},{"primitives":[{"mode":4,"attributes":{"POSITION":4,"NORMAL":5,"TEXCOORD_0":6},"indices":7,"material":1}]},{"primitives":[{"mode":4,"attributes":{"POSITION":8,"NORMAL":9,"TEXCOORD_0":10},"indices":11,"material":1}]},{"primitives":[{"mode":4,"attributes":{"POSITION":12,"NORMAL":13,"TEXCOORD_0":14},"indices":15,"material":1}]},{"primitives":[{"mode":4,"attributes":{"POSITION":16,"NORMAL":17,"TEXCOORD_0":18},"indices":19,"material":1}]}],"animations":[{"name":"skill1","samplers":[{"input":20,"output":21,"interpolation":"LINEAR"},{"input":22,"output":23,"interpolation":"LINEAR"},{"input":24,"output":25,"interpolation":"LINEAR"},{"input":26,"output":27,"interpolation":"LINEAR"}],"channels":[{"sampler":0,"target":{"node":1,"path":"rotation"}},{"sampler":1,"target":{"node":6,"path":"rotation"}},{"sampler":2,"target":{"node":6,"path":"translation"}},{"sampler":3,"target":{"node":6,"path":"scale"}}]},{"name":"skill2","samplers":[{"input":28,"output":29,"interpolation":"LINEAR"},{"input":30,"output":31,"interpolation":"LINEAR"},{"input":32,"output":33,"interpolation":"LINEAR"},{"input":34,"output":35,"interpolation":"LINEAR"}],"channels":[{"sampler":0,"target":{"node":1,"path":"rotation"}},{"sampler":1,"target":{"node":6,"path":"rotation"}},{"sampler":2,"target":{"node":6,"path":"translation"}},{"sampler":3,"target":{"node":6,"path":"scale"}}]},{"name":"skill3","samplers":[{"input":36,"output":37,"interpolation":"LINEAR"},{"input":38,"output":39,"interpolation":"LINEAR"},{"input":40,"output":41,"interpolation":"LINEAR"},{"input":42,"output":43,"interpolation":"LINEAR"},{"input":44,"output":45,"interpolation":"LINEAR"}],"channels":[{"sampler":0,"target":{"node":1,"path":"rotation"}},{"sampler":1,"target":{"node":1,"path":"translation"}},{"sampler":2,"target":{"node":6,"path":"rotation"}},{"sampler":3,"target":{"node":6,"path":"translation"}},{"sampler":4,"target":{"node":6,"path":"scale"}}]}]}