{"asset":{"version":"2.0","generator":"Blockbench 5.0.5 glTF exporter"},"scenes":[{"nodes":[13],"name":"blockbench_export"}],"scene":0,"nodes":[{"translation":[-5.886490911283709e-17,0,-1.1102230246251565e-16],"name":"cube","mesh":0},{"translation":[0,0,-1.1102230246251565e-16],"name":"cube","mesh":1},{"translation":[0,0,0.480668460112917],"name":"h_main","children":[0,1]},{"translation":[-2.4401817734049668e-17,0.00003129243850708008,5.551115123125783e-17],"name":"cube","mesh":2},{"translation":[-2.4401817734049668e-17,0.00003129243850708008,5.551115123125783e-17],"name":"cube","mesh":3},{"translation":[3.110933349720816e-17,-0.00003129243850708008,-5.551115123125783e-17],"name":"cube","mesh":4},{"translation":[3.110933349720816e-17,-0.00003129243850708008,-5.551115123125783e-17],"name":"cube","mesh":5},{"translation":[-3.110933349720816e-17,-0.00003129243850708008,0.4806684601129168],"name":"h_main2","children":[3,4,5,6]},{"rotation":[0,0.19509032201612825,0,0.9807852804032304],"translation":[2.9432454556418546e-17,0,2.7755575615628914e-17],"name":"cube","mesh":6},{"rotation":[0,-0.19509032201612825,0,0.9807852804032304],"translation":[2.9432454556418546e-17,0,2.7755575615628914e-17],"name":"cube","mesh":7},{"rotation":[0.19509032201612825,0,0,0.9807852804032304],"translation":[0,-4.003766651550222e-9,2.345683902671425e-8],"name":"cube","mesh":8},{"rotation":[-0.19509032201612825,0,0,0.9807852804032304],"translation":[0,-4.003766651550222e-9,2.345683902671425e-8],"name":"cube","mesh":9},{"translation":[0,0,-0.2403342300564585],"name":"h_bone2","children":[8,9,10,11]},{"rotation":[0,-1,0,6.123233995736766e-17],"translation":[0,1.0625,0.0038559209874671208],"name":"h_bone","children":[2,7,12]}],"bufferViews":[{"buffer":0,"byteOffset":0,"byteLength":288,"target":34962,"byteStride":12},{"buffer":0,"byteOffset":288,"byteLength":288,"target":34962,"byteStride":12},{"buffer":0,"byteOffset":576,"byteLength":192,"target":34962,"byteStride":8},{"buffer":0,"byteOffset":768,"byteLength":72,"target":34963},{"buffer":0,"byteOffset":840,"byteLength":288,"target":34962,"byteStride":12},{"buffer":0,"byteOffset":1128,"byteLength":288,"target":34962,"byteStride":12},{"buffer":0,"byteOffset":1416,"byteLength":192,"target":34962,"byteStride":8},{"buffer":0,"byteOffset":1608,"byteLength":72,"target":34963},{"buffer":0,"byteOffset":1680,"byteLength":288,"target":34962,"byteStride":12},{"buffer":0,"byteOffset":1968,"byteLength":288,"target":34962,"byteStride":12},{"buffer":0,"byteOffset":2256,"byteLength":192,"target":34962,"byteStride":8},{"buffer":0,"byteOffset":2448,"byteLength":72,"target":34963},{"buffer":0,"byteOffset":2520,"byteLength":288,"target":34962,"byteStride":12},{"buffer":0,"byteOffset":2808,"byteLength":288,"target":34962,"byteStride":12},{"buffer":0,"byteOffset":3096,"byteLength":192,"target":34962,"byteStride":8},{"buffer":0,"byteOffset":3288,"byteLength":72,"target":34963},{"buffer":0,"byteOffset":3360,"byteLength":288,"target":34962,"byteStride":12},{"buffer":0,"byteOffset":3648,"byteLength":288,"target":34962,"byteStride":12},{"buffer":0,"byteOffset":3936,"byteLength":192,"target":34962,"byteStride":8},{"buffer":0,"byteOffset":4128,"byteLength":72,"target":34963},{"buffer":0,"byteOffset":4200,"byteLength":288,"target":34962,"byteStride":12},{"buffer":0,"byteOffset":4488,"byteLength":288,"target":34962,"byteStride":12},{"buffer":0,"byteOffset":4776,"byteLength":192,"target":34962,"byteStride":8},{"buffer":0,"byteOffset":4968,"byteLength":72,"target":34963},{"buffer":0,"byteOffset":5040,"byteLength":288,"target":34962,"byteStride":12},{"buffer":0,"byteOffset":5328,"byteLength":288,"target":34962,"byteStride":12},{"buffer":0,"byteOffset":5616,"byteLength":192,"target":34962,"byteStride":8},{"buffer":0,"byteOffset":5808,"byteLength":72,"target":34963},{"buffer":0,"byteOffset":5880,"byteLength":288,"target":34962,"byteStride":12},{"buffer":0,"byteOffset":6168,"byteLength":288,"target":34962,"byteStride":12},{"buffer":0,"byteOffset":6456,"byteLength":192,"target":34962,"byteStride":8},{"buffer":0,"byteOffset":6648,"byteLength":72,"target":34963},{"buffer":0,"byteOffset":6720,"byteLength":288,"target":34962,"byteStride":12},{"buffer":0,"byteOffset":7008,"byteLength":288,"target":34962,"byteStride":12},{"buffer":0,"byteOffset":7296,"byteLength":192,"target":34962,"byteStride":8},{"buffer":0,"byteOffset":7488,"byteLength":72,"target":34963},{"buffer":0,"byteOffset":7560,"byteLength":288,"target":34962,"byteStride":12},{"buffer":0,"byteOffset":7848,"byteLength":288,"target":34962,"byteStride":12},{"buffer":0,"byteOffset":8136,"byteLength":192,"target":34962,"byteStride":8},{"buffer":0,"byteOffset":8328,"byteLength":72,"target":34963},{"buffer":0,"byteOffset":8400,"byteLength":20},{"buffer":0,"byteOffset":8420,"byteLength":80},{"buffer":0,"byteOffset":8500,"byteLength":4},{"buffer":0,"byteOffset":8504,"byteLength":12},{"buffer":0,"byteOffset":8516,"byteLength":4},{"buffer":0,"byteOffset":8520,"byteLength":12},{"buffer":0,"byteOffset":8532,"byteLength":36},{"buffer":0,"byteOffset":8568,"byteLength":108},{"buffer":0,"byteOffset":8676,"byteLength":36},{"buffer":0,"byteOffset":8712,"byteLength":108},{"buffer":0,"byteOffset":8820,"byteLength":20},{"buffer":0,"byteOffset":8840,"byteLength":60},{"buffer":0,"byteOffset":8900,"byteLength":20},{"buffer":0,"byteOffset":8920,"byteLength":60},{"buffer":0,"byteOffset":8980,"byteLength":8},{"buffer":0,"byteOffset":8988,"byteLength":24},{"buffer":0,"byteOffset":9012,"byteLength":16},{"buffer":0,"byteOffset":9028,"byteLength":48},{"buffer":0,"byteOffset":9076,"byteLength":20},{"buffer":0,"byteOffset":9096,"byteLength":80},{"buffer":0,"byteOffset":9176,"byteLength":4},{"buffer":0,"byteOffset":9180,"byteLength":12},{"buffer":0,"byteOffset":9192,"byteLength":36},{"buffer":0,"byteOffset":9228,"byteLength":108},{"buffer":0,"byteOffset":9336,"byteLength":36},{"buffer":0,"byteOffset":9372,"byteLength":108},{"buffer":0,"byteOffset":9480,"byteLength":20},{"buffer":0,"byteOffset":9500,"byteLength":60},{"buffer":0,"byteOffset":9560,"byteLength":20},{"buffer":0,"byteOffset":9580,"byteLength":60},{"buffer":0,"byteOffset":9640,"byteLength":8},{"buffer":0,"byteOffset":9648,"byteLength":24},{"buffer":0,"byteOffset":9672,"byteLength":16},{"buffer":0,"byteOffset":9688,"byteLength":48},{"buffer":0,"byteOffset":9736,"byteLength":20},{"buffer":0,"byteOffset":9756,"byteLength":80},{"buffer":0,"byteOffset":9836,"byteLength":4},{"buffer":0,"byteOffset":9840,"byteLength":12},{"buffer":0,"byteOffset":9852,"byteLength":36},{"buffer":0,"byteOffset":9888,"byteLength":108},{"buffer":0,"byteOffset":9996,"byteLength":36},{"buffer":0,"byteOffset":10032,"byteLength":108},{"buffer":0,"byteOffset":10140,"byteLength":20},{"buffer":0,"byteOffset":10160,"byteLength":60},{"buffer":0,"byteOffset":10220,"byteLength":20},{"buffer":0,"byteOffset":10240,"byteLength":60},{"buffer":0,"byteOffset":10300,"byteLength":8},{"buffer":0,"byteOffset":10308,"byteLength":24},{"buffer":0,"byteOffset":10332,"byteLength":16},{"buffer":0,"byteOffset":10348,"byteLength":48}],"buffers":[{"byteLength":10396,"uri":"data:application/octet-stream;base64,"}],"accessors":[{"bufferView":0,"componentType":5126,"count":24,"max":[0.7580999732017517,0.7580999732017517,0.2707499861717224],"min":[-0.7580999732017517,-0.7580999732017517,-0.2707499861717224],"type":"VEC3"},{"bufferView":1,"componentType":5126,"count":24,"max":[1,1,1],"min":[-1,-1,-1],"type":"VEC3"},{"bufferView":2,"componentType":5126,"count":24,"max":[0.6484375,0.7109375],"min":[0,0],"type":"VEC2"},{"bufferView":3,"componentType":5123,"count":36,"max":[23],"min":[0],"type":"SCALAR"},{"bufferView":4,"componentType":5126,"count":24,"max":[0.5414999723434448,0.5414999723434448,0.16245000064373016],"min":[-0.5414999723434448,-0.5414999723434448,-0.16245000064373016],"type":"VEC3"},{"bufferView":5,"componentType":5126,"count":24,"max":[1,1,1],"min":[-1,-1,-1],"type":"VEC3"},{"bufferView":6,"componentType":5126,"count":24,"max":[0.75,0.734375],"min":[0,0.1328125],"type":"VEC2"},{"bufferView":7,"componentType":5123,"count":36,"max":[23],"min":[0],"type":"SCALAR"},{"bufferView":8,"componentType":5126,"count":24,"max":[-1.0414375066757202,1.0414999723434448,0.09995000064373016],"min":[-1.0414999723434448,-1.0414999723434448,-0.09995000064373016],"type":"VEC3"},{"bufferView":9,"componentType":5126,"count":24,"max":[1,1,1],"min":[-1,-1,-1],"type":"VEC3"},{"bufferView":10,"componentType":5126,"count":24,"max":[0.546875,0.859375],"min":[0.390625,0.3515625],"type":"VEC2"},{"bufferView":11,"componentType":5123,"count":36,"max":[23],"min":[0],"type":"SCALAR"},{"bufferView":12,"componentType":5126,"count":24,"max":[1.041562557220459,1.0414999723434448,0.09995000064373016],"min":[1.0414999723434448,-1.0414999723434448,-0.09995000064373016],"type":"VEC3"},{"bufferView":13,"componentType":5126,"count":24,"max":[1,1,1],"min":[-1,-1,-1],"type":"VEC3"},{"bufferView":14,"componentType":5126,"count":24,"max":[0.609375,0.859375],"min":[0.40625,0.3515625],"type":"VEC2"},{"bufferView":15,"componentType":5123,"count":36,"max":[23],"min":[0],"type":"SCALAR"},{"bufferView":16,"componentType":5126,"count":24,"max":[1.0414999723434448,-1.0414375066757202,0.09995000064373016],"min":[-1.0414999723434448,-1.0414999723434448,-0.09995000064373016],"type":"VEC3"},{"bufferView":17,"componentType":5126,"count":24,"max":[1,1,1],"min":[-1,-1,-1],"type":"VEC3"},{"bufferView":18,"componentType":5126,"count":24,"max":[0.875,0.453125],"min":[0.4921875,0.1953125],"type":"VEC2"},{"bufferView":19,"componentType":5123,"count":36,"max":[23],"min":[0],"type":"SCALAR"},{"bufferView":20,"componentType":5126,"count":24,"max":[1.0414999723434448,1.041562557220459,0.09995000064373016],"min":[-1.0414999723434448,1.0414999723434448,-0.09995000064373016],"type":"VEC3"},{"bufferView":21,"componentType":5126,"count":24,"max":[1,1,1],"min":[-1,-1,-1],"type":"VEC3"},{"bufferView":22,"componentType":5126,"count":24,"max":[0.859375,0.3828125],"min":[0.4609375,0.1328125],"type":"VEC2"},{"bufferView":23,"componentType":5123,"count":36,"max":[23],"min":[0],"type":"SCALAR"},{"bufferView":24,"componentType":5126,"count":24,"max":[-0.8726348280906677,0.7580999732017517,0.12586693465709686],"min":[-0.8726972937583923,-0.7580999732017517,-0.8488330841064453],"type":"VEC3"},{"bufferView":25,"componentType":5126,"count":24,"max":[1,1,1],"min":[-1,-1,-1],"type":"VEC3"},{"bufferView":26,"componentType":5126,"count":24,"max":[0.4453125,0.7890625],"min":[0.1953125,0],"type":"VEC2"},{"bufferView":27,"componentType":5123,"count":36,"max":[23],"min":[0],"type":"SCALAR"},{"bufferView":28,"componentType":5126,"count":24,"max":[0.8727598190307617,0.7580999732017517,0.12586693465709686],"min":[0.8726972937583923,-0.7580999732017517,-0.8488330841064453],"type":"VEC3"},{"bufferView":29,"componentType":5126,"count":24,"max":[1,1,1],"min":[-1,-1,-1],"type":"VEC3"},{"bufferView":30,"componentType":5126,"count":24,"max":[0.4765625,0.7890625],"min":[0.328125,0],"type":"VEC2"},{"bufferView":31,"componentType":5123,"count":36,"max":[23],"min":[0],"type":"SCALAR"},{"bufferView":32,"componentType":5126,"count":24,"max":[0.7580999732017517,0.8727598190307617,0.12586693465709686],"min":[-0.7580999732017517,0.8726972937583923,-0.8488330841064453],"type":"VEC3"},{"bufferView":33,"componentType":5126,"count":24,"max":[1,1,1],"min":[-1,-1,-1],"type":"VEC3"},{"bufferView":34,"componentType":5126,"count":24,"max":[0.4765625,0.7890625],"min":[0.328125,0],"type":"VEC2"},{"bufferView":35,"componentType":5123,"count":36,"max":[23],"min":[0],"type":"SCALAR"},{"bufferView":36,"componentType":5126,"count":24,"max":[0.7580999732017517,-0.8726348280906677,0.12586693465709686],"min":[-0.7580999732017517,-0.8726972937583923,-0.8488330841064453],"type":"VEC3"},{"bufferView":37,"componentType":5126,"count":24,"max":[1,1,1],"min":[-1,-1,-1],"type":"VEC3"},{"bufferView":38,"componentType":5126,"count":24,"max":[0.4453125,0.7890625],"min":[0.1953125,0],"type":"VEC2"},{"bufferView":39,"componentType":5123,"count":36,"max":[23],"min":[0],"type":"SCALAR"},{"bufferView":40,"componentType":5126,"count":5,"max":[1],"min":[0],"type":"SCALAR"},{"bufferView":41,"componentType":5126,"count":5,"max":[1,1,6.123234262925839e-17,6.123234262925839e-17],"min":[0,-1,0,-6.123234262925839e-17],"type":"VEC4"},{"bufferView":42,"componentType":5126,"count":1,"max":[0],"min":[0],"type":"SCALAR"},{"bufferView":43,"componentType":5126,"count":1,"max":[0,1.5625,0.003855921095237136],"min":[0,1.5625,0.003855921095237136],"type":"VEC3"},{"bufferView":44,"componentType":5126,"count":1,"max":[0],"min":[0],"type":"SCALAR"},{"bufferView":45,"componentType":5126,"count":1,"max":[1.600000023841858,1.600000023841858,1.600000023841858],"min":[1.600000023841858,1.600000023841858,1.600000023841858],"type":"VEC3"},{"bufferView":46,"componentType":5126,"count":9,"max":[1],"min":[0],"type":"SCALAR"},{"bufferView":47,"componentType":5126,"count":9,"max":[0,0,-0.40095922350883484],"min":[0,0,-1.9043967723846436],"type":"VEC3"},{"bufferView":48,"componentType":5126,"count":9,"max":[1],"min":[0],"type":"SCALAR"},{"bufferView":49,"componentType":5126,"count":9,"max":[1,1,4.599999904632568],"min":[1,1,1.600000023841858],"type":"VEC3"},{"bufferView":50,"componentType":5126,"count":5,"max":[1],"min":[0],"type":"SCALAR"},{"bufferView":51,"componentType":5126,"count":5,"max":[0,0,0.6681684851646423],"min":[0,0,0.3994184732437134],"type":"VEC3"},{"bufferView":52,"componentType":5126,"count":5,"max":[1],"min":[0],"type":"SCALAR"},{"bufferView":53,"componentType":5126,"count":5,"max":[1,1,2],"min":[1,1,0.8999999761581421],"type":"VEC3"},{"bufferView":54,"componentType":5126,"count":2,"max":[1],"min":[0],"type":"SCALAR"},{"bufferView":55,"componentType":5126,"count":2,"max":[-3.110933308711086e-17,-0.00003129243850708008,1.4181684255599976],"min":[-3.110933308711086e-17,-0.00003129243850708008,-3.206831455230713],"type":"VEC3"},{"bufferView":56,"componentType":5126,"count":4,"max":[1],"min":[0],"type":"SCALAR"},{"bufferView":57,"componentType":5126,"count":4,"max":[1,0.8999999761581421,1.7999999523162842],"min":[0.5,0.4000000059604645,0],"type":"VEC3"},{"bufferView":58,"componentType":5126,"count":5,"max":[1],"min":[0],"type":"SCALAR"},{"bufferView":59,"componentType":5126,"count":5,"max":[1,1,6.123234262925839e-17,6.123234262925839e-17],"min":[0,-1,0,-6.123234262925839e-17],"type":"VEC4"},{"bufferView":60,"componentType":5126,"count":1,"max":[0],"min":[0],"type":"SCALAR"},{"bufferView":61,"componentType":5126,"count":1,"max":[0.8999999761581421,0.8999999761581421,0.8999999761581421],"min":[0.8999999761581421,0.8999999761581421,0.8999999761581421],"type":"VEC3"},{"bufferView":62,"componentType":5126,"count":9,"max":[1],"min":[0],"type":"SCALAR"},{"bufferView":63,"componentType":5126,"count":9,"max":[0,0,-0.40095922350883484],"min":[0,0,-1.9043967723846436],"type":"VEC3"},{"bufferView":64,"componentType":5126,"count":9,"max":[1],"min":[0],"type":"SCALAR"},{"bufferView":65,"componentType":5126,"count":9,"max":[1,1,4.599999904632568],"min":[1,1,1.600000023841858],"type":"VEC3"},{"bufferView":66,"componentType":5126,"count":5,"max":[1],"min":[0],"type":"SCALAR"},{"bufferView":67,"componentType":5126,"count":5,"max":[0,0,0.6681684851646423],"min":[0,0,0.3994184732437134],"type":"VEC3"},{"bufferView":68,"componentType":5126,"count":5,"max":[1],"min":[0],"type":"SCALAR"},{"bufferView":69,"componentType":5126,"count":5,"max":[1,1,2],"min":[1,1,0.8999999761581421],"type":"VEC3"},{"bufferView":70,"componentType":5126,"count":2,"max":[1],"min":[0],"type":"SCALAR"},{"bufferView":71,"componentType":5126,"count":2,"max":[-3.110933308711086e-17,-0.00003129243850708008,1.4181684255599976],"min":[-3.110933308711086e-17,-0.00003129243850708008,-3.206831455230713],"type":"VEC3"},{"bufferView":72,"componentType":5126,"count":4,"max":[1],"min":[0],"type":"SCALAR"},{"bufferView":73,"componentType":5126,"count":4,"max":[1,0.8999999761581421,1.7999999523162842],"min":[0.5,0.4000000059604645,0],"type":"VEC3"},{"bufferView":74,"componentType":5126,"count":5,"max":[1],"min":[0],"type":"SCALAR"},{"bufferView":75,"componentType":5126,"count":5,"max":[1,1,6.123234262925839e-17,6.123234262925839e-17],"min":[0,-1,0,-6.123234262925839e-17],"type":"VEC4"},{"bufferView":76,"componentType":5126,"count":1,"max":[0],"min":[0],"type":"SCALAR"},{"bufferView":77,"componentType":5126,"count":1,"max":[0.4000000059604645,0.4000000059604645,0.4000000059604645],"min":[0.4000000059604645,0.4000000059604645,0.4000000059604645],"type":"VEC3"},{"bufferView":78,"componentType":5126,"count":9,"max":[1],"min":[0],"type":"SCALAR"},{"bufferView":79,"componentType":5126,"count":9,"max":[0,0,-0.40095922350883484],"min":[0,0,-1.9043967723846436],"type":"VEC3"},{"bufferView":80,"componentType":5126,"count":9,"max":[1],"min":[0],"type":"SCALAR"},{"bufferView":81,"componentType":5126,"count":9,"max":[1,1,4.599999904632568],"min":[1,1,1.600000023841858],"type":"VEC3"},{"bufferView":82,"componentType":5126,"count":5,"max":[1],"min":[0],"type":"SCALAR"},{"bufferView":83,"componentType":5126,"count":5,"max":[0,0,0.6681684851646423],"min":[0,0,0.3994184732437134],"type":"VEC3"},{"bufferView":84,"componentType":5126,"count":5,"max":[1],"min":[0],"type":"SCALAR"},{"bufferView":85,"componentType":5126,"count":5,"max":[1,1,2],"min":[1,1,0.8999999761581421],"type":"VEC3"},{"bufferView":86,"componentType":5126,"count":2,"max":[1],"min":[0],"type":"SCALAR"},{"bufferView":87,"componentType":5126,"count":2,"max":[-3.110933308711086e-17,-0.00003129243850708008,1.4181684255599976],"min":[-3.110933308711086e-17,-0.00003129243850708008,-3.206831455230713],"type":"VEC3"},{"bufferView":88,"componentType":5126,"count":4,"max":[1],"min":[0],"type":"SCALAR"},{"bufferView":89,"componentType":5126,"count":4,"max":[1,0.8999999761581421,1.7999999523162842],"min":[0.5,0.4000000059604645,0],"type":"VEC3"}],"materials":[{"pbrMetallicRoughness":{"metallicFactor":0,"roughnessFactor":1,"baseColorTexture":{"index":0}},"alphaMode":"MASK","alphaCutoff":0.05,"doubleSided":true}],"textures":[{"sampler":0,"source":0,"name":"chi_wave"}],"samplers":[{"magFilter":9728,"minFilter":9728,"wrapS":33071,"wrapT":33071}],"images":[{"mimeType":"image/png","uri":"data:image/png;base64,"}],"meshes":[{"primitives":[{"mode":4,"attributes":{"POSITION":0,"NORMAL":1,"TEXCOORD_0":2},"indices":3,"material":0}]},{"primitives":[{"mode":4,"attributes":{"POSITION":4,"NORMAL":5,"TEXCOORD_0":6},"indices":7,"material":0}]},{"primitives":[{"mode":4,"attributes":{"POSITION":8,"NORMAL":9,"TEXCOORD_0":10},"indices":11,"material":0}]},{"primitives":[{"mode":4,"attributes":{"POSITION":12,"NORMAL":13,"TEXCOORD_0":14},"indices":15,"material":0}]},{"primitives":[{"mode":4,"attributes":{"POSITION":16,"NORMAL":17,"TEXCOORD_0":18},"indices":19,"material":0}]},{"primitives":[{"mode":4,"attributes":{"POSITION":20,"NORMAL":21,"TEXCOORD_0":22},"indices":23,"material":0}]},{"primitives":[{"mode":4,"attributes":{"POSITION":24,"NORMAL":25,"TEXCOORD_0":26},"indices":27,"material":0}]},{"primitives":[{"mode":4,"attributes":{"POSITION":28,"NORMAL":29,"TEXCOORD_0":30},"indices":31,"material":0}]},{"primitives":[{"mode":4,"attributes":{"POSITION":32,"NORMAL":33,"TEXCOORD_0":34},"indices":35,"material":0}]},{"primitives":[{"mode":4,"attributes":{"POSITION":36,"NORMAL":37,"TEXCOORD_0":38},"indices":39,"material":0}]}],"animations":[{"name":"idle","samplers":[{"input":40,"output":41,"interpolation":"LINEAR"},{"input":42,"output":43,"interpolation":"LINEAR"},{"input":44,"output":45,"interpolation":"LINEAR"},{"input":46,"output":47,"interpolation":"LINEAR"},{"input":48,"output":49,"interpolation":"LINEAR"},{"input":50,"output":51,"interpolation":"LINEAR"},{"input":52,"output":53,"interpolation":"LINEAR"},{"input":54,"output":55,"interpolation":"LINEAR"},{"input":56,"output":57,"interpolation":"LINEAR"}],"channels":[{"sampler":0,"target":{"node":13,"path":"rotation"}},{"sampler":1,"target":{"node":13,"path":"translation"}},{"sampler":2,"target":{"node":13,"path":"scale"}},{"sampler":3,"target":{"node":12,"path":"translation"}},{"sampler":4,"target":{"node":12,"path":"scale"}},{"sampler":5,"target":{"node":2,"path":"translation"}},{"sampler":6,"target":{"node":2,"path":"scale"}},{"sampler":7,"target":{"node":7,"path":"translation"}},{"sampler":8,"target":{"node":7,"path":"scale"}}]},{"name":"idle2","samplers":[{"input":58,"output":59,"interpolation":"LINEAR"},{"input":60,"output":61,"interpolation":"LINEAR"},{"input":62,"output":63,"interpolation":"LINEAR"},{"input":64,"output":65,"interpolation":"LINEAR"},{"input":66,"output":67,"interpolation":"LINEAR"},{"input":68,"output":69,"interpolation":"LINEAR"},{"input":70,"output":71,"interpolation":"LINEAR"},{"input":72,"output":73,"interpolation":"LINEAR"}],"channels":[{"sampler":0,"target":{"node":13,"path":"rotation"}},{"sampler":1,"target":{"node":13,"path":"scale"}},{"sampler":2,"target":{"node":12,"path":"translation"}},{"sampler":3,"target":{"node":12,"path":"scale"}},{"sampler":4,"target":{"node":2,"path":"translation"}},{"sampler":5,"target":{"node":2,"path":"scale"}},{"sampler":6,"target":{"node":7,"path":"translation"}},{"sampler":7,"target":{"node":7,"path":"scale"}}]},{"name":"idle3","samplers":[{"input":74,"output":75,"interpolation":"LINEAR"},{"input":76,"output":77,"interpolation":"LINEAR"},{"input":78,"output":79,"interpolation":"LINEAR"},{"input":80,"output":81,"interpolation":"LINEAR"},{"input":82,"output":83,"interpolation":"LINEAR"},{"input":84,"output":85,"interpolation":"LINEAR"},{"input":86,"output":87,"interpolation":"LINEAR"},{"input":88,"output":89,"interpolation":"LINEAR"}],"channels":[{"sampler":0,"target":{"node":13,"path":"rotation"}},{"sampler":1,"target":{"node":13,"path":"scale"}},{"sampler":2,"target":{"node":12,"path":"translation"}},{"sampler":3,"target":{"node":12,"path":"scale"}},{"sampler":4,"target":{"node":2,"path":"translation"}},{"sampler":5,"target":{"node":2,"path":"scale"}},{"sampler":6,"target":{"node":7,"path":"translation"}},{"sampler":7,"target":{"node":7,"path":"scale"}}]}]}