{"asset":{"version":"2.0","generator":"Blockbench 5.0.5 glTF exporter"},"scenes":[{"nodes":[1],"name":"blockbench_export"}],"scene":0,"nodes":[{"name":"cube","mesh":0},{"translation":[0,0.9375,0],"name":"h_body","children":[0]}],"bufferViews":[{"buffer":0,"byteOffset":0,"byteLength":288,"target":34962,"byteStride":12},{"buffer":0,"byteOffset":288,"byteLength":288,"target":34962,"byteStride":12},{"buffer":0,"byteOffset":576,"byteLength":192,"target":34962,"byteStride":8},{"buffer":0,"byteOffset":768,"byteLength":72,"target":34963},{"buffer":0,"byteOffset":840,"byteLength":8},{"buffer":0,"byteOffset":848,"byteLength":32},{"buffer":0,"byteOffset":880,"byteLength":8},{"buffer":0,"byteOffset":888,"byteLength":24},{"buffer":0,"byteOffset":912,"byteLength":8},{"buffer":0,"byteOffset":920,"byteLength":32},{"buffer":0,"byteOffset":952,"byteLength":4},{"buffer":0,"byteOffset":956,"byteLength":12},{"buffer":0,"byteOffset":968,"byteLength":8},{"buffer":0,"byteOffset":976,"byteLength":24}],"buffers":[{"byteLength":1000,"uri":"data:application/octet-stream;base64,"}],"accessors":[{"bufferView":0,"componentType":5126,"count":24,"max":[2.21875,2.21875,0.0000625000029685907],"min":[-2.21875,-2.21875,0],"type":"VEC3"},{"bufferView":1,"componentType":5126,"count":24,"max":[1,1,1],"min":[-1,-1,-1],"type":"VEC3"},{"bufferView":2,"componentType":5126,"count":24,"max":[1,1],"min":[0,0],"type":"VEC2"},{"bufferView":3,"componentType":5123,"count":36,"max":[23],"min":[0],"type":"SCALAR"},{"bufferView":4,"componentType":5126,"count":2,"max":[0.2916666567325592],"min":[0],"type":"SCALAR"},{"bufferView":5,"componentType":5126,"count":2,"max":[0,0,0.8191520571708679,1],"min":[0,0,0,0.5735764503479004],"type":"VEC4"},{"bufferView":6,"componentType":5126,"count":2,"max":[0.2916666567325592],"min":[0],"type":"SCALAR"},{"bufferView":7,"componentType":5126,"count":2,"max":[0.8999999761581421,0.8999999761581421,1],"min":[0.30000001192092896,0.30000001192092896,0.30000001192092896],"type":"VEC3"},{"bufferView":8,"componentType":5126,"count":2,"max":[0.5],"min":[0],"type":"SCALAR"},{"bufferView":9,"componentType":5126,"count":2,"max":[0.7071067690849304,0.3535533845424652,0,0.7071067690849304],"min":[0.6123724579811096,0,-0.3535533845424652,0.6123724579811096],"type":"VEC4"},{"bufferView":10,"componentType":5126,"count":1,"max":[0],"min":[0],"type":"SCALAR"},{"bufferView":11,"componentType":5126,"count":1,"max":[0,0.012500000186264515,0],"min":[0,0.012500000186264515,0],"type":"VEC3"},{"bufferView":12,"componentType":5126,"count":2,"max":[0.5],"min":[0],"type":"SCALAR"},{"bufferView":13,"componentType":5126,"count":2,"max":[1.399999976158142,1.399999976158142,1],"min":[0.800000011920929,0.800000011920929,0.800000011920929],"type":"VEC3"}],"materials":[{"pbrMetallicRoughness":{"metallicFactor":0,"roughnessFactor":1,"baseColorTexture":{"index":0}},"alphaMode":"MASK","alphaCutoff":0.05,"doubleSided":true}],"textures":[{"sampler":0,"source":0,"name":"monk_impact_1.png"}],"samplers":[{"magFilter":9728,"minFilter":9728,"wrapS":33071,"wrapT":33071}],"images":[{"mimeType":"image/png","uri":"data:image/png;base64,"}],"meshes":[{"primitives":[{"mode":4,"attributes":{"POSITION":0,"NORMAL":1,"TEXCOORD_0":2},"indices":3,"material":0}]}],"animations":[{"name":"skill","samplers":[{"input":4,"output":5,"interpolation":"LINEAR"},{"input":6,"output":7,"interpolation":"LINEAR"}],"channels":[{"sampler":0,"target":{"node":1,"path":"rotation"}},{"sampler":1,"target":{"node":1,"path":"scale"}}]},{"name":"skill2","samplers":[{"input":8,"output":9,"interpolation":"LINEAR"},{"input":10,"output":11,"interpolation":"LINEAR"},{"input":12,"output":13,"interpolation":"LINEAR"}],"channels":[{"sampler":0,"target":{"node":1,"path":"rotation"}},{"sampler":1,"target":{"node":1,"path":"translation"}},{"sampler":2,"target":{"node":1,"path":"scale"}}]}]}