{"asset":{"version":"2.0","generator":"Blockbench 5.0.5 glTF exporter"},"scenes":[{"nodes":[8],"name":"blockbench_export"}],"scene":0,"nodes":[{"translation":[0,-0.0007812500000000007,0.6875],"name":"cube","mesh":0},{"translation":[0,0.018750000000000003,-0.6875],"name":"bone2","children":[0]},{"translation":[0.6875,0.0007812500000000007,0],"name":"cube","mesh":1},{"translation":[-0.6875,0.0171875,0],"name":"bone3","children":[2]},{"translation":[-0.6875,0.0007812500000000007,0],"name":"cube","mesh":2},{"translation":[0.6875,0.0171875,0],"name":"bone4","children":[4]},{"translation":[0,-0.0007812500000000007,-0.6875],"name":"cube","mesh":3},{"translation":[0,0.018750000000000003,0.6875],"name":"bone5","children":[6]},{"name":"bone","children":[1,3,5,7]}],"bufferViews":[{"buffer":0,"byteOffset":0,"byteLength":288,"target":34962,"byteStride":12},{"buffer":0,"byteOffset":288,"byteLength":288,"target":34962,"byteStride":12},{"buffer":0,"byteOffset":576,"byteLength":192,"target":34962,"byteStride":8},{"buffer":0,"byteOffset":768,"byteLength":72,"target":34963},{"buffer":0,"byteOffset":840,"byteLength":288,"target":34962,"byteStride":12},{"buffer":0,"byteOffset":1128,"byteLength":288,"target":34962,"byteStride":12},{"buffer":0,"byteOffset":1416,"byteLength":192,"target":34962,"byteStride":8},{"buffer":0,"byteOffset":1608,"byteLength":72,"target":34963},{"buffer":0,"byteOffset":1680,"byteLength":288,"target":34962,"byteStride":12},{"buffer":0,"byteOffset":1968,"byteLength":288,"target":34962,"byteStride":12},{"buffer":0,"byteOffset":2256,"byteLength":192,"target":34962,"byteStride":8},{"buffer":0,"byteOffset":2448,"byteLength":72,"target":34963},{"buffer":0,"byteOffset":2520,"byteLength":288,"target":34962,"byteStride":12},{"buffer":0,"byteOffset":2808,"byteLength":288,"target":34962,"byteStride":12},{"buffer":0,"byteOffset":3096,"byteLength":192,"target":34962,"byteStride":8},{"buffer":0,"byteOffset":3288,"byteLength":72,"target":34963},{"buffer":0,"byteOffset":3360,"byteLength":8},{"buffer":0,"byteOffset":3368,"byteLength":24},{"buffer":0,"byteOffset":3392,"byteLength":8},{"buffer":0,"byteOffset":3400,"byteLength":24},{"buffer":0,"byteOffset":3424,"byteLength":8},{"buffer":0,"byteOffset":3432,"byteLength":24},{"buffer":0,"byteOffset":3456,"byteLength":8},{"buffer":0,"byteOffset":3464,"byteLength":24},{"buffer":0,"byteOffset":3488,"byteLength":20},{"buffer":0,"byteOffset":3508,"byteLength":60},{"buffer":0,"byteOffset":3568,"byteLength":8},{"buffer":0,"byteOffset":3576,"byteLength":24},{"buffer":0,"byteOffset":3600,"byteLength":20},{"buffer":0,"byteOffset":3620,"byteLength":60},{"buffer":0,"byteOffset":3680,"byteLength":8},{"buffer":0,"byteOffset":3688,"byteLength":24},{"buffer":0,"byteOffset":3712,"byteLength":8},{"buffer":0,"byteOffset":3720,"byteLength":24},{"buffer":0,"byteOffset":3744,"byteLength":8},{"buffer":0,"byteOffset":3752,"byteLength":24},{"buffer":0,"byteOffset":3776,"byteLength":8},{"buffer":0,"byteOffset":3784,"byteLength":24},{"buffer":0,"byteOffset":3808,"byteLength":8},{"buffer":0,"byteOffset":3816,"byteLength":24},{"buffer":0,"byteOffset":3840,"byteLength":8},{"buffer":0,"byteOffset":3848,"byteLength":24},{"buffer":0,"byteOffset":3872,"byteLength":20},{"buffer":0,"byteOffset":3892,"byteLength":60},{"buffer":0,"byteOffset":3952,"byteLength":8},{"buffer":0,"byteOffset":3960,"byteLength":24},{"buffer":0,"byteOffset":3984,"byteLength":20},{"buffer":0,"byteOffset":4004,"byteLength":60},{"buffer":0,"byteOffset":4064,"byteLength":8},{"buffer":0,"byteOffset":4072,"byteLength":24},{"buffer":0,"byteOffset":4096,"byteLength":8},{"buffer":0,"byteOffset":4104,"byteLength":24}],"buffers":[{"byteLength":4128,"uri":"data:application/octet-stream;base64,"}],"accessors":[{"bufferView":0,"componentType":5126,"count":24,"max":[0.8125,0.0008437500218860805,-0.5625],"min":[-0.8125,0.0007812500116415322,-0.8125],"type":"VEC3"},{"bufferView":1,"componentType":5126,"count":24,"max":[1,1,1],"min":[-1,-1,-1],"type":"VEC3"},{"bufferView":2,"componentType":5126,"count":24,"max":[0.4140625,0.4140625],"min":[0,0],"type":"VEC2"},{"bufferView":3,"componentType":5123,"count":36,"max":[23],"min":[0],"type":"SCALAR"},{"bufferView":4,"componentType":5126,"count":24,"max":[-0.5625,-0.0007187500013969839,0.8125],"min":[-0.8125,-0.0007812500116415322,-0.8125],"type":"VEC3"},{"bufferView":5,"componentType":5126,"count":24,"max":[1,1,1],"min":[-1,-1,-1],"type":"VEC3"},{"bufferView":6,"componentType":5126,"count":24,"max":[0.4140625,0.4140625],"min":[0,0],"type":"VEC2"},{"bufferView":7,"componentType":5123,"count":36,"max":[23],"min":[0],"type":"SCALAR"},{"bufferView":8,"componentType":5126,"count":24,"max":[0.8125,-0.0007187500013969839,0.8125],"min":[0.5625,-0.0007812500116415322,-0.8125],"type":"VEC3"},{"bufferView":9,"componentType":5126,"count":24,"max":[1,1,1],"min":[-1,-1,-1],"type":"VEC3"},{"bufferView":10,"componentType":5126,"count":24,"max":[0.4140625,0.4140625],"min":[0,0],"type":"VEC2"},{"bufferView":11,"componentType":5123,"count":36,"max":[23],"min":[0],"type":"SCALAR"},{"bufferView":12,"componentType":5126,"count":24,"max":[0.8125,0.0008437500218860805,0.8125],"min":[-0.8125,0.0007812500116415322,0.5625],"type":"VEC3"},{"bufferView":13,"componentType":5126,"count":24,"max":[1,1,1],"min":[-1,-1,-1],"type":"VEC3"},{"bufferView":14,"componentType":5126,"count":24,"max":[0.4140625,0.4140625],"min":[0,0],"type":"VEC2"},{"bufferView":15,"componentType":5123,"count":36,"max":[23],"min":[0],"type":"SCALAR"},{"bufferView":16,"componentType":5126,"count":2,"max":[0.4583333432674408],"min":[0],"type":"SCALAR"},{"bufferView":17,"componentType":5126,"count":2,"max":[5,1,5],"min":[0.10000000149011612,1,0.10000000149011612],"type":"VEC3"},{"bufferView":18,"componentType":5126,"count":2,"max":[0.4583333432674408],"min":[0],"type":"SCALAR"},{"bufferView":19,"componentType":5126,"count":2,"max":[0,0.01875000074505806,-0.6875],"min":[0,0.01875000074505806,-0.8125],"type":"VEC3"},{"bufferView":20,"componentType":5126,"count":2,"max":[0.4583333432674408],"min":[0],"type":"SCALAR"},{"bufferView":21,"componentType":5126,"count":2,"max":[1,1,2.5],"min":[1,1,0],"type":"VEC3"},{"bufferView":22,"componentType":5126,"count":2,"max":[0.4583333432674408],"min":[0],"type":"SCALAR"},{"bufferView":23,"componentType":5126,"count":2,"max":[-0.6875,0.01718750037252903,0],"min":[-0.8125,0.01718750037252903,0],"type":"VEC3"},{"bufferView":24,"componentType":5126,"count":5,"max":[0.4583333432674408],"min":[0],"type":"SCALAR"},{"bufferView":25,"componentType":5126,"count":5,"max":[2.5,1,1.2031999826431274],"min":[0,1,1],"type":"VEC3"},{"bufferView":26,"componentType":5126,"count":2,"max":[0.4583333432674408],"min":[0],"type":"SCALAR"},{"bufferView":27,"componentType":5126,"count":2,"max":[0.8125,0.01718750037252903,0],"min":[0.6875,0.01718750037252903,0],"type":"VEC3"},{"bufferView":28,"componentType":5126,"count":5,"max":[0.4583333432674408],"min":[0],"type":"SCALAR"},{"bufferView":29,"componentType":5126,"count":5,"max":[2.5,1,1.2031999826431274],"min":[0,1,1],"type":"VEC3"},{"bufferView":30,"componentType":5126,"count":2,"max":[0.4583333432674408],"min":[0],"type":"SCALAR"},{"bufferView":31,"componentType":5126,"count":2,"max":[0,0.01875000074505806,0.8125],"min":[0,0.01875000074505806,0.6875],"type":"VEC3"},{"bufferView":32,"componentType":5126,"count":2,"max":[0.4583333432674408],"min":[0],"type":"SCALAR"},{"bufferView":33,"componentType":5126,"count":2,"max":[1,1,2.5],"min":[1,1,0],"type":"VEC3"},{"bufferView":34,"componentType":5126,"count":2,"max":[0.7083333134651184],"min":[0],"type":"SCALAR"},{"bufferView":35,"componentType":5126,"count":2,"max":[10,1,10],"min":[0.10000000149011612,1,0.10000000149011612],"type":"VEC3"},{"bufferView":36,"componentType":5126,"count":2,"max":[0.7083333134651184],"min":[0],"type":"SCALAR"},{"bufferView":37,"componentType":5126,"count":2,"max":[0,0.01875000074505806,-0.6875],"min":[0,0.01875000074505806,-0.8125],"type":"VEC3"},{"bufferView":38,"componentType":5126,"count":2,"max":[0.7083333134651184],"min":[0],"type":"SCALAR"},{"bufferView":39,"componentType":5126,"count":2,"max":[1,1,2.5],"min":[1,1,0],"type":"VEC3"},{"bufferView":40,"componentType":5126,"count":2,"max":[0.7083333134651184],"min":[0],"type":"SCALAR"},{"bufferView":41,"componentType":5126,"count":2,"max":[-0.6875,0.01718750037252903,0],"min":[-0.8125,0.01718750037252903,0],"type":"VEC3"},{"bufferView":42,"componentType":5126,"count":5,"max":[0.7083333134651184],"min":[0],"type":"SCALAR"},{"bufferView":43,"componentType":5126,"count":5,"max":[2.5,1,1.2031999826431274],"min":[0,1,1],"type":"VEC3"},{"bufferView":44,"componentType":5126,"count":2,"max":[0.7083333134651184],"min":[0],"type":"SCALAR"},{"bufferView":45,"componentType":5126,"count":2,"max":[0.8125,0.01718750037252903,0],"min":[0.6875,0.01718750037252903,0],"type":"VEC3"},{"bufferView":46,"componentType":5126,"count":5,"max":[0.7083333134651184],"min":[0],"type":"SCALAR"},{"bufferView":47,"componentType":5126,"count":5,"max":[2.5,1,1.2031999826431274],"min":[0,1,1],"type":"VEC3"},{"bufferView":48,"componentType":5126,"count":2,"max":[0.7083333134651184],"min":[0],"type":"SCALAR"},{"bufferView":49,"componentType":5126,"count":2,"max":[0,0.01875000074505806,0.8125],"min":[0,0.01875000074505806,0.6875],"type":"VEC3"},{"bufferView":50,"componentType":5126,"count":2,"max":[0.7083333134651184],"min":[0],"type":"SCALAR"},{"bufferView":51,"componentType":5126,"count":2,"max":[1,1,2.5],"min":[1,1,0],"type":"VEC3"}],"materials":[{"pbrMetallicRoughness":{"metallicFactor":0,"roughnessFactor":1,"baseColorTexture":{"index":0}},"alphaMode":"MASK","alphaCutoff":0.05,"doubleSided":true}],"textures":[{"sampler":0,"source":0,"name":"monk_heal_aura"}],"samplers":[{"magFilter":9728,"minFilter":9728,"wrapS":33071,"wrapT":33071}],"images":[{"mimeType":"image/png","uri":"data:image/png;base64,"}],"meshes":[{"primitives":[{"mode":4,"attributes":{"POSITION":0,"NORMAL":1,"TEXCOORD_0":2},"indices":3,"material":0}]},{"primitives":[{"mode":4,"attributes":{"POSITION":4,"NORMAL":5,"TEXCOORD_0":6},"indices":7,"material":0}]},{"primitives":[{"mode":4,"attributes":{"POSITION":8,"NORMAL":9,"TEXCOORD_0":10},"indices":11,"material":0}]},{"primitives":[{"mode":4,"attributes":{"POSITION":12,"NORMAL":13,"TEXCOORD_0":14},"indices":15,"material":0}]}],"animations":[{"name":"skill","samplers":[{"input":16,"output":17,"interpolation":"LINEAR"},{"input":18,"output":19,"interpolation":"LINEAR"},{"input":20,"output":21,"interpolation":"LINEAR"},{"input":22,"output":23,"interpolation":"LINEAR"},{"input":24,"output":25,"interpolation":"LINEAR"},{"input":26,"output":27,"interpolation":"LINEAR"},{"input":28,"output":29,"interpolation":"LINEAR"},{"input":30,"output":31,"interpolation":"LINEAR"},{"input":32,"output":33,"interpolation":"LINEAR"}],"channels":[{"sampler":0,"target":{"node":8,"path":"scale"}},{"sampler":1,"target":{"node":1,"path":"translation"}},{"sampler":2,"target":{"node":1,"path":"scale"}},{"sampler":3,"target":{"node":3,"path":"translation"}},{"sampler":4,"target":{"node":3,"path":"scale"}},{"sampler":5,"target":{"node":5,"path":"translation"}},{"sampler":6,"target":{"node":5,"path":"scale"}},{"sampler":7,"target":{"node":7,"path":"translation"}},{"sampler":8,"target":{"node":7,"path":"scale"}}]},{"name":"skill2","samplers":[{"input":34,"output":35,"interpolation":"LINEAR"},{"input":36,"output":37,"interpolation":"LINEAR"},{"input":38,"output":39,"interpolation":"LINEAR"},{"input":40,"output":41,"interpolation":"LINEAR"},{"input":42,"output":43,"interpolation":"LINEAR"},{"input":44,"output":45,"interpolation":"LINEAR"},{"input":46,"output":47,"interpolation":"LINEAR"},{"input":48,"output":49,"interpolation":"LINEAR"},{"input":50,"output":51,"interpolation":"LINEAR"}],"channels":[{"sampler":0,"target":{"node":8,"path":"scale"}},{"sampler":1,"target":{"node":1,"path":"translation"}},{"sampler":2,"target":{"node":1,"path":"scale"}},{"sampler":3,"target":{"node":3,"path":"translation"}},{"sampler":4,"target":{"node":3,"path":"scale"}},{"sampler":5,"target":{"node":5,"path":"translation"}},{"sampler":6,"target":{"node":5,"path":"scale"}},{"sampler":7,"target":{"node":7,"path":"translation"}},{"sampler":8,"target":{"node":7,"path":"scale"}}]}]}