{"asset":{"version":"2.0","generator":"Blockbench 5.0.5 glTF exporter"},"scenes":[{"nodes":[15],"name":"blockbench_export"}],"scene":0,"nodes":[{"name":"cube","mesh":0},{"name":"cube_outline","mesh":1},{"translation":[0,-0.0625,1.5],"name":"h_front_bead","children":[0,1]},{"name":"cube","mesh":2},{"name":"cube_outline","mesh":3},{"translation":[-0.8125,-0.0625,-1],"name":"h_right_back_bead","children":[3,4]},{"name":"cube","mesh":4},{"name":"cube_outline","mesh":5},{"translation":[0.8125,-0.0625,-1],"name":"h_left_back_bead","children":[6,7]},{"name":"cube","mesh":6},{"name":"cube_outline","mesh":7},{"translation":[1.25,-0.0625,0.4375],"name":"h_left_bead","children":[9,10]},{"name":"cube","mesh":8},{"name":"cube_outline","mesh":9},{"translation":[-1.25,-0.0625,0.4375],"name":"h_right_bead","children":[12,13]},{"translation":[0,1.0625,0],"name":"h_bone","children":[2,5,8,11,14]}],"bufferViews":[{"buffer":0,"byteOffset":0,"byteLength":288,"target":34962,"byteStride":12},{"buffer":0,"byteOffset":288,"byteLength":288,"target":34962,"byteStride":12},{"buffer":0,"byteOffset":576,"byteLength":192,"target":34962,"byteStride":8},{"buffer":0,"byteOffset":768,"byteLength":72,"target":34963},{"buffer":0,"byteOffset":840,"byteLength":288,"target":34962,"byteStride":12},{"buffer":0,"byteOffset":1128,"byteLength":288,"target":34962,"byteStride":12},{"buffer":0,"byteOffset":1416,"byteLength":192,"target":34962,"byteStride":8},{"buffer":0,"byteOffset":1608,"byteLength":72,"target":34963},{"buffer":0,"byteOffset":1680,"byteLength":288,"target":34962,"byteStride":12},{"buffer":0,"byteOffset":1968,"byteLength":288,"target":34962,"byteStride":12},{"buffer":0,"byteOffset":2256,"byteLength":192,"target":34962,"byteStride":8},{"buffer":0,"byteOffset":2448,"byteLength":72,"target":34963},{"buffer":0,"byteOffset":2520,"byteLength":288,"target":34962,"byteStride":12},{"buffer":0,"byteOffset":2808,"byteLength":288,"target":34962,"byteStride":12},{"buffer":0,"byteOffset":3096,"byteLength":192,"target":34962,"byteStride":8},{"buffer":0,"byteOffset":3288,"byteLength":72,"target":34963},{"buffer":0,"byteOffset":3360,"byteLength":288,"target":34962,"byteStride":12},{"buffer":0,"byteOffset":3648,"byteLength":288,"target":34962,"byteStride":12},{"buffer":0,"byteOffset":3936,"byteLength":192,"target":34962,"byteStride":8},{"buffer":0,"byteOffset":4128,"byteLength":72,"target":34963},{"buffer":0,"byteOffset":4200,"byteLength":288,"target":34962,"byteStride":12},{"buffer":0,"byteOffset":4488,"byteLength":288,"target":34962,"byteStride":12},{"buffer":0,"byteOffset":4776,"byteLength":192,"target":34962,"byteStride":8},{"buffer":0,"byteOffset":4968,"byteLength":72,"target":34963},{"buffer":0,"byteOffset":5040,"byteLength":288,"target":34962,"byteStride":12},{"buffer":0,"byteOffset":5328,"byteLength":288,"target":34962,"byteStride":12},{"buffer":0,"byteOffset":5616,"byteLength":192,"target":34962,"byteStride":8},{"buffer":0,"byteOffset":5808,"byteLength":72,"target":34963},{"buffer":0,"byteOffset":5880,"byteLength":288,"target":34962,"byteStride":12},{"buffer":0,"byteOffset":6168,"byteLength":288,"target":34962,"byteStride":12},{"buffer":0,"byteOffset":6456,"byteLength":192,"target":34962,"byteStride":8},{"buffer":0,"byteOffset":6648,"byteLength":72,"target":34963},{"buffer":0,"byteOffset":6720,"byteLength":288,"target":34962,"byteStride":12},{"buffer":0,"byteOffset":7008,"byteLength":288,"target":34962,"byteStride":12},{"buffer":0,"byteOffset":7296,"byteLength":192,"target":34962,"byteStride":8},{"buffer":0,"byteOffset":7488,"byteLength":72,"target":34963},{"buffer":0,"byteOffset":7560,"byteLength":288,"target":34962,"byteStride":12},{"buffer":0,"byteOffset":7848,"byteLength":288,"target":34962,"byteStride":12},{"buffer":0,"byteOffset":8136,"byteLength":192,"target":34962,"byteStride":8},{"buffer":0,"byteOffset":8328,"byteLength":72,"target":34963},{"buffer":0,"byteOffset":8400,"byteLength":20},{"buffer":0,"byteOffset":8420,"byteLength":80},{"buffer":0,"byteOffset":8500,"byteLength":156},{"buffer":0,"byteOffset":8656,"byteLength":468},{"buffer":0,"byteOffset":9124,"byteLength":300},{"buffer":0,"byteOffset":9424,"byteLength":1200},{"buffer":0,"byteOffset":10624,"byteLength":296},{"buffer":0,"byteOffset":10920,"byteLength":1184},{"buffer":0,"byteOffset":12104,"byteLength":296},{"buffer":0,"byteOffset":12400,"byteLength":888},{"buffer":0,"byteOffset":13288,"byteLength":8},{"buffer":0,"byteOffset":13296,"byteLength":24},{"buffer":0,"byteOffset":13320,"byteLength":296},{"buffer":0,"byteOffset":13616,"byteLength":1184},{"buffer":0,"byteOffset":14800,"byteLength":296},{"buffer":0,"byteOffset":15096,"byteLength":888},{"buffer":0,"byteOffset":15984,"byteLength":8},{"buffer":0,"byteOffset":15992,"byteLength":24},{"buffer":0,"byteOffset":16016,"byteLength":296},{"buffer":0,"byteOffset":16312,"byteLength":1184},{"buffer":0,"byteOffset":17496,"byteLength":296},{"buffer":0,"byteOffset":17792,"byteLength":888},{"buffer":0,"byteOffset":18680,"byteLength":8},{"buffer":0,"byteOffset":18688,"byteLength":24},{"buffer":0,"byteOffset":18712,"byteLength":296},{"buffer":0,"byteOffset":19008,"byteLength":1184},{"buffer":0,"byteOffset":20192,"byteLength":296},{"buffer":0,"byteOffset":20488,"byteLength":888},{"buffer":0,"byteOffset":21376,"byteLength":8},{"buffer":0,"byteOffset":21384,"byteLength":24},{"buffer":0,"byteOffset":21408,"byteLength":296},{"buffer":0,"byteOffset":21704,"byteLength":1184},{"buffer":0,"byteOffset":22888,"byteLength":296},{"buffer":0,"byteOffset":23184,"byteLength":888},{"buffer":0,"byteOffset":24072,"byteLength":8},{"buffer":0,"byteOffset":24080,"byteLength":24}],"buffers":[{"byteLength":24104,"uri":"data:application/octet-stream;base64,"}],"accessors":[{"bufferView":0,"componentType":5126,"count":24,"max":[0.15625,0.15625,0.15625],"min":[-0.15625,-0.15625,-0.15625],"type":"VEC3"},{"bufferView":1,"componentType":5126,"count":24,"max":[1,1,1],"min":[-1,-1,-1],"type":"VEC3"},{"bufferView":2,"componentType":5126,"count":24,"max":[0.5625,0.5625],"min":[0,0.078125],"type":"VEC2"},{"bufferView":3,"componentType":5123,"count":36,"max":[23],"min":[0],"type":"SCALAR"},{"bufferView":4,"componentType":5126,"count":24,"max":[0.23749999701976776,0.23749999701976776,0.23749999701976776],"min":[-0.23749999701976776,-0.23749999701976776,-0.23749999701976776],"type":"VEC3"},{"bufferView":5,"componentType":5126,"count":24,"max":[1,1,1],"min":[-1,-1,-1],"type":"VEC3"},{"bufferView":6,"componentType":5126,"count":24,"max":[0.40625,0.40625],"min":[0,0],"type":"VEC2"},{"bufferView":7,"componentType":5123,"count":36,"max":[23],"min":[0],"type":"SCALAR"},{"bufferView":8,"componentType":5126,"count":24,"max":[0.15625,0.15625,0.15625],"min":[-0.15625,-0.15625,-0.15625],"type":"VEC3"},{"bufferView":9,"componentType":5126,"count":24,"max":[1,1,1],"min":[-1,-1,-1],"type":"VEC3"},{"bufferView":10,"componentType":5126,"count":24,"max":[0.5625,0.5625],"min":[0,0.078125],"type":"VEC2"},{"bufferView":11,"componentType":5123,"count":36,"max":[23],"min":[0],"type":"SCALAR"},{"bufferView":12,"componentType":5126,"count":24,"max":[0.23749999701976776,0.23749999701976776,0.23749999701976776],"min":[-0.23749999701976776,-0.23749999701976776,-0.23749999701976776],"type":"VEC3"},{"bufferView":13,"componentType":5126,"count":24,"max":[1,1,1],"min":[-1,-1,-1],"type":"VEC3"},{"bufferView":14,"componentType":5126,"count":24,"max":[0.40625,0.40625],"min":[0,0],"type":"VEC2"},{"bufferView":15,"componentType":5123,"count":36,"max":[23],"min":[0],"type":"SCALAR"},{"bufferView":16,"componentType":5126,"count":24,"max":[0.15625,0.15625,0.15625],"min":[-0.15625,-0.15625,-0.15625],"type":"VEC3"},{"bufferView":17,"componentType":5126,"count":24,"max":[1,1,1],"min":[-1,-1,-1],"type":"VEC3"},{"bufferView":18,"componentType":5126,"count":24,"max":[0.5625,0.5625],"min":[0,0.078125],"type":"VEC2"},{"bufferView":19,"componentType":5123,"count":36,"max":[23],"min":[0],"type":"SCALAR"},{"bufferView":20,"componentType":5126,"count":24,"max":[0.23749999701976776,0.23749999701976776,0.23749999701976776],"min":[-0.23749999701976776,-0.23749999701976776,-0.23749999701976776],"type":"VEC3"},{"bufferView":21,"componentType":5126,"count":24,"max":[1,1,1],"min":[-1,-1,-1],"type":"VEC3"},{"bufferView":22,"componentType":5126,"count":24,"max":[0.40625,0.40625],"min":[0,0],"type":"VEC2"},{"bufferView":23,"componentType":5123,"count":36,"max":[23],"min":[0],"type":"SCALAR"},{"bufferView":24,"componentType":5126,"count":24,"max":[0.15625,0.15625,0.15625],"min":[-0.15625,-0.15625,-0.15625],"type":"VEC3"},{"bufferView":25,"componentType":5126,"count":24,"max":[1,1,1],"min":[-1,-1,-1],"type":"VEC3"},{"bufferView":26,"componentType":5126,"count":24,"max":[0.5625,0.5625],"min":[0,0.078125],"type":"VEC2"},{"bufferView":27,"componentType":5123,"count":36,"max":[23],"min":[0],"type":"SCALAR"},{"bufferView":28,"componentType":5126,"count":24,"max":[0.23749999701976776,0.23749999701976776,0.23749999701976776],"min":[-0.23749999701976776,-0.23749999701976776,-0.23749999701976776],"type":"VEC3"},{"bufferView":29,"componentType":5126,"count":24,"max":[1,1,1],"min":[-1,-1,-1],"type":"VEC3"},{"bufferView":30,"componentType":5126,"count":24,"max":[0.40625,0.40625],"min":[0,0],"type":"VEC2"},{"bufferView":31,"componentType":5123,"count":36,"max":[23],"min":[0],"type":"SCALAR"},{"bufferView":32,"componentType":5126,"count":24,"max":[0.15625,0.15625,0.15625],"min":[-0.15625,-0.15625,-0.15625],"type":"VEC3"},{"bufferView":33,"componentType":5126,"count":24,"max":[1,1,1],"min":[-1,-1,-1],"type":"VEC3"},{"bufferView":34,"componentType":5126,"count":24,"max":[0.5625,0.5625],"min":[0,0.078125],"type":"VEC2"},{"bufferView":35,"componentType":5123,"count":36,"max":[23],"min":[0],"type":"SCALAR"},{"bufferView":36,"componentType":5126,"count":24,"max":[0.23749999701976776,0.23749999701976776,0.23749999701976776],"min":[-0.23749999701976776,-0.23749999701976776,-0.23749999701976776],"type":"VEC3"},{"bufferView":37,"componentType":5126,"count":24,"max":[1,1,1],"min":[-1,-1,-1],"type":"VEC3"},{"bufferView":38,"componentType":5126,"count":24,"max":[0.40625,0.40625],"min":[0,0],"type":"VEC2"},{"bufferView":39,"componentType":5123,"count":36,"max":[23],"min":[0],"type":"SCALAR"},{"bufferView":40,"componentType":5126,"count":5,"max":[2],"min":[0],"type":"SCALAR"},{"bufferView":41,"componentType":5126,"count":5,"max":[0,0,0,1],"min":[0,-1,0,-1],"type":"VEC4"},{"bufferView":42,"componentType":5126,"count":39,"max":[2],"min":[0],"type":"SCALAR"},{"bufferView":43,"componentType":5126,"count":39,"max":[0,1.1875,0],"min":[0,0.9375,0],"type":"VEC3"},{"bufferView":44,"componentType":5126,"count":75,"max":[4.458333492279053],"min":[0],"type":"SCALAR"},{"bufferView":45,"componentType":5126,"count":75,"max":[0,0.9999623894691467,0,1],"min":[0,-0.9999776482582092,0,-0.9996834993362427],"type":"VEC4"},{"bufferView":46,"componentType":5126,"count":74,"max":[4.458333492279053],"min":[0],"type":"SCALAR"},{"bufferView":47,"componentType":5126,"count":74,"max":[0.7924518585205078,0.6961109638214111,0.8909467458724976,1],"min":[-0.7517208456993103,-0.9045107960700989,-0.6896326541900635,-0.5710145235061646],"type":"VEC4"},{"bufferView":48,"componentType":5126,"count":74,"max":[4.458333492279053],"min":[0],"type":"SCALAR"},{"bufferView":49,"componentType":5126,"count":74,"max":[0.08623220771551132,-0.0625,6.730772018432617],"min":[-1.3358803987503052,-0.0625,0.7977698445320129],"type":"VEC3"},{"bufferView":50,"componentType":5126,"count":2,"max":[4.458333492279053],"min":[0],"type":"SCALAR"},{"bufferView":51,"componentType":5126,"count":2,"max":[1,1,1],"min":[1,1,1],"type":"VEC3"},{"bufferView":52,"componentType":5126,"count":74,"max":[4.458333492279053],"min":[0],"type":"SCALAR"},{"bufferView":53,"componentType":5126,"count":74,"max":[0.7924518585205078,0.9045107960700989,0.6896326541900635,1],"min":[-0.7517208456993103,-0.6961109638214111,-0.8909467458724976,-0.5710145235061646],"type":"VEC4"},{"bufferView":54,"componentType":5126,"count":74,"max":[4.458333492279053],"min":[0],"type":"SCALAR"},{"bufferView":55,"componentType":5126,"count":74,"max":[-0.5011948943138123,-0.0625,-0.25437241792678833],"min":[-3.2149667739868164,-0.0625,-6.094134330749512],"type":"VEC3"},{"bufferView":56,"componentType":5126,"count":2,"max":[4.458333492279053],"min":[0],"type":"SCALAR"},{"bufferView":57,"componentType":5126,"count":2,"max":[1,1,1],"min":[1,1,1],"type":"VEC3"},{"bufferView":58,"componentType":5126,"count":74,"max":[4.458333492279053],"min":[0],"type":"SCALAR"},{"bufferView":59,"componentType":5126,"count":74,"max":[0.7924518585205078,0.6961109638214111,0.8909467458724976,1],"min":[-0.7517208456993103,-0.9045107960700989,-0.6896326541900635,-0.5710145235061646],"type":"VEC4"},{"bufferView":60,"componentType":5126,"count":74,"max":[4.458333492279053],"min":[0],"type":"SCALAR"},{"bufferView":61,"componentType":5126,"count":74,"max":[4.37543249130249,-0.0625,-0.3467881977558136],"min":[0.42874979972839355,-0.0625,-4.651947021484375],"type":"VEC3"},{"bufferView":62,"componentType":5126,"count":2,"max":[4.458333492279053],"min":[0],"type":"SCALAR"},{"bufferView":63,"componentType":5126,"count":2,"max":[1,1,1],"min":[1,1,1],"type":"VEC3"},{"bufferView":64,"componentType":5126,"count":74,"max":[4.458333492279053],"min":[0],"type":"SCALAR"},{"bufferView":65,"componentType":5126,"count":74,"max":[0.7924518585205078,0.6961109638214111,0.8909467458724976,1],"min":[-0.7517208456993103,-0.9045107960700989,-0.6896326541900635,-0.5710145235061646],"type":"VEC4"},{"bufferView":66,"componentType":5126,"count":74,"max":[4.458333492279053],"min":[0],"type":"SCALAR"},{"bufferView":67,"componentType":5126,"count":74,"max":[5.844005107879639,-0.0625,2.19921875],"min":[0.6409732699394226,-0.0625,0.27185142040252686],"type":"VEC3"},{"bufferView":68,"componentType":5126,"count":2,"max":[4.458333492279053],"min":[0],"type":"SCALAR"},{"bufferView":69,"componentType":5126,"count":2,"max":[1,1,1],"min":[1,1,1],"type":"VEC3"},{"bufferView":70,"componentType":5126,"count":74,"max":[4.458333492279053],"min":[0],"type":"SCALAR"},{"bufferView":71,"componentType":5126,"count":74,"max":[0.7924518585205078,0.9045107960700989,0.6896326541900635,1],"min":[-0.7517208456993103,-0.6961109638214111,-0.8909467458724976,-0.5710145235061646],"type":"VEC4"},{"bufferView":72,"componentType":5126,"count":74,"max":[4.458333492279053],"min":[0],"type":"SCALAR"},{"bufferView":73,"componentType":5126,"count":74,"max":[-0.5866394639015198,-0.0625,0.4375],"min":[-6.687718868255615,-0.0625,0.30047595500946045],"type":"VEC3"},{"bufferView":74,"componentType":5126,"count":2,"max":[4.458333492279053],"min":[0],"type":"SCALAR"},{"bufferView":75,"componentType":5126,"count":2,"max":[1,1,1],"min":[1,1,1],"type":"VEC3"}],"materials":[{"pbrMetallicRoughness":{"metallicFactor":0,"roughnessFactor":1,"baseColorTexture":{"index":0}},"alphaMode":"MASK","alphaCutoff":0.05,"doubleSided":true}],"textures":[{"sampler":0,"source":0,"name":"monk_chi_blast"}],"samplers":[{"magFilter":9728,"minFilter":9728,"wrapS":33071,"wrapT":33071}],"images":[{"mimeType":"image/png","uri":"data:image/png;base64,"}],"meshes":[{"primitives":[{"mode":4,"attributes":{"POSITION":0,"NORMAL":1,"TEXCOORD_0":2},"indices":3,"material":0}]},{"primitives":[{"mode":4,"attributes":{"POSITION":4,"NORMAL":5,"TEXCOORD_0":6},"indices":7,"material":0}]},{"primitives":[{"mode":4,"attributes":{"POSITION":8,"NORMAL":9,"TEXCOORD_0":10},"indices":11,"material":0}]},{"primitives":[{"mode":4,"attributes":{"POSITION":12,"NORMAL":13,"TEXCOORD_0":14},"indices":15,"material":0}]},{"primitives":[{"mode":4,"attributes":{"POSITION":16,"NORMAL":17,"TEXCOORD_0":18},"indices":19,"material":0}]},{"primitives":[{"mode":4,"attributes":{"POSITION":20,"NORMAL":21,"TEXCOORD_0":22},"indices":23,"material":0}]},{"primitives":[{"mode":4,"attributes":{"POSITION":24,"NORMAL":25,"TEXCOORD_0":26},"indices":27,"material":0}]},{"primitives":[{"mode":4,"attributes":{"POSITION":28,"NORMAL":29,"TEXCOORD_0":30},"indices":31,"material":0}]},{"primitives":[{"mode":4,"attributes":{"POSITION":32,"NORMAL":33,"TEXCOORD_0":34},"indices":35,"material":0}]},{"primitives":[{"mode":4,"attributes":{"POSITION":36,"NORMAL":37,"TEXCOORD_0":38},"indices":39,"material":0}]}],"animations":[{"name":"idle","samplers":[{"input":40,"output":41,"interpolation":"LINEAR"},{"input":42,"output":43,"interpolation":"LINEAR"}],"channels":[{"sampler":0,"target":{"node":15,"path":"rotation"}},{"sampler":1,"target":{"node":15,"path":"translation"}}]},{"name":"skill","samplers":[{"input":44,"output":45,"interpolation":"LINEAR"},{"input":46,"output":47,"interpolation":"LINEAR"},{"input":48,"output":49,"interpolation":"LINEAR"},{"input":50,"output":51,"interpolation":"LINEAR"},{"input":52,"output":53,"interpolation":"LINEAR"},{"input":54,"output":55,"interpolation":"LINEAR"},{"input":56,"output":57,"interpolation":"LINEAR"},{"input":58,"output":59,"interpolation":"LINEAR"},{"input":60,"output":61,"interpolation":"LINEAR"},{"input":62,"output":63,"interpolation":"LINEAR"},{"input":64,"output":65,"interpolation":"LINEAR"},{"input":66,"output":67,"interpolation":"LINEAR"},{"input":68,"output":69,"interpolation":"LINEAR"},{"input":70,"output":71,"interpolation":"LINEAR"},{"input":72,"output":73,"interpolation":"LINEAR"},{"input":74,"output":75,"interpolation":"LINEAR"}],"channels":[{"sampler":0,"target":{"node":15,"path":"rotation"}},{"sampler":1,"target":{"node":2,"path":"rotation"}},{"sampler":2,"target":{"node":2,"path":"translation"}},{"sampler":3,"target":{"node":2,"path":"scale"}},{"sampler":4,"target":{"node":5,"path":"rotation"}},{"sampler":5,"target":{"node":5,"path":"translation"}},{"sampler":6,"target":{"node":5,"path":"scale"}},{"sampler":7,"target":{"node":8,"path":"rotation"}},{"sampler":8,"target":{"node":8,"path":"translation"}},{"sampler":9,"target":{"node":8,"path":"scale"}},{"sampler":10,"target":{"node":11,"path":"rotation"}},{"sampler":11,"target":{"node":11,"path":"translation"}},{"sampler":12,"target":{"node":11,"path":"scale"}},{"sampler":13,"target":{"node":14,"path":"rotation"}},{"sampler":14,"target":{"node":14,"path":"translation"}},{"sampler":15,"target":{"node":14,"path":"scale"}}]}]}