{"asset":{"version":"2.0","generator":"Blockbench 5.0.5 glTF exporter"},"scenes":[{"nodes":[6],"name":"blockbench_export"}],"scene":0,"nodes":[{"translation":[0,0.5,0.875],"name":"cube","mesh":0},{"translation":[0,-0.5,0.875],"name":"cube","mesh":1},{"translation":[0,0,-0.0625],"name":"h_bone","children":[0,1]},{"translation":[0,0.5,0.875],"name":"cube","mesh":2},{"translation":[0,-0.5,0.875],"name":"cube","mesh":3},{"rotation":[0,0,0.7071067811865475,0.7071067811865476],"translation":[0,0,-0.0625],"name":"h_bone2","children":[3,4]},{"translation":[0,0.8125,-0.8125],"name":"h_body","children":[2,5]}],"bufferViews":[{"buffer":0,"byteOffset":0,"byteLength":288,"target":34962,"byteStride":12},{"buffer":0,"byteOffset":288,"byteLength":288,"target":34962,"byteStride":12},{"buffer":0,"byteOffset":576,"byteLength":192,"target":34962,"byteStride":8},{"buffer":0,"byteOffset":768,"byteLength":72,"target":34963},{"buffer":0,"byteOffset":840,"byteLength":288,"target":34962,"byteStride":12},{"buffer":0,"byteOffset":1128,"byteLength":288,"target":34962,"byteStride":12},{"buffer":0,"byteOffset":1416,"byteLength":192,"target":34962,"byteStride":8},{"buffer":0,"byteOffset":1608,"byteLength":72,"target":34963},{"buffer":0,"byteOffset":1680,"byteLength":288,"target":34962,"byteStride":12},{"buffer":0,"byteOffset":1968,"byteLength":288,"target":34962,"byteStride":12},{"buffer":0,"byteOffset":2256,"byteLength":192,"target":34962,"byteStride":8},{"buffer":0,"byteOffset":2448,"byteLength":72,"target":34963},{"buffer":0,"byteOffset":2520,"byteLength":288,"target":34962,"byteStride":12},{"buffer":0,"byteOffset":2808,"byteLength":288,"target":34962,"byteStride":12},{"buffer":0,"byteOffset":3096,"byteLength":192,"target":34962,"byteStride":8},{"buffer":0,"byteOffset":3288,"byteLength":72,"target":34963},{"buffer":0,"byteOffset":3360,"byteLength":8},{"buffer":0,"byteOffset":3368,"byteLength":24},{"buffer":0,"byteOffset":3392,"byteLength":8},{"buffer":0,"byteOffset":3400,"byteLength":24},{"buffer":0,"byteOffset":3424,"byteLength":8},{"buffer":0,"byteOffset":3432,"byteLength":24},{"buffer":0,"byteOffset":3456,"byteLength":8},{"buffer":0,"byteOffset":3464,"byteLength":24}],"buffers":[{"byteLength":3488,"uri":"data:application/octet-stream;base64,"}],"accessors":[{"bufferView":0,"componentType":5126,"count":24,"max":[0.0000625000029685907,0.625,1],"min":[0,-0.625,-1],"type":"VEC3"},{"bufferView":1,"componentType":5126,"count":24,"max":[1,1,1],"min":[-1,-1,-1],"type":"VEC3"},{"bufferView":2,"componentType":5126,"count":24,"max":[1,0.625],"min":[0,0],"type":"VEC2"},{"bufferView":3,"componentType":5123,"count":36,"max":[23],"min":[0],"type":"SCALAR"},{"bufferView":4,"componentType":5126,"count":24,"max":[0.0000625000029685907,0.625,1],"min":[0,-0.625,-1],"type":"VEC3"},{"bufferView":5,"componentType":5126,"count":24,"max":[1,1,1],"min":[-1,-1,-1],"type":"VEC3"},{"bufferView":6,"componentType":5126,"count":24,"max":[1,0.625],"min":[0,0],"type":"VEC2"},{"bufferView":7,"componentType":5123,"count":36,"max":[23],"min":[0],"type":"SCALAR"},{"bufferView":8,"componentType":5126,"count":24,"max":[0.0000625000029685907,0.625,1],"min":[0,-0.625,-1],"type":"VEC3"},{"bufferView":9,"componentType":5126,"count":24,"max":[1,1,1],"min":[-1,-1,-1],"type":"VEC3"},{"bufferView":10,"componentType":5126,"count":24,"max":[1,0.625],"min":[0,0],"type":"VEC2"},{"bufferView":11,"componentType":5123,"count":36,"max":[23],"min":[0],"type":"SCALAR"},{"bufferView":12,"componentType":5126,"count":24,"max":[0.0000625000029685907,0.625,1],"min":[0,-0.625,-1],"type":"VEC3"},{"bufferView":13,"componentType":5126,"count":24,"max":[1,1,1],"min":[-1,-1,-1],"type":"VEC3"},{"bufferView":14,"componentType":5126,"count":24,"max":[1,0.625],"min":[0,0],"type":"VEC2"},{"bufferView":15,"componentType":5123,"count":36,"max":[23],"min":[0],"type":"SCALAR"},{"bufferView":16,"componentType":5126,"count":2,"max":[0.75],"min":[0],"type":"SCALAR"},{"bufferView":17,"componentType":5126,"count":2,"max":[0,0.8125,-1.1875],"min":[0,0.8125,-2.3125],"type":"VEC3"},{"bufferView":18,"componentType":5126,"count":2,"max":[0.75],"min":[0],"type":"SCALAR"},{"bufferView":19,"componentType":5126,"count":2,"max":[1.7999999523162842,1.7999999523162842,2.4000000953674316],"min":[1.7999999523162842,1.7999999523162842,1.7999999523162842],"type":"VEC3"},{"bufferView":20,"componentType":5126,"count":2,"max":[0.75],"min":[0],"type":"SCALAR"},{"bufferView":21,"componentType":5126,"count":2,"max":[0,0.8125,-1.1875],"min":[0,0.8125,-2.3125],"type":"VEC3"},{"bufferView":22,"componentType":5126,"count":2,"max":[0.75],"min":[0],"type":"SCALAR"},{"bufferView":23,"componentType":5126,"count":2,"max":[2.5,2.5,3],"min":[1.7999999523162842,1.7999999523162842,2.5],"type":"VEC3"}],"materials":[{"pbrMetallicRoughness":{"metallicFactor":0,"roughnessFactor":1,"baseColorTexture":{"index":0}},"alphaMode":"MASK","alphaCutoff":0.05,"doubleSided":true}],"textures":[{"sampler":0,"source":0,"name":"thrust_gale_7.png"}],"samplers":[{"magFilter":9728,"minFilter":9728,"wrapS":33071,"wrapT":33071}],"images":[{"mimeType":"image/png","uri":"data:image/png;base64,"}],"meshes":[{"primitives":[{"mode":4,"attributes":{"POSITION":0,"NORMAL":1,"TEXCOORD_0":2},"indices":3,"material":0}]},{"primitives":[{"mode":4,"attributes":{"POSITION":4,"NORMAL":5,"TEXCOORD_0":6},"indices":7,"material":0}]},{"primitives":[{"mode":4,"attributes":{"POSITION":8,"NORMAL":9,"TEXCOORD_0":10},"indices":11,"material":0}]},{"primitives":[{"mode":4,"attributes":{"POSITION":12,"NORMAL":13,"TEXCOORD_0":14},"indices":15,"material":0}]}],"animations":[{"name":"skill","samplers":[{"input":16,"output":17,"interpolation":"LINEAR"},{"input":18,"output":19,"interpolation":"LINEAR"}],"channels":[{"sampler":0,"target":{"node":6,"path":"translation"}},{"sampler":1,"target":{"node":6,"path":"scale"}}]},{"name":"skill2","samplers":[{"input":20,"output":21,"interpolation":"LINEAR"},{"input":22,"output":23,"interpolation":"LINEAR"}],"channels":[{"sampler":0,"target":{"node":6,"path":"translation"}},{"sampler":1,"target":{"node":6,"path":"scale"}}]}]}