{"asset":{"version":"2.0","generator":"Blockbench 5.0.5 glTF exporter"},"scenes":[{"nodes":[10],"name":"blockbench_export"}],"scene":0,"nodes":[{"name":"cube","mesh":0},{"translation":[0.40625,-0.15000000000000002,0.5625],"name":"h_stone_1","children":[0]},{"name":"cube","mesh":1},{"translation":[-0.65625,-0.15312500000000004,0.25],"name":"h_stone_5","children":[2]},{"name":"cube","mesh":2},{"translation":[0.125,-0.15000000000000005,-0.65625],"name":"h_stone_2","children":[4]},{"name":"cube","mesh":3},{"translation":[-0.5,-0.0625,0.90625],"name":"h_stone_4","children":[6]},{"name":"cube","mesh":4},{"translation":[-0.59375,-0.18125000000000005,-0.53125],"name":"h_stone_3","children":[8]},{"translation":[0,0,-0.3125],"name":"h_bone","children":[1,3,5,7,9]}],"bufferViews":[{"buffer":0,"byteOffset":0,"byteLength":288,"target":34962,"byteStride":12},{"buffer":0,"byteOffset":288,"byteLength":288,"target":34962,"byteStride":12},{"buffer":0,"byteOffset":576,"byteLength":192,"target":34962,"byteStride":8},{"buffer":0,"byteOffset":768,"byteLength":72,"target":34963},{"buffer":0,"byteOffset":840,"byteLength":288,"target":34962,"byteStride":12},{"buffer":0,"byteOffset":1128,"byteLength":288,"target":34962,"byteStride":12},{"buffer":0,"byteOffset":1416,"byteLength":192,"target":34962,"byteStride":8},{"buffer":0,"byteOffset":1608,"byteLength":72,"target":34963},{"buffer":0,"byteOffset":1680,"byteLength":288,"target":34962,"byteStride":12},{"buffer":0,"byteOffset":1968,"byteLength":288,"target":34962,"byteStride":12},{"buffer":0,"byteOffset":2256,"byteLength":192,"target":34962,"byteStride":8},{"buffer":0,"byteOffset":2448,"byteLength":72,"target":34963},{"buffer":0,"byteOffset":2520,"byteLength":288,"target":34962,"byteStride":12},{"buffer":0,"byteOffset":2808,"byteLength":288,"target":34962,"byteStride":12},{"buffer":0,"byteOffset":3096,"byteLength":192,"target":34962,"byteStride":8},{"buffer":0,"byteOffset":3288,"byteLength":72,"target":34963},{"buffer":0,"byteOffset":3360,"byteLength":288,"target":34962,"byteStride":12},{"buffer":0,"byteOffset":3648,"byteLength":288,"target":34962,"byteStride":12},{"buffer":0,"byteOffset":3936,"byteLength":192,"target":34962,"byteStride":8},{"buffer":0,"byteOffset":4128,"byteLength":72,"target":34963},{"buffer":0,"byteOffset":4200,"byteLength":64},{"buffer":0,"byteOffset":4264,"byteLength":256},{"buffer":0,"byteOffset":4520,"byteLength":60},{"buffer":0,"byteOffset":4580,"byteLength":180},{"buffer":0,"byteOffset":4760,"byteLength":16},{"buffer":0,"byteOffset":4776,"byteLength":48},{"buffer":0,"byteOffset":4824,"byteLength":112},{"buffer":0,"byteOffset":4936,"byteLength":448},{"buffer":0,"byteOffset":5384,"byteLength":104},{"buffer":0,"byteOffset":5488,"byteLength":312},{"buffer":0,"byteOffset":5800,"byteLength":16},{"buffer":0,"byteOffset":5816,"byteLength":48},{"buffer":0,"byteOffset":5864,"byteLength":112},{"buffer":0,"byteOffset":5976,"byteLength":448},{"buffer":0,"byteOffset":6424,"byteLength":104},{"buffer":0,"byteOffset":6528,"byteLength":312},{"buffer":0,"byteOffset":6840,"byteLength":16},{"buffer":0,"byteOffset":6856,"byteLength":48},{"buffer":0,"byteOffset":6904,"byteLength":104},{"buffer":0,"byteOffset":7008,"byteLength":416},{"buffer":0,"byteOffset":7424,"byteLength":100},{"buffer":0,"byteOffset":7524,"byteLength":300},{"buffer":0,"byteOffset":7824,"byteLength":16},{"buffer":0,"byteOffset":7840,"byteLength":48},{"buffer":0,"byteOffset":7888,"byteLength":84},{"buffer":0,"byteOffset":7972,"byteLength":336},{"buffer":0,"byteOffset":8308,"byteLength":84},{"buffer":0,"byteOffset":8392,"byteLength":252},{"buffer":0,"byteOffset":8644,"byteLength":16},{"buffer":0,"byteOffset":8660,"byteLength":48},{"buffer":0,"byteOffset":8708,"byteLength":4},{"buffer":0,"byteOffset":8712,"byteLength":12}],"buffers":[{"byteLength":8724,"uri":"data:application/octet-stream;base64,"}],"accessors":[{"bufferView":0,"componentType":5126,"count":24,"max":[0.15625,0.03125,0.21875],"min":[-0.15625,-0.03125,-0.21875],"type":"VEC3"},{"bufferView":1,"componentType":5126,"count":24,"max":[1,1,1],"min":[-1,-1,-1],"type":"VEC3"},{"bufferView":2,"componentType":5126,"count":24,"max":[0.71875,0.53125],"min":[0,0],"type":"VEC2"},{"bufferView":3,"componentType":5123,"count":36,"max":[23],"min":[0],"type":"SCALAR"},{"bufferView":4,"componentType":5126,"count":24,"max":[0.15625,0.03125,0.21875],"min":[-0.15625,-0.03125,-0.21875],"type":"VEC3"},{"bufferView":5,"componentType":5126,"count":24,"max":[1,1,1],"min":[-1,-1,-1],"type":"VEC3"},{"bufferView":6,"componentType":5126,"count":24,"max":[0.78125,0.625],"min":[0,0.21875],"type":"VEC2"},{"bufferView":7,"componentType":5123,"count":36,"max":[23],"min":[0],"type":"SCALAR"},{"bufferView":8,"componentType":5126,"count":24,"max":[0.0625,0.03125,0.125],"min":[-0.0625,-0.03125,-0.125],"type":"VEC3"},{"bufferView":9,"componentType":5126,"count":24,"max":[1,1,1],"min":[-1,-1,-1],"type":"VEC3"},{"bufferView":10,"componentType":5126,"count":24,"max":[0.71875,0.65625],"min":[0.1875,0],"type":"VEC2"},{"bufferView":11,"componentType":5123,"count":36,"max":[23],"min":[0],"type":"SCALAR"},{"bufferView":12,"componentType":5126,"count":24,"max":[0.0625,0.03125,0.125],"min":[-0.0625,-0.03125,-0.125],"type":"VEC3"},{"bufferView":13,"componentType":5126,"count":24,"max":[1,1,1],"min":[-1,-1,-1],"type":"VEC3"},{"bufferView":14,"componentType":5126,"count":24,"max":[0.625,0.6875],"min":[0,0.46875],"type":"VEC2"},{"bufferView":15,"componentType":5123,"count":36,"max":[23],"min":[0],"type":"SCALAR"},{"bufferView":16,"componentType":5126,"count":24,"max":[0.09375,0.0625,0.125],"min":[-0.09375,-0.0625,-0.125],"type":"VEC3"},{"bufferView":17,"componentType":5126,"count":24,"max":[1,1,1],"min":[-1,-1,-1],"type":"VEC3"},{"bufferView":18,"componentType":5126,"count":24,"max":[0.65625,0.5625],"min":[0,0],"type":"VEC2"},{"bufferView":19,"componentType":5123,"count":36,"max":[23],"min":[0],"type":"SCALAR"},{"bufferView":20,"componentType":5126,"count":16,"max":[0.9166666865348816],"min":[0],"type":"SCALAR"},{"bufferView":21,"componentType":5126,"count":16,"max":[0.9721768498420715,0.8389708995819092,0,1],"min":[-0.3105756342411041,0,-0.7234612703323364,-0.18934156000614166],"type":"VEC4"},{"bufferView":22,"componentType":5126,"count":15,"max":[0.9166666865348816],"min":[0],"type":"SCALAR"},{"bufferView":23,"componentType":5126,"count":15,"max":[1.28125,0.7250000238418579,1.4375],"min":[0.15625,-0.15000000596046448,0.5],"type":"VEC3"},{"bufferView":24,"componentType":5126,"count":4,"max":[2.0833332538604736],"min":[0],"type":"SCALAR"},{"bufferView":25,"componentType":5126,"count":4,"max":[1,1,1],"min":[0,0,0],"type":"VEC3"},{"bufferView":26,"componentType":5126,"count":28,"max":[1.5],"min":[0],"type":"SCALAR"},{"bufferView":27,"componentType":5126,"count":28,"max":[0.9713420867919922,0.7434947490692139,0.7291030883789062,1],"min":[-0.9829189777374268,-0.9771177172660828,-0.237685889005661,-0.1524190455675125],"type":"VEC4"},{"bufferView":28,"componentType":5126,"count":26,"max":[1.4166666269302368],"min":[0],"type":"SCALAR"},{"bufferView":29,"componentType":5126,"count":26,"max":[-0.40625,0.721875011920929,0.3125],"min":[-1.71875,-0.15312500298023224,0.3125],"type":"VEC3"},{"bufferView":30,"componentType":5126,"count":4,"max":[2.125],"min":[0.0416666679084301],"type":"SCALAR"},{"bufferView":31,"componentType":5126,"count":4,"max":[1,1,1],"min":[0,0,0],"type":"VEC3"},{"bufferView":32,"componentType":5126,"count":28,"max":[1.5],"min":[0],"type":"SCALAR"},{"bufferView":33,"componentType":5126,"count":28,"max":[0.9713420867919922,0.9771177172660828,0.237685889005661,1],"min":[-0.9829189777374268,-0.7434947490692139,-0.7291030883789062,-0.1524190455675125],"type":"VEC4"},{"bufferView":34,"componentType":5126,"count":26,"max":[1.4166666269302368],"min":[0],"type":"SCALAR"},{"bufferView":35,"componentType":5126,"count":26,"max":[1.1875,0.7250000238418579,-0.59375],"min":[-0.125,-0.15000000596046448,-0.59375],"type":"VEC3"},{"bufferView":36,"componentType":5126,"count":4,"max":[2.125],"min":[0.0416666679084301],"type":"SCALAR"},{"bufferView":37,"componentType":5126,"count":4,"max":[1,1,1],"min":[0,0,0],"type":"VEC3"},{"bufferView":38,"componentType":5126,"count":26,"max":[1.4166666269302368],"min":[0],"type":"SCALAR"},{"bufferView":39,"componentType":5126,"count":26,"max":[0.9655687212944031,0.903537929058075,0.36253851652145386,1],"min":[-0.704622745513916,-0.9819165468215942,-0.884048342704773,-0.6921561360359192],"type":"VEC4"},{"bufferView":40,"componentType":5126,"count":25,"max":[1.4166666269302368],"min":[0],"type":"SCALAR"},{"bufferView":41,"componentType":5126,"count":25,"max":[0.1875,1.1875,2.46875],"min":[-0.75,-0.0625,0.96875],"type":"VEC3"},{"bufferView":42,"componentType":5126,"count":4,"max":[2.0833332538604736],"min":[0],"type":"SCALAR"},{"bufferView":43,"componentType":5126,"count":4,"max":[1,1,1],"min":[0,0,0],"type":"VEC3"},{"bufferView":44,"componentType":5126,"count":21,"max":[1.25],"min":[0],"type":"SCALAR"},{"bufferView":45,"componentType":5126,"count":21,"max":[0.97231125831604,0,0.7196568846702576,1],"min":[-0.3179582357406616,-0.8353745937347412,0,-0.19461211562156677],"type":"VEC4"},{"bufferView":46,"componentType":5126,"count":21,"max":[1.25],"min":[0],"type":"SCALAR"},{"bufferView":47,"componentType":5126,"count":21,"max":[-0.34375,0.3812499940395355,-0.59375],"min":[-1.96875,-0.18125000596046448,-0.59375],"type":"VEC3"},{"bufferView":48,"componentType":5126,"count":4,"max":[2.1666667461395264],"min":[0.0833333358168602],"type":"SCALAR"},{"bufferView":49,"componentType":5126,"count":4,"max":[1,1,1],"min":[0,0,0],"type":"VEC3"},{"bufferView":50,"componentType":5126,"count":1,"max":[0],"min":[0],"type":"SCALAR"},{"bufferView":51,"componentType":5126,"count":1,"max":[2,2,2],"min":[2,2,2],"type":"VEC3"}],"materials":[{"pbrMetallicRoughness":{"metallicFactor":0,"roughnessFactor":1,"baseColorTexture":{"index":0}},"alphaMode":"MASK","alphaCutoff":0.05,"doubleSided":true}],"textures":[{"sampler":0,"source":0,"name":"ground_crack_debris_texture"}],"samplers":[{"magFilter":9728,"minFilter":9728,"wrapS":33071,"wrapT":33071}],"images":[{"mimeType":"image/png","uri":"data:image/png;base64,"}],"meshes":[{"primitives":[{"mode":4,"attributes":{"POSITION":0,"NORMAL":1,"TEXCOORD_0":2},"indices":3,"material":0}]},{"primitives":[{"mode":4,"attributes":{"POSITION":4,"NORMAL":5,"TEXCOORD_0":6},"indices":7,"material":0}]},{"primitives":[{"mode":4,"attributes":{"POSITION":8,"NORMAL":9,"TEXCOORD_0":10},"indices":11,"material":0}]},{"primitives":[{"mode":4,"attributes":{"POSITION":12,"NORMAL":13,"TEXCOORD_0":14},"indices":15,"material":0}]},{"primitives":[{"mode":4,"attributes":{"POSITION":16,"NORMAL":17,"TEXCOORD_0":18},"indices":19,"material":0}]}],"animations":[{"name":"skill","samplers":[{"input":20,"output":21,"interpolation":"LINEAR"},{"input":22,"output":23,"interpolation":"LINEAR"},{"input":24,"output":25,"interpolation":"LINEAR"},{"input":26,"output":27,"interpolation":"LINEAR"},{"input":28,"output":29,"interpolation":"LINEAR"},{"input":30,"output":31,"interpolation":"LINEAR"},{"input":32,"output":33,"interpolation":"LINEAR"},{"input":34,"output":35,"interpolation":"LINEAR"},{"input":36,"output":37,"interpolation":"LINEAR"},{"input":38,"output":39,"interpolation":"LINEAR"},{"input":40,"output":41,"interpolation":"LINEAR"},{"input":42,"output":43,"interpolation":"LINEAR"},{"input":44,"output":45,"interpolation":"LINEAR"},{"input":46,"output":47,"interpolation":"LINEAR"},{"input":48,"output":49,"interpolation":"LINEAR"},{"input":50,"output":51,"interpolation":"LINEAR"}],"channels":[{"sampler":0,"target":{"node":1,"path":"rotation"}},{"sampler":1,"target":{"node":1,"path":"translation"}},{"sampler":2,"target":{"node":1,"path":"scale"}},{"sampler":3,"target":{"node":3,"path":"rotation"}},{"sampler":4,"target":{"node":3,"path":"translation"}},{"sampler":5,"target":{"node":3,"path":"scale"}},{"sampler":6,"target":{"node":5,"path":"rotation"}},{"sampler":7,"target":{"node":5,"path":"translation"}},{"sampler":8,"target":{"node":5,"path":"scale"}},{"sampler":9,"target":{"node":7,"path":"rotation"}},{"sampler":10,"target":{"node":7,"path":"translation"}},{"sampler":11,"target":{"node":7,"path":"scale"}},{"sampler":12,"target":{"node":9,"path":"rotation"}},{"sampler":13,"target":{"node":9,"path":"translation"}},{"sampler":14,"target":{"node":9,"path":"scale"}},{"sampler":15,"target":{"node":10,"path":"scale"}}]}]}