{"asset":{"version":"2.0","generator":"Blockbench 5.0.5 glTF exporter"},"scenes":[{"nodes":[6,7,8,9,10],"name":"blockbench_export"}],"scene":0,"nodes":[{"translation":[0,0.5,0.875],"name":"cube","mesh":0},{"translation":[0,-0.5,0.875],"name":"cube","mesh":1},{"translation":[0,0,-0.0625],"name":"h_bone","children":[0,1]},{"translation":[0,0.5,0.875],"name":"cube","mesh":2},{"translation":[0,-0.5,0.875],"name":"cube","mesh":3},{"rotation":[0,0,0.7071067811865475,0.7071067811865476],"translation":[0,0,-0.0625],"name":"h_bone2","children":[3,4]},{"translation":[0,0.8125,-0.8125],"name":"h_body","children":[2,5]},{"translation":[0,1,-0.625],"name":"point1"},{"translation":[0,0.625,-0.625],"name":"point2"},{"translation":[-0.1875,0.8125,-0.625],"name":"point3"},{"translation":[0.1875,0.8125,-0.625],"name":"point4"}],"bufferViews":[{"buffer":0,"byteOffset":0,"byteLength":288,"target":34962,"byteStride":12},{"buffer":0,"byteOffset":288,"byteLength":288,"target":34962,"byteStride":12},{"buffer":0,"byteOffset":576,"byteLength":192,"target":34962,"byteStride":8},{"buffer":0,"byteOffset":768,"byteLength":72,"target":34963},{"buffer":0,"byteOffset":840,"byteLength":288,"target":34962,"byteStride":12},{"buffer":0,"byteOffset":1128,"byteLength":288,"target":34962,"byteStride":12},{"buffer":0,"byteOffset":1416,"byteLength":192,"target":34962,"byteStride":8},{"buffer":0,"byteOffset":1608,"byteLength":72,"target":34963},{"buffer":0,"byteOffset":1680,"byteLength":288,"target":34962,"byteStride":12},{"buffer":0,"byteOffset":1968,"byteLength":288,"target":34962,"byteStride":12},{"buffer":0,"byteOffset":2256,"byteLength":192,"target":34962,"byteStride":8},{"buffer":0,"byteOffset":2448,"byteLength":72,"target":34963},{"buffer":0,"byteOffset":2520,"byteLength":288,"target":34962,"byteStride":12},{"buffer":0,"byteOffset":2808,"byteLength":288,"target":34962,"byteStride":12},{"buffer":0,"byteOffset":3096,"byteLength":192,"target":34962,"byteStride":8},{"buffer":0,"byteOffset":3288,"byteLength":72,"target":34963},{"buffer":0,"byteOffset":3360,"byteLength":8},{"buffer":0,"byteOffset":3368,"byteLength":24},{"buffer":0,"byteOffset":3392,"byteLength":8},{"buffer":0,"byteOffset":3400,"byteLength":24},{"buffer":0,"byteOffset":3424,"byteLength":8},{"buffer":0,"byteOffset":3432,"byteLength":24},{"buffer":0,"byteOffset":3456,"byteLength":8},{"buffer":0,"byteOffset":3464,"byteLength":24},{"buffer":0,"byteOffset":3488,"byteLength":8},{"buffer":0,"byteOffset":3496,"byteLength":24},{"buffer":0,"byteOffset":3520,"byteLength":8},{"buffer":0,"byteOffset":3528,"byteLength":24},{"buffer":0,"byteOffset":3552,"byteLength":8},{"buffer":0,"byteOffset":3560,"byteLength":24},{"buffer":0,"byteOffset":3584,"byteLength":8},{"buffer":0,"byteOffset":3592,"byteLength":24},{"buffer":0,"byteOffset":3616,"byteLength":8},{"buffer":0,"byteOffset":3624,"byteLength":24},{"buffer":0,"byteOffset":3648,"byteLength":8},{"buffer":0,"byteOffset":3656,"byteLength":24},{"buffer":0,"byteOffset":3680,"byteLength":8},{"buffer":0,"byteOffset":3688,"byteLength":24},{"buffer":0,"byteOffset":3712,"byteLength":8},{"buffer":0,"byteOffset":3720,"byteLength":24},{"buffer":0,"byteOffset":3744,"byteLength":4},{"buffer":0,"byteOffset":3748,"byteLength":16},{"buffer":0,"byteOffset":3764,"byteLength":8},{"buffer":0,"byteOffset":3772,"byteLength":24},{"buffer":0,"byteOffset":3796,"byteLength":8},{"buffer":0,"byteOffset":3804,"byteLength":24},{"buffer":0,"byteOffset":3828,"byteLength":8},{"buffer":0,"byteOffset":3836,"byteLength":24},{"buffer":0,"byteOffset":3860,"byteLength":8},{"buffer":0,"byteOffset":3868,"byteLength":24},{"buffer":0,"byteOffset":3892,"byteLength":8},{"buffer":0,"byteOffset":3900,"byteLength":24},{"buffer":0,"byteOffset":3924,"byteLength":8},{"buffer":0,"byteOffset":3932,"byteLength":24}],"buffers":[{"byteLength":3956,"uri":"data:application/octet-stream;base64,"}],"accessors":[{"bufferView":0,"componentType":5126,"count":24,"max":[0.0000625000029685907,0.625,1],"min":[0,-0.625,-1],"type":"VEC3"},{"bufferView":1,"componentType":5126,"count":24,"max":[1,1,1],"min":[-1,-1,-1],"type":"VEC3"},{"bufferView":2,"componentType":5126,"count":24,"max":[1,0.625],"min":[0,0],"type":"VEC2"},{"bufferView":3,"componentType":5123,"count":36,"max":[23],"min":[0],"type":"SCALAR"},{"bufferView":4,"componentType":5126,"count":24,"max":[0.0000625000029685907,0.625,1],"min":[0,-0.625,-1],"type":"VEC3"},{"bufferView":5,"componentType":5126,"count":24,"max":[1,1,1],"min":[-1,-1,-1],"type":"VEC3"},{"bufferView":6,"componentType":5126,"count":24,"max":[1,0.625],"min":[0,0],"type":"VEC2"},{"bufferView":7,"componentType":5123,"count":36,"max":[23],"min":[0],"type":"SCALAR"},{"bufferView":8,"componentType":5126,"count":24,"max":[0.0000625000029685907,0.625,1],"min":[0,-0.625,-1],"type":"VEC3"},{"bufferView":9,"componentType":5126,"count":24,"max":[1,1,1],"min":[-1,-1,-1],"type":"VEC3"},{"bufferView":10,"componentType":5126,"count":24,"max":[1,0.625],"min":[0,0],"type":"VEC2"},{"bufferView":11,"componentType":5123,"count":36,"max":[23],"min":[0],"type":"SCALAR"},{"bufferView":12,"componentType":5126,"count":24,"max":[0.0000625000029685907,0.625,1],"min":[0,-0.625,-1],"type":"VEC3"},{"bufferView":13,"componentType":5126,"count":24,"max":[1,1,1],"min":[-1,-1,-1],"type":"VEC3"},{"bufferView":14,"componentType":5126,"count":24,"max":[1,0.625],"min":[0,0],"type":"VEC2"},{"bufferView":15,"componentType":5123,"count":36,"max":[23],"min":[0],"type":"SCALAR"},{"bufferView":16,"componentType":5126,"count":2,"max":[0.75],"min":[0],"type":"SCALAR"},{"bufferView":17,"componentType":5126,"count":2,"max":[0,0.8125,-1.75],"min":[0,0.8125,-1.75],"type":"VEC3"},{"bufferView":18,"componentType":5126,"count":2,"max":[0.75],"min":[0],"type":"SCALAR"},{"bufferView":19,"componentType":5126,"count":2,"max":[3,3,4],"min":[3,3,3],"type":"VEC3"},{"bufferView":20,"componentType":5126,"count":2,"max":[0.3333333432674408],"min":[0],"type":"SCALAR"},{"bufferView":21,"componentType":5126,"count":2,"max":[0,2.9375,4.125],"min":[0,1.0625,-1.5625],"type":"VEC3"},{"bufferView":22,"componentType":5126,"count":2,"max":[0.3333333432674408],"min":[0],"type":"SCALAR"},{"bufferView":23,"componentType":5126,"count":2,"max":[0,0.5625,4.125],"min":[0,-1.3125,-1.5625],"type":"VEC3"},{"bufferView":24,"componentType":5126,"count":2,"max":[0.3333333432674408],"min":[0],"type":"SCALAR"},{"bufferView":25,"componentType":5126,"count":2,"max":[-0.3125,0.8125,4.0625],"min":[-1.75,0.8125,-1.625],"type":"VEC3"},{"bufferView":26,"componentType":5126,"count":2,"max":[0.3333333432674408],"min":[0],"type":"SCALAR"},{"bufferView":27,"componentType":5126,"count":2,"max":[1.8125,0.8125,4.0625],"min":[0.3125,0.8125,-1.625],"type":"VEC3"},{"bufferView":28,"componentType":5126,"count":2,"max":[0.75],"min":[0],"type":"SCALAR"},{"bufferView":29,"componentType":5126,"count":2,"max":[0,0.8125,-1.75],"min":[0,0.8125,-1.75],"type":"VEC3"},{"bufferView":30,"componentType":5126,"count":2,"max":[0.75],"min":[0],"type":"SCALAR"},{"bufferView":31,"componentType":5126,"count":2,"max":[2.700000047683716,2.700000047683716,6.300000190734863],"min":[2.700000047683716,2.700000047683716,4.800000190734863],"type":"VEC3"},{"bufferView":32,"componentType":5126,"count":2,"max":[0.3333333432674408],"min":[0],"type":"SCALAR"},{"bufferView":33,"componentType":5126,"count":2,"max":[0,2.4375,4.125],"min":[0,1.0625,-1.5625],"type":"VEC3"},{"bufferView":34,"componentType":5126,"count":2,"max":[0.3333333432674408],"min":[0],"type":"SCALAR"},{"bufferView":35,"componentType":5126,"count":2,"max":[0,0.5625,4.125],"min":[0,-0.8125,-1.5625],"type":"VEC3"},{"bufferView":36,"componentType":5126,"count":2,"max":[0.3333333432674408],"min":[0],"type":"SCALAR"},{"bufferView":37,"componentType":5126,"count":2,"max":[-0.3125,0.8125,4.0625],"min":[-1.5,0.8125,-1.625],"type":"VEC3"},{"bufferView":38,"componentType":5126,"count":2,"max":[0.3333333432674408],"min":[0],"type":"SCALAR"},{"bufferView":39,"componentType":5126,"count":2,"max":[1.5,0.8125,4.0625],"min":[0.3125,0.8125,-1.625],"type":"VEC3"},{"bufferView":40,"componentType":5126,"count":1,"max":[0],"min":[0],"type":"SCALAR"},{"bufferView":41,"componentType":5126,"count":1,"max":[0,0,0.3826834261417389,0.9238795042037964],"min":[0,0,0.3826834261417389,0.9238795042037964],"type":"VEC4"},{"bufferView":42,"componentType":5126,"count":2,"max":[0.75],"min":[0],"type":"SCALAR"},{"bufferView":43,"componentType":5126,"count":2,"max":[0,0.8125,-1.75],"min":[0,0.8125,-1.75],"type":"VEC3"},{"bufferView":44,"componentType":5126,"count":2,"max":[0.75],"min":[0],"type":"SCALAR"},{"bufferView":45,"componentType":5126,"count":2,"max":[6,6,3.299999952316284],"min":[6,6,2.5999999046325684],"type":"VEC3"},{"bufferView":46,"componentType":5126,"count":2,"max":[0.3333333432674408],"min":[0],"type":"SCALAR"},{"bufferView":47,"componentType":5126,"count":2,"max":[2.625,3.4375,1.875],"min":[0.25,1.0625,-1.5625],"type":"VEC3"},{"bufferView":48,"componentType":5126,"count":2,"max":[0.3333333432674408],"min":[0],"type":"SCALAR"},{"bufferView":49,"componentType":5126,"count":2,"max":[-0.1875,0.5625,1.875],"min":[-2.5625,-1.8125,-1.5625],"type":"VEC3"},{"bufferView":50,"componentType":5126,"count":2,"max":[0.3333333432674408],"min":[0],"type":"SCALAR"},{"bufferView":51,"componentType":5126,"count":2,"max":[-0.125,3.25,1.875],"min":[-2.375,0.875,-1.5625],"type":"VEC3"},{"bufferView":52,"componentType":5126,"count":2,"max":[0.3333333432674408],"min":[0],"type":"SCALAR"},{"bufferView":53,"componentType":5126,"count":2,"max":[2.375,0.75,1.875],"min":[0.125,-1.625,-1.5625],"type":"VEC3"}],"materials":[{"pbrMetallicRoughness":{"metallicFactor":0,"roughnessFactor":1,"baseColorTexture":{"index":0}},"alphaMode":"MASK","alphaCutoff":0.05,"doubleSided":true}],"textures":[{"sampler":0,"source":0,"name":"thrust_gale_1.png"}],"samplers":[{"magFilter":9728,"minFilter":9728,"wrapS":33071,"wrapT":33071}],"images":[{"mimeType":"image/png","uri":"data:image/png;base64,"}],"meshes":[{"primitives":[{"mode":4,"attributes":{"POSITION":0,"NORMAL":1,"TEXCOORD_0":2},"indices":3,"material":0}]},{"primitives":[{"mode":4,"attributes":{"POSITION":4,"NORMAL":5,"TEXCOORD_0":6},"indices":7,"material":0}]},{"primitives":[{"mode":4,"attributes":{"POSITION":8,"NORMAL":9,"TEXCOORD_0":10},"indices":11,"material":0}]},{"primitives":[{"mode":4,"attributes":{"POSITION":12,"NORMAL":13,"TEXCOORD_0":14},"indices":15,"material":0}]}],"animations":[{"name":"skill","samplers":[{"input":16,"output":17,"interpolation":"LINEAR"},{"input":18,"output":19,"interpolation":"LINEAR"},{"input":20,"output":21,"interpolation":"LINEAR"},{"input":22,"output":23,"interpolation":"LINEAR"},{"input":24,"output":25,"interpolation":"LINEAR"},{"input":26,"output":27,"interpolation":"LINEAR"}],"channels":[{"sampler":0,"target":{"node":6,"path":"translation"}},{"sampler":1,"target":{"node":6,"path":"scale"}},{"sampler":2,"target":{"node":7,"path":"translation"}},{"sampler":3,"target":{"node":8,"path":"translation"}},{"sampler":4,"target":{"node":9,"path":"translation"}},{"sampler":5,"target":{"node":10,"path":"translation"}}]},{"name":"skill2","samplers":[{"input":28,"output":29,"interpolation":"LINEAR"},{"input":30,"output":31,"interpolation":"LINEAR"},{"input":32,"output":33,"interpolation":"LINEAR"},{"input":34,"output":35,"interpolation":"LINEAR"},{"input":36,"output":37,"interpolation":"LINEAR"},{"input":38,"output":39,"interpolation":"LINEAR"}],"channels":[{"sampler":0,"target":{"node":6,"path":"translation"}},{"sampler":1,"target":{"node":6,"path":"scale"}},{"sampler":2,"target":{"node":7,"path":"translation"}},{"sampler":3,"target":{"node":8,"path":"translation"}},{"sampler":4,"target":{"node":9,"path":"translation"}},{"sampler":5,"target":{"node":10,"path":"translation"}}]},{"name":"skill3","samplers":[{"input":40,"output":41,"interpolation":"LINEAR"},{"input":42,"output":43,"interpolation":"LINEAR"},{"input":44,"output":45,"interpolation":"LINEAR"},{"input":46,"output":47,"interpolation":"LINEAR"},{"input":48,"output":49,"interpolation":"LINEAR"},{"input":50,"output":51,"interpolation":"LINEAR"},{"input":52,"output":53,"interpolation":"LINEAR"}],"channels":[{"sampler":0,"target":{"node":6,"path":"rotation"}},{"sampler":1,"target":{"node":6,"path":"translation"}},{"sampler":2,"target":{"node":6,"path":"scale"}},{"sampler":3,"target":{"node":7,"path":"translation"}},{"sampler":4,"target":{"node":8,"path":"translation"}},{"sampler":5,"target":{"node":9,"path":"translation"}},{"sampler":6,"target":{"node":10,"path":"translation"}}]}]}