{"asset":{"version":"2.0","generator":"Blockbench 5.0.5 glTF exporter"},"scenes":[{"nodes":[5],"name":"blockbench_export"}],"scene":0,"nodes":[{"translation":[0,0,-1.25],"name":"point"},{"translation":[-0.5,0,-1.1875],"name":"point2"},{"translation":[-1.0625,0,-0.6875],"name":"point3"},{"translation":[0,0.001187500000000119,0],"name":"pointer","children":[0,1,2]},{"name":"cube","mesh":0},{"translation":[0,1.625,0],"name":"h_body","children":[3,4]}],"bufferViews":[{"buffer":0,"byteOffset":0,"byteLength":288,"target":34962,"byteStride":12},{"buffer":0,"byteOffset":288,"byteLength":288,"target":34962,"byteStride":12},{"buffer":0,"byteOffset":576,"byteLength":192,"target":34962,"byteStride":8},{"buffer":0,"byteOffset":768,"byteLength":72,"target":34963},{"buffer":0,"byteOffset":840,"byteLength":16},{"buffer":0,"byteOffset":856,"byteLength":64},{"buffer":0,"byteOffset":920,"byteLength":64},{"buffer":0,"byteOffset":984,"byteLength":256},{"buffer":0,"byteOffset":1240,"byteLength":4},{"buffer":0,"byteOffset":1244,"byteLength":12},{"buffer":0,"byteOffset":1256,"byteLength":4},{"buffer":0,"byteOffset":1260,"byteLength":12},{"buffer":0,"byteOffset":1272,"byteLength":4},{"buffer":0,"byteOffset":1276,"byteLength":16},{"buffer":0,"byteOffset":1292,"byteLength":4},{"buffer":0,"byteOffset":1296,"byteLength":12},{"buffer":0,"byteOffset":1308,"byteLength":4},{"buffer":0,"byteOffset":1312,"byteLength":12},{"buffer":0,"byteOffset":1324,"byteLength":4},{"buffer":0,"byteOffset":1328,"byteLength":16},{"buffer":0,"byteOffset":1344,"byteLength":4},{"buffer":0,"byteOffset":1348,"byteLength":12},{"buffer":0,"byteOffset":1360,"byteLength":4},{"buffer":0,"byteOffset":1364,"byteLength":12},{"buffer":0,"byteOffset":1376,"byteLength":4},{"buffer":0,"byteOffset":1380,"byteLength":16},{"buffer":0,"byteOffset":1396,"byteLength":4},{"buffer":0,"byteOffset":1400,"byteLength":12},{"buffer":0,"byteOffset":1412,"byteLength":4},{"buffer":0,"byteOffset":1416,"byteLength":12}],"buffers":[{"byteLength":1428,"uri":"data:application/octet-stream;base64,"}],"accessors":[{"bufferView":0,"componentType":5126,"count":24,"max":[1.5625,0.0000625000029685907,1.5625],"min":[-1.5625,0,-1.5625],"type":"VEC3"},{"bufferView":1,"componentType":5126,"count":24,"max":[1,1,1],"min":[-1,-1,-1],"type":"VEC3"},{"bufferView":2,"componentType":5126,"count":24,"max":[1,0.25],"min":[0,0],"type":"VEC2"},{"bufferView":3,"componentType":5123,"count":36,"max":[23],"min":[0],"type":"SCALAR"},{"bufferView":4,"componentType":5126,"count":4,"max":[0.1666666716337204],"min":[0],"type":"SCALAR"},{"bufferView":5,"componentType":5126,"count":4,"max":[0,0,0,1],"min":[0,-0.8660253882408142,0,-1],"type":"VEC4"},{"bufferView":6,"componentType":5126,"count":16,"max":[1],"min":[0],"type":"SCALAR"},{"bufferView":7,"componentType":5126,"count":16,"max":[0.04361938685178757,0.0007435105508193374,0.04361938685178757,0.9992564916610718],"min":[-0.04361938685178757,-0.0007435105508193374,-0.04361938685178757,0.9990482330322266],"type":"VEC4"},{"bufferView":8,"componentType":5126,"count":1,"max":[0],"min":[0],"type":"SCALAR"},{"bufferView":9,"componentType":5126,"count":1,"max":[0,2.5,0],"min":[0,2.5,0],"type":"VEC3"},{"bufferView":10,"componentType":5126,"count":1,"max":[0],"min":[0],"type":"SCALAR"},{"bufferView":11,"componentType":5126,"count":1,"max":[3.700000047683716,3.700000047683716,3.700000047683716],"min":[3.700000047683716,3.700000047683716,3.700000047683716],"type":"VEC3"},{"bufferView":12,"componentType":5126,"count":1,"max":[0],"min":[0],"type":"SCALAR"},{"bufferView":13,"componentType":5126,"count":1,"max":[0,0,-0.7071067690849304,0.7071067690849304],"min":[0,0,-0.7071067690849304,0.7071067690849304],"type":"VEC4"},{"bufferView":14,"componentType":5126,"count":1,"max":[0],"min":[0],"type":"SCALAR"},{"bufferView":15,"componentType":5126,"count":1,"max":[0,0.875,0],"min":[0,0.875,0],"type":"VEC3"},{"bufferView":16,"componentType":5126,"count":1,"max":[0],"min":[0],"type":"SCALAR"},{"bufferView":17,"componentType":5126,"count":1,"max":[3,3,3],"min":[3,3,3],"type":"VEC3"},{"bufferView":18,"componentType":5126,"count":1,"max":[0],"min":[0],"type":"SCALAR"},{"bufferView":19,"componentType":5126,"count":1,"max":[0,0,-0.44228869676589966,0.8968727588653564],"min":[0,0,-0.44228869676589966,0.8968727588653564],"type":"VEC4"},{"bufferView":20,"componentType":5126,"count":1,"max":[0],"min":[0],"type":"SCALAR"},{"bufferView":21,"componentType":5126,"count":1,"max":[0,0.875,0],"min":[0,0.875,0],"type":"VEC3"},{"bufferView":22,"componentType":5126,"count":1,"max":[0],"min":[0],"type":"SCALAR"},{"bufferView":23,"componentType":5126,"count":1,"max":[3,3,3],"min":[3,3,3],"type":"VEC3"},{"bufferView":24,"componentType":5126,"count":1,"max":[0],"min":[0],"type":"SCALAR"},{"bufferView":25,"componentType":5126,"count":1,"max":[0,0,0.44228869676589966,0.8968727588653564],"min":[0,0,0.44228869676589966,0.8968727588653564],"type":"VEC4"},{"bufferView":26,"componentType":5126,"count":1,"max":[0],"min":[0],"type":"SCALAR"},{"bufferView":27,"componentType":5126,"count":1,"max":[0,0.875,0],"min":[0,0.875,0],"type":"VEC3"},{"bufferView":28,"componentType":5126,"count":1,"max":[0],"min":[0],"type":"SCALAR"},{"bufferView":29,"componentType":5126,"count":1,"max":[3,3,3],"min":[3,3,3],"type":"VEC3"}],"materials":[{"pbrMetallicRoughness":{"metallicFactor":0,"roughnessFactor":1,"baseColorTexture":{"index":0}},"alphaMode":"MASK","alphaCutoff":0.05,"doubleSided":true}],"textures":[{"sampler":0,"source":0,"name":"spin_gale.png"}],"samplers":[{"magFilter":9728,"minFilter":9728,"wrapS":33071,"wrapT":33071}],"images":[{"mimeType":"image/png","uri":"data:image/png;base64,"}],"meshes":[{"primitives":[{"mode":4,"attributes":{"POSITION":0,"NORMAL":1,"TEXCOORD_0":2},"indices":3,"material":0}]}],"animations":[{"name":"idle","samplers":[{"input":4,"output":5,"interpolation":"LINEAR"}],"channels":[{"sampler":0,"target":{"node":3,"path":"rotation"}}]},{"name":"skill","samplers":[{"input":6,"output":7,"interpolation":"LINEAR"},{"input":8,"output":9,"interpolation":"LINEAR"},{"input":10,"output":11,"interpolation":"LINEAR"}],"channels":[{"sampler":0,"target":{"node":5,"path":"rotation"}},{"sampler":1,"target":{"node":5,"path":"translation"}},{"sampler":2,"target":{"node":5,"path":"scale"}}]},{"name":"up-down","samplers":[{"input":12,"output":13,"interpolation":"LINEAR"},{"input":14,"output":15,"interpolation":"LINEAR"},{"input":16,"output":17,"interpolation":"LINEAR"}],"channels":[{"sampler":0,"target":{"node":5,"path":"rotation"}},{"sampler":1,"target":{"node":5,"path":"translation"}},{"sampler":2,"target":{"node":5,"path":"scale"}}]},{"name":"diag-left","samplers":[{"input":18,"output":19,"interpolation":"LINEAR"},{"input":20,"output":21,"interpolation":"LINEAR"},{"input":22,"output":23,"interpolation":"LINEAR"}],"channels":[{"sampler":0,"target":{"node":5,"path":"rotation"}},{"sampler":1,"target":{"node":5,"path":"translation"}},{"sampler":2,"target":{"node":5,"path":"scale"}}]},{"name":"diag-right","samplers":[{"input":24,"output":25,"interpolation":"LINEAR"},{"input":26,"output":27,"interpolation":"LINEAR"},{"input":28,"output":29,"interpolation":"LINEAR"}],"channels":[{"sampler":0,"target":{"node":5,"path":"rotation"}},{"sampler":1,"target":{"node":5,"path":"translation"}},{"sampler":2,"target":{"node":5,"path":"scale"}}]}]}