{"asset":{"version":"2.0","generator":"Blockbench 5.0.5 glTF exporter"},"scenes":[{"nodes":[4],"name":"blockbench_export"}],"scene":0,"nodes":[{"name":"cube","mesh":0},{"translation":[0,-0.0625,0],"name":"h_bone","children":[0]},{"name":"cube","mesh":1},{"translation":[0,-0.0625,0],"name":"h_bone2","children":[2]},{"translation":[0,1,0],"name":"h_body","children":[1,3]}],"bufferViews":[{"buffer":0,"byteOffset":0,"byteLength":288,"target":34962,"byteStride":12},{"buffer":0,"byteOffset":288,"byteLength":288,"target":34962,"byteStride":12},{"buffer":0,"byteOffset":576,"byteLength":192,"target":34962,"byteStride":8},{"buffer":0,"byteOffset":768,"byteLength":72,"target":34963},{"buffer":0,"byteOffset":840,"byteLength":288,"target":34962,"byteStride":12},{"buffer":0,"byteOffset":1128,"byteLength":288,"target":34962,"byteStride":12},{"buffer":0,"byteOffset":1416,"byteLength":192,"target":34962,"byteStride":8},{"buffer":0,"byteOffset":1608,"byteLength":72,"target":34963},{"buffer":0,"byteOffset":1680,"byteLength":4},{"buffer":0,"byteOffset":1684,"byteLength":16},{"buffer":0,"byteOffset":1700,"byteLength":32},{"buffer":0,"byteOffset":1732,"byteLength":96},{"buffer":0,"byteOffset":1828,"byteLength":4},{"buffer":0,"byteOffset":1832,"byteLength":16},{"buffer":0,"byteOffset":1848,"byteLength":44},{"buffer":0,"byteOffset":1892,"byteLength":132}],"buffers":[{"byteLength":2024,"uri":"data:application/octet-stream;base64,"}],"accessors":[{"bufferView":0,"componentType":5126,"count":24,"max":[0.25,0.4375,0.0000625000029685907],"min":[-0.25,-0.4375,0],"type":"VEC3"},{"bufferView":1,"componentType":5126,"count":24,"max":[1,1,1],"min":[-1,-1,-1],"type":"VEC3"},{"bufferView":2,"componentType":5126,"count":24,"max":[0.59375,0.90625],"min":[0,0],"type":"VEC2"},{"bufferView":3,"componentType":5123,"count":36,"max":[23],"min":[0],"type":"SCALAR"},{"bufferView":4,"componentType":5126,"count":24,"max":[0.25,0.4375,0.0000625000029685907],"min":[-0.25,-0.4375,0],"type":"VEC3"},{"bufferView":5,"componentType":5126,"count":24,"max":[1,1,1],"min":[-1,-1,-1],"type":"VEC3"},{"bufferView":6,"componentType":5126,"count":24,"max":[0.59375,0.90625],"min":[0,0],"type":"VEC2"},{"bufferView":7,"componentType":5123,"count":36,"max":[23],"min":[0],"type":"SCALAR"},{"bufferView":8,"componentType":5126,"count":1,"max":[0],"min":[0],"type":"SCALAR"},{"bufferView":9,"componentType":5126,"count":1,"max":[-0.12975038588047028,-0.01420997828245163,0.5143350958824158,0.8475979566574097],"min":[-0.12975038588047028,-0.01420997828245163,0.5143350958824158,0.8475979566574097],"type":"VEC4"},{"bufferView":10,"componentType":5126,"count":8,"max":[0.4583333432674408],"min":[0],"type":"SCALAR"},{"bufferView":11,"componentType":5126,"count":8,"max":[1.2999999523162842,4.900000095367432,1],"min":[0,1,1],"type":"VEC3"},{"bufferView":12,"componentType":5126,"count":1,"max":[0],"min":[0],"type":"SCALAR"},{"bufferView":13,"componentType":5126,"count":1,"max":[0.19271868467330933,-0.1860756278038025,-0.25630322098731995,0.9287325143814087],"min":[0.19271868467330933,-0.1860756278038025,-0.25630322098731995,0.9287325143814087],"type":"VEC4"},{"bufferView":14,"componentType":5126,"count":11,"max":[0.5416666865348816],"min":[0],"type":"SCALAR"},{"bufferView":15,"componentType":5126,"count":11,"max":[1.2999999523162842,4.900000095367432,1],"min":[0,1,1],"type":"VEC3"}],"materials":[{"pbrMetallicRoughness":{"metallicFactor":0,"roughnessFactor":1,"baseColorTexture":{"index":0}},"alphaMode":"MASK","alphaCutoff":0.05,"doubleSided":true}],"textures":[{"sampler":0,"source":0,"name":"vfx_gale_impact_line"}],"samplers":[{"magFilter":9728,"minFilter":9728,"wrapS":33071,"wrapT":33071}],"images":[{"mimeType":"image/png","uri":"data:image/png;base64,"}],"meshes":[{"primitives":[{"mode":4,"attributes":{"POSITION":0,"NORMAL":1,"TEXCOORD_0":2},"indices":3,"material":0}]},{"primitives":[{"mode":4,"attributes":{"POSITION":4,"NORMAL":5,"TEXCOORD_0":6},"indices":7,"material":0}]}],"animations":[{"name":"impact","samplers":[{"input":8,"output":9,"interpolation":"LINEAR"},{"input":10,"output":11,"interpolation":"LINEAR"},{"input":12,"output":13,"interpolation":"LINEAR"},{"input":14,"output":15,"interpolation":"LINEAR"}],"channels":[{"sampler":0,"target":{"node":1,"path":"rotation"}},{"sampler":1,"target":{"node":1,"path":"scale"}},{"sampler":2,"target":{"node":3,"path":"rotation"}},{"sampler":3,"target":{"node":3,"path":"scale"}}]}]}