{"asset":{"version":"2.0","generator":"Blockbench 5.0.5 glTF exporter"},"scenes":[{"nodes":[6],"name":"blockbench_export"}],"scene":0,"nodes":[{"translation":[0,0,-1.8125],"name":"point"},{"translation":[-0.5,0,-1.75],"name":"point2"},{"translation":[-1.0625,0,-1.5],"name":"point3"},{"translation":[0,0,-0.0625],"name":"pointer","children":[0,1,2]},{"name":"cube","mesh":0},{"name":"h_body","children":[3,4]},{"translation":[0,1.0636875000000001,0],"name":"h_bone","children":[5]}],"bufferViews":[{"buffer":0,"byteOffset":0,"byteLength":288,"target":34962,"byteStride":12},{"buffer":0,"byteOffset":288,"byteLength":288,"target":34962,"byteStride":12},{"buffer":0,"byteOffset":576,"byteLength":192,"target":34962,"byteStride":8},{"buffer":0,"byteOffset":768,"byteLength":72,"target":34963},{"buffer":0,"byteOffset":840,"byteLength":4},{"buffer":0,"byteOffset":844,"byteLength":16},{"buffer":0,"byteOffset":860,"byteLength":4},{"buffer":0,"byteOffset":864,"byteLength":12},{"buffer":0,"byteOffset":876,"byteLength":12},{"buffer":0,"byteOffset":888,"byteLength":48},{"buffer":0,"byteOffset":936,"byteLength":12},{"buffer":0,"byteOffset":948,"byteLength":48},{"buffer":0,"byteOffset":996,"byteLength":4},{"buffer":0,"byteOffset":1000,"byteLength":16},{"buffer":0,"byteOffset":1016,"byteLength":4},{"buffer":0,"byteOffset":1020,"byteLength":12},{"buffer":0,"byteOffset":1032,"byteLength":12},{"buffer":0,"byteOffset":1044,"byteLength":48},{"buffer":0,"byteOffset":1092,"byteLength":12},{"buffer":0,"byteOffset":1104,"byteLength":48},{"buffer":0,"byteOffset":1152,"byteLength":4},{"buffer":0,"byteOffset":1156,"byteLength":16},{"buffer":0,"byteOffset":1172,"byteLength":4},{"buffer":0,"byteOffset":1176,"byteLength":12},{"buffer":0,"byteOffset":1188,"byteLength":12},{"buffer":0,"byteOffset":1200,"byteLength":48},{"buffer":0,"byteOffset":1248,"byteLength":12},{"buffer":0,"byteOffset":1260,"byteLength":48},{"buffer":0,"byteOffset":1308,"byteLength":4},{"buffer":0,"byteOffset":1312,"byteLength":16},{"buffer":0,"byteOffset":1328,"byteLength":4},{"buffer":0,"byteOffset":1332,"byteLength":12},{"buffer":0,"byteOffset":1344,"byteLength":12},{"buffer":0,"byteOffset":1356,"byteLength":48},{"buffer":0,"byteOffset":1404,"byteLength":12},{"buffer":0,"byteOffset":1416,"byteLength":48},{"buffer":0,"byteOffset":1464,"byteLength":4},{"buffer":0,"byteOffset":1468,"byteLength":16},{"buffer":0,"byteOffset":1484,"byteLength":4},{"buffer":0,"byteOffset":1488,"byteLength":12},{"buffer":0,"byteOffset":1500,"byteLength":12},{"buffer":0,"byteOffset":1512,"byteLength":48},{"buffer":0,"byteOffset":1560,"byteLength":12},{"buffer":0,"byteOffset":1572,"byteLength":48},{"buffer":0,"byteOffset":1620,"byteLength":4},{"buffer":0,"byteOffset":1624,"byteLength":16},{"buffer":0,"byteOffset":1640,"byteLength":4},{"buffer":0,"byteOffset":1644,"byteLength":12},{"buffer":0,"byteOffset":1656,"byteLength":12},{"buffer":0,"byteOffset":1668,"byteLength":48},{"buffer":0,"byteOffset":1716,"byteLength":12},{"buffer":0,"byteOffset":1728,"byteLength":48},{"buffer":0,"byteOffset":1776,"byteLength":4},{"buffer":0,"byteOffset":1780,"byteLength":16},{"buffer":0,"byteOffset":1796,"byteLength":4},{"buffer":0,"byteOffset":1800,"byteLength":12},{"buffer":0,"byteOffset":1812,"byteLength":12},{"buffer":0,"byteOffset":1824,"byteLength":48},{"buffer":0,"byteOffset":1872,"byteLength":12},{"buffer":0,"byteOffset":1884,"byteLength":48},{"buffer":0,"byteOffset":1932,"byteLength":4},{"buffer":0,"byteOffset":1936,"byteLength":12},{"buffer":0,"byteOffset":1948,"byteLength":4},{"buffer":0,"byteOffset":1952,"byteLength":16},{"buffer":0,"byteOffset":1968,"byteLength":4},{"buffer":0,"byteOffset":1972,"byteLength":12},{"buffer":0,"byteOffset":1984,"byteLength":12},{"buffer":0,"byteOffset":1996,"byteLength":48},{"buffer":0,"byteOffset":2044,"byteLength":12},{"buffer":0,"byteOffset":2056,"byteLength":48},{"buffer":0,"byteOffset":2104,"byteLength":4},{"buffer":0,"byteOffset":2108,"byteLength":12}],"buffers":[{"byteLength":2120,"uri":"data:application/octet-stream;base64,"}],"accessors":[{"bufferView":0,"componentType":5126,"count":24,"max":[2.21875,0.0000625000029685907,2.21875],"min":[-2.21875,0,-2.21875],"type":"VEC3"},{"bufferView":1,"componentType":5126,"count":24,"max":[1,1,1],"min":[-1,-1,-1],"type":"VEC3"},{"bufferView":2,"componentType":5126,"count":24,"max":[1,1],"min":[0,0],"type":"VEC2"},{"bufferView":3,"componentType":5123,"count":36,"max":[23],"min":[0],"type":"SCALAR"},{"bufferView":4,"componentType":5126,"count":1,"max":[0],"min":[0],"type":"SCALAR"},{"bufferView":5,"componentType":5126,"count":1,"max":[-0.025049632415175438,0.1800624430179596,-0.02531166933476925,0.9830103516578674],"min":[-0.025049632415175438,0.1800624430179596,-0.02531166933476925,0.9830103516578674],"type":"VEC4"},{"bufferView":6,"componentType":5126,"count":1,"max":[0],"min":[0],"type":"SCALAR"},{"bufferView":7,"componentType":5126,"count":1,"max":[1.5,1.5,1.5],"min":[1.5,1.5,1.5],"type":"VEC3"},{"bufferView":8,"componentType":5126,"count":3,"max":[0.4166666567325592],"min":[0],"type":"SCALAR"},{"bufferView":9,"componentType":5126,"count":3,"max":[0,0.6755902171134949,0,0.9978589415550232],"min":[0,-0.7660444378852844,0,0.6427876353263855],"type":"VEC4"},{"bufferView":10,"componentType":5126,"count":3,"max":[0.5833333134651184],"min":[0],"type":"SCALAR"},{"bufferView":11,"componentType":5126,"count":3,"max":[0,0,0,1],"min":[0,-0.3420201539993286,0,0.9396926164627075],"type":"VEC4"},{"bufferView":12,"componentType":5126,"count":1,"max":[0],"min":[0],"type":"SCALAR"},{"bufferView":13,"componentType":5126,"count":1,"max":[-0.1746043711900711,0.026090627536177635,0.9838460683822632,-0.02965623140335083],"min":[-0.1746043711900711,0.026090627536177635,0.9838460683822632,-0.02965623140335083],"type":"VEC4"},{"bufferView":14,"componentType":5126,"count":1,"max":[0],"min":[0],"type":"SCALAR"},{"bufferView":15,"componentType":5126,"count":1,"max":[1.5,1.5,1.5],"min":[1.5,1.5,1.5],"type":"VEC3"},{"bufferView":16,"componentType":5126,"count":3,"max":[0.4166666567325592],"min":[0],"type":"SCALAR"},{"bufferView":17,"componentType":5126,"count":3,"max":[0,0.5,0,0.9630451202392578],"min":[0,-0.8767267465591431,0,0.4809887707233429],"type":"VEC4"},{"bufferView":18,"componentType":5126,"count":3,"max":[0.5833333134651184],"min":[0],"type":"SCALAR"},{"bufferView":19,"componentType":5126,"count":3,"max":[0,0.3420201539993286,0,1],"min":[0,0,0,0.9396926164627075],"type":"VEC4"},{"bufferView":20,"componentType":5126,"count":1,"max":[0],"min":[0],"type":"SCALAR"},{"bufferView":21,"componentType":5126,"count":1,"max":[-0.4923678934574127,-0.49885380268096924,0.5034772157669067,-0.5052024126052856],"min":[-0.4923678934574127,-0.49885380268096924,0.5034772157669067,-0.5052024126052856],"type":"VEC4"},{"bufferView":22,"componentType":5126,"count":1,"max":[0],"min":[0],"type":"SCALAR"},{"bufferView":23,"componentType":5126,"count":1,"max":[1.5,1.5,1.5],"min":[1.5,1.5,1.5],"type":"VEC3"},{"bufferView":24,"componentType":5126,"count":3,"max":[0.4166666567325592],"min":[0],"type":"SCALAR"},{"bufferView":25,"componentType":5126,"count":3,"max":[0,0.7071067690849304,0,0.989962100982666],"min":[0,-0.8767267465591431,0,0.4809887707233429],"type":"VEC4"},{"bufferView":26,"componentType":5126,"count":3,"max":[0.5833333134651184],"min":[0],"type":"SCALAR"},{"bufferView":27,"componentType":5126,"count":3,"max":[0,0,0,1],"min":[-0.3420201539993286,0,0,0.9396926164627075],"type":"VEC4"},{"bufferView":28,"componentType":5126,"count":1,"max":[0],"min":[0],"type":"SCALAR"},{"bufferView":29,"componentType":5126,"count":1,"max":[-0.07768596708774567,0.08235874027013779,-0.6996205449104309,-0.7054877877235413],"min":[-0.07768596708774567,0.08235874027013779,-0.6996205449104309,-0.7054877877235413],"type":"VEC4"},{"bufferView":30,"componentType":5126,"count":1,"max":[0],"min":[0],"type":"SCALAR"},{"bufferView":31,"componentType":5126,"count":1,"max":[1.5,1.5,1.5],"min":[1.5,1.5,1.5],"type":"VEC3"},{"bufferView":32,"componentType":5126,"count":3,"max":[0.4166666567325592],"min":[0],"type":"SCALAR"},{"bufferView":33,"componentType":5126,"count":3,"max":[0,0.5,0,0.9630451202392578],"min":[0,-0.8767267465591431,0,0.4809887707233429],"type":"VEC4"},{"bufferView":34,"componentType":5126,"count":3,"max":[0.5833333134651184],"min":[0],"type":"SCALAR"},{"bufferView":35,"componentType":5126,"count":3,"max":[0.3420201539993286,0,0,1],"min":[0,0,0,0.9396926164627075],"type":"VEC4"},{"bufferView":36,"componentType":5126,"count":1,"max":[0],"min":[0],"type":"SCALAR"},{"bufferView":37,"componentType":5126,"count":1,"max":[0.09307510405778885,0.35032641887664795,-0.2532859742641449,0.8969139456748962],"min":[0.09307510405778885,0.35032641887664795,-0.2532859742641449,0.8969139456748962],"type":"VEC4"},{"bufferView":38,"componentType":5126,"count":1,"max":[0],"min":[0],"type":"SCALAR"},{"bufferView":39,"componentType":5126,"count":1,"max":[1.5,1.5,1.5],"min":[1.5,1.5,1.5],"type":"VEC3"},{"bufferView":40,"componentType":5126,"count":3,"max":[0.4166666567325592],"min":[0],"type":"SCALAR"},{"bufferView":41,"componentType":5126,"count":3,"max":[0,0.5,0,0.9630451202392578],"min":[0,-0.8767267465591431,0,0.4809887707233429],"type":"VEC4"},{"bufferView":42,"componentType":5126,"count":3,"max":[0.5833333134651184],"min":[0],"type":"SCALAR"},{"bufferView":43,"componentType":5126,"count":3,"max":[0,0.06540312618017197,0.09626821428537369,0.9978589415550232],"min":[-0.13987033069133759,-0.29992011189460754,0,0.9387314319610596],"type":"VEC4"},{"bufferView":44,"componentType":5126,"count":1,"max":[0],"min":[0],"type":"SCALAR"},{"bufferView":45,"componentType":5126,"count":1,"max":[-0.27751317620277405,-0.11730419099330902,0.9243398904800415,-0.23414085805416107],"min":[-0.27751317620277405,-0.11730419099330902,0.9243398904800415,-0.23414085805416107],"type":"VEC4"},{"bufferView":46,"componentType":5126,"count":1,"max":[0],"min":[0],"type":"SCALAR"},{"bufferView":47,"componentType":5126,"count":1,"max":[1.5,1.5,1.5],"min":[1.5,1.5,1.5],"type":"VEC3"},{"bufferView":48,"componentType":5126,"count":3,"max":[0.4166666567325592],"min":[0],"type":"SCALAR"},{"bufferView":49,"componentType":5126,"count":3,"max":[0,0.5,0,0.9630451202392578],"min":[0,-0.8767267465591431,0,0.4809887707233429],"type":"VEC4"},{"bufferView":50,"componentType":5126,"count":3,"max":[0.5833333134651184],"min":[0],"type":"SCALAR"},{"bufferView":51,"componentType":5126,"count":3,"max":[0,0.33838504552841187,0,1],"min":[-0.11150230467319489,0,-0.03291197866201401,0.9337984919548035],"type":"VEC4"},{"bufferView":52,"componentType":5126,"count":1,"max":[0],"min":[0],"type":"SCALAR"},{"bufferView":53,"componentType":5126,"count":1,"max":[0.09307510405778885,0.35032641887664795,-0.2532859742641449,0.8969139456748962],"min":[0.09307510405778885,0.35032641887664795,-0.2532859742641449,0.8969139456748962],"type":"VEC4"},{"bufferView":54,"componentType":5126,"count":1,"max":[0],"min":[0],"type":"SCALAR"},{"bufferView":55,"componentType":5126,"count":1,"max":[1.5,1.5,1.5],"min":[1.5,1.5,1.5],"type":"VEC3"},{"bufferView":56,"componentType":5126,"count":3,"max":[0.4166666567325592],"min":[0],"type":"SCALAR"},{"bufferView":57,"componentType":5126,"count":3,"max":[0,0.5,0,0.9630451202392578],"min":[0,-0.8767267465591431,0,0.4809887707233429],"type":"VEC4"},{"bufferView":58,"componentType":5126,"count":3,"max":[0.5833333134651184],"min":[0],"type":"SCALAR"},{"bufferView":59,"componentType":5126,"count":3,"max":[0,0.06540312618017197,0.09626821428537369,0.9978589415550232],"min":[-0.13987033069133759,-0.29992011189460754,0,0.9387314319610596],"type":"VEC4"},{"bufferView":60,"componentType":5126,"count":1,"max":[0],"min":[0],"type":"SCALAR"},{"bufferView":61,"componentType":5126,"count":1,"max":[1.600000023841858,1.600000023841858,1.600000023841858],"min":[1.600000023841858,1.600000023841858,1.600000023841858],"type":"VEC3"},{"bufferView":62,"componentType":5126,"count":1,"max":[0],"min":[0],"type":"SCALAR"},{"bufferView":63,"componentType":5126,"count":1,"max":[-0.27751317620277405,-0.11730419099330902,0.9243398904800415,-0.23414085805416107],"min":[-0.27751317620277405,-0.11730419099330902,0.9243398904800415,-0.23414085805416107],"type":"VEC4"},{"bufferView":64,"componentType":5126,"count":1,"max":[0],"min":[0],"type":"SCALAR"},{"bufferView":65,"componentType":5126,"count":1,"max":[1.5,1.5,1.5],"min":[1.5,1.5,1.5],"type":"VEC3"},{"bufferView":66,"componentType":5126,"count":3,"max":[0.4166666567325592],"min":[0],"type":"SCALAR"},{"bufferView":67,"componentType":5126,"count":3,"max":[0,0.5,0,0.9630451202392578],"min":[0,-0.8767267465591431,0,0.4809887707233429],"type":"VEC4"},{"bufferView":68,"componentType":5126,"count":3,"max":[0.5833333134651184],"min":[0],"type":"SCALAR"},{"bufferView":69,"componentType":5126,"count":3,"max":[0,0.33838504552841187,0,1],"min":[-0.11150230467319489,0,-0.03291197866201401,0.9337984919548035],"type":"VEC4"},{"bufferView":70,"componentType":5126,"count":1,"max":[0],"min":[0],"type":"SCALAR"},{"bufferView":71,"componentType":5126,"count":1,"max":[1.600000023841858,1.600000023841858,1.600000023841858],"min":[1.600000023841858,1.600000023841858,1.600000023841858],"type":"VEC3"}],"materials":[{"pbrMetallicRoughness":{"metallicFactor":0,"roughnessFactor":1,"baseColorTexture":{"index":0}},"alphaMode":"MASK","alphaCutoff":0.05,"doubleSided":true}],"textures":[{"sampler":0,"source":0,"name":"slash_gale_3.png"}],"samplers":[{"magFilter":9728,"minFilter":9728,"wrapS":33071,"wrapT":33071}],"images":[{"mimeType":"image/png","uri":"data:image/png;base64,"}],"meshes":[{"primitives":[{"mode":4,"attributes":{"POSITION":0,"NORMAL":1,"TEXCOORD_0":2},"indices":3,"material":0}]}],"animations":[{"name":"left-right-horiz","samplers":[{"input":4,"output":5,"interpolation":"LINEAR"},{"input":6,"output":7,"interpolation":"LINEAR"},{"input":8,"output":9,"interpolation":"LINEAR"},{"input":10,"output":11,"interpolation":"LINEAR"}],"channels":[{"sampler":0,"target":{"node":5,"path":"rotation"}},{"sampler":1,"target":{"node":5,"path":"scale"}},{"sampler":2,"target":{"node":3,"path":"rotation"}},{"sampler":3,"target":{"node":6,"path":"rotation"}}]},{"name":"right-left-horiz","samplers":[{"input":12,"output":13,"interpolation":"LINEAR"},{"input":14,"output":15,"interpolation":"LINEAR"},{"input":16,"output":17,"interpolation":"LINEAR"},{"input":18,"output":19,"interpolation":"LINEAR"}],"channels":[{"sampler":0,"target":{"node":5,"path":"rotation"}},{"sampler":1,"target":{"node":5,"path":"scale"}},{"sampler":2,"target":{"node":3,"path":"rotation"}},{"sampler":3,"target":{"node":6,"path":"rotation"}}]},{"name":"up-down-vert","samplers":[{"input":20,"output":21,"interpolation":"LINEAR"},{"input":22,"output":23,"interpolation":"LINEAR"},{"input":24,"output":25,"interpolation":"LINEAR"},{"input":26,"output":27,"interpolation":"LINEAR"}],"channels":[{"sampler":0,"target":{"node":5,"path":"rotation"}},{"sampler":1,"target":{"node":5,"path":"scale"}},{"sampler":2,"target":{"node":3,"path":"rotation"}},{"sampler":3,"target":{"node":6,"path":"rotation"}}]},{"name":"down-up-vert","samplers":[{"input":28,"output":29,"interpolation":"LINEAR"},{"input":30,"output":31,"interpolation":"LINEAR"},{"input":32,"output":33,"interpolation":"LINEAR"},{"input":34,"output":35,"interpolation":"LINEAR"}],"channels":[{"sampler":0,"target":{"node":5,"path":"rotation"}},{"sampler":1,"target":{"node":5,"path":"scale"}},{"sampler":2,"target":{"node":3,"path":"rotation"}},{"sampler":3,"target":{"node":6,"path":"rotation"}}]},{"name":"left-right-diag","samplers":[{"input":36,"output":37,"interpolation":"LINEAR"},{"input":38,"output":39,"interpolation":"LINEAR"},{"input":40,"output":41,"interpolation":"LINEAR"},{"input":42,"output":43,"interpolation":"LINEAR"}],"channels":[{"sampler":0,"target":{"node":5,"path":"rotation"}},{"sampler":1,"target":{"node":5,"path":"scale"}},{"sampler":2,"target":{"node":3,"path":"rotation"}},{"sampler":3,"target":{"node":6,"path":"rotation"}}]},{"name":"right-left-diag","samplers":[{"input":44,"output":45,"interpolation":"LINEAR"},{"input":46,"output":47,"interpolation":"LINEAR"},{"input":48,"output":49,"interpolation":"LINEAR"},{"input":50,"output":51,"interpolation":"LINEAR"}],"channels":[{"sampler":0,"target":{"node":5,"path":"rotation"}},{"sampler":1,"target":{"node":5,"path":"scale"}},{"sampler":2,"target":{"node":3,"path":"rotation"}},{"sampler":3,"target":{"node":6,"path":"rotation"}}]},{"name":"bigslash1","samplers":[{"input":52,"output":53,"interpolation":"LINEAR"},{"input":54,"output":55,"interpolation":"LINEAR"},{"input":56,"output":57,"interpolation":"LINEAR"},{"input":58,"output":59,"interpolation":"LINEAR"},{"input":60,"output":61,"interpolation":"LINEAR"}],"channels":[{"sampler":0,"target":{"node":5,"path":"rotation"}},{"sampler":1,"target":{"node":5,"path":"scale"}},{"sampler":2,"target":{"node":3,"path":"rotation"}},{"sampler":3,"target":{"node":6,"path":"rotation"}},{"sampler":4,"target":{"node":6,"path":"scale"}}]},{"name":"bigslash2","samplers":[{"input":62,"output":63,"interpolation":"LINEAR"},{"input":64,"output":65,"interpolation":"LINEAR"},{"input":66,"output":67,"interpolation":"LINEAR"},{"input":68,"output":69,"interpolation":"LINEAR"},{"input":70,"output":71,"interpolation":"LINEAR"}],"channels":[{"sampler":0,"target":{"node":5,"path":"rotation"}},{"sampler":1,"target":{"node":5,"path":"scale"}},{"sampler":2,"target":{"node":3,"path":"rotation"}},{"sampler":3,"target":{"node":6,"path":"rotation"}},{"sampler":4,"target":{"node":6,"path":"scale"}}]}]}