{"asset":{"version":"2.0","generator":"Blockbench 5.0.5 glTF exporter"},"scenes":[{"nodes":[5,7],"name":"blockbench_export"}],"scene":0,"nodes":[{"translation":[-6.66133814775094e-17,0,-0.008482946040721195],"name":"cube","mesh":0},{"rotation":[0,0.19509032201612825,0,0.9807852804032304],"translation":[-0.9368211604498793,-0.002453124999999723,0.04224128100626823],"name":"cube","mesh":1},{"rotation":[0,0.3826834323650898,0,0.9238795325112867],"translation":[-0.9368211604498793,0,0.04224128100626823],"name":"cube","mesh":2},{"rotation":[0,-0.19509032201612825,0,0.9807852804032304],"translation":[0.936821160449879,-0.002453124999999723,0.04224128100626823],"name":"cube","mesh":3},{"rotation":[0,-0.3826834323650898,0,0.9238795325112867],"translation":[0.936821160449879,0,0.04224128100626823],"name":"cube","mesh":4},{"translation":[6.66133814775094e-17,1.25,-1.3611289018948587],"name":"h_body","children":[0,1,2,3,4]},{"translation":[0.125,-0.0625,0.125],"name":"cube","mesh":5},{"translation":[0.0078125,1.3078124999999998,-1.5578125],"name":"ob_shield","children":[6]}],"bufferViews":[{"buffer":0,"byteOffset":0,"byteLength":288,"target":34962,"byteStride":12},{"buffer":0,"byteOffset":288,"byteLength":288,"target":34962,"byteStride":12},{"buffer":0,"byteOffset":576,"byteLength":192,"target":34962,"byteStride":8},{"buffer":0,"byteOffset":768,"byteLength":72,"target":34963},{"buffer":0,"byteOffset":840,"byteLength":288,"target":34962,"byteStride":12},{"buffer":0,"byteOffset":1128,"byteLength":288,"target":34962,"byteStride":12},{"buffer":0,"byteOffset":1416,"byteLength":192,"target":34962,"byteStride":8},{"buffer":0,"byteOffset":1608,"byteLength":72,"target":34963},{"buffer":0,"byteOffset":1680,"byteLength":288,"target":34962,"byteStride":12},{"buffer":0,"byteOffset":1968,"byteLength":288,"target":34962,"byteStride":12},{"buffer":0,"byteOffset":2256,"byteLength":192,"target":34962,"byteStride":8},{"buffer":0,"byteOffset":2448,"byteLength":72,"target":34963},{"buffer":0,"byteOffset":2520,"byteLength":288,"target":34962,"byteStride":12},{"buffer":0,"byteOffset":2808,"byteLength":288,"target":34962,"byteStride":12},{"buffer":0,"byteOffset":3096,"byteLength":192,"target":34962,"byteStride":8},{"buffer":0,"byteOffset":3288,"byteLength":72,"target":34963},{"buffer":0,"byteOffset":3360,"byteLength":288,"target":34962,"byteStride":12},{"buffer":0,"byteOffset":3648,"byteLength":288,"target":34962,"byteStride":12},{"buffer":0,"byteOffset":3936,"byteLength":192,"target":34962,"byteStride":8},{"buffer":0,"byteOffset":4128,"byteLength":72,"target":34963},{"buffer":0,"byteOffset":4200,"byteLength":288,"target":34962,"byteStride":12},{"buffer":0,"byteOffset":4488,"byteLength":288,"target":34962,"byteStride":12},{"buffer":0,"byteOffset":4776,"byteLength":192,"target":34962,"byteStride":8},{"buffer":0,"byteOffset":4968,"byteLength":156},{"buffer":0,"byteOffset":5124,"byteLength":468},{"buffer":0,"byteOffset":5592,"byteLength":4},{"buffer":0,"byteOffset":5596,"byteLength":12}],"buffers":[{"byteLength":5608,"uri":"data:application/octet-stream;base64,"}],"accessors":[{"bufferView":0,"componentType":5126,"count":24,"max":[0.5396875143051147,1.0793750286102295,-0.013294678181409836],"min":[-0.5396875143051147,-1.0793750286102295,-0.30766966938972473],"type":"VEC3"},{"bufferView":1,"componentType":5126,"count":24,"max":[1,1,1],"min":[-1,-1,-1],"type":"VEC3"},{"bufferView":2,"componentType":5126,"count":24,"max":[0.3515625,0.53125],"min":[0,0],"type":"VEC2"},{"bufferView":3,"componentType":5123,"count":36,"max":[23],"min":[0],"type":"SCALAR"},{"bufferView":4,"componentType":5126,"count":24,"max":[0.5040550827980042,1.0842812061309814,0.11523868143558502],"min":[-0.08469492942094803,-1.0793750286102295,-0.17913632094860077],"type":"VEC3"},{"bufferView":5,"componentType":5126,"count":24,"max":[1,1,1],"min":[-1,-1,-1],"type":"VEC3"},{"bufferView":6,"componentType":5126,"count":24,"max":[0.40625,0.53125],"min":[0.03125,0],"type":"VEC2"},{"bufferView":7,"componentType":5123,"count":36,"max":[23],"min":[0],"type":"SCALAR"},{"bufferView":8,"componentType":5126,"count":24,"max":[-0.009695409797132015,1.0793750286102295,0.09646327048540115],"min":[-0.40219542384147644,-1.0793750286102295,-0.19791172444820404],"type":"VEC3"},{"bufferView":9,"componentType":5126,"count":24,"max":[1,1,1],"min":[-1,-1,-1],"type":"VEC3"},{"bufferView":10,"componentType":5126,"count":24,"max":[0.359375,0.53125],"min":[0.0625,0],"type":"VEC2"},{"bufferView":11,"componentType":5123,"count":36,"max":[23],"min":[0],"type":"SCALAR"},{"bufferView":12,"componentType":5126,"count":24,"max":[0.08469492942094803,1.0842812061309814,0.11523868143558502],"min":[-0.5040550827980042,-1.0793750286102295,-0.17913632094860077],"type":"VEC3"},{"bufferView":13,"componentType":5126,"count":24,"max":[1,1,1],"min":[-1,-1,-1],"type":"VEC3"},{"bufferView":14,"componentType":5126,"count":24,"max":[0.40625,0.53125],"min":[0.03125,0],"type":"VEC2"},{"bufferView":15,"componentType":5123,"count":36,"max":[23],"min":[0],"type":"SCALAR"},{"bufferView":16,"componentType":5126,"count":24,"max":[0.40219542384147644,1.0793750286102295,0.09646327048540115],"min":[0.009695409797132015,-1.0793750286102295,-0.19791172444820404],"type":"VEC3"},{"bufferView":17,"componentType":5126,"count":24,"max":[1,1,1],"min":[-1,-1,-1],"type":"VEC3"},{"bufferView":18,"componentType":5126,"count":24,"max":[0.359375,0.53125],"min":[0.0625,0],"type":"VEC2"},{"bufferView":19,"componentType":5123,"count":36,"max":[23],"min":[0],"type":"SCALAR"},{"bufferView":20,"componentType":5126,"count":24,"max":[-0.1249374970793724,0.0625625029206276,-0.1249374970793724],"min":[-0.125,0.0625,-0.125],"type":"VEC3"},{"bufferView":21,"componentType":5126,"count":24,"max":[1,1,1],"min":[-1,-1,-1],"type":"VEC3"},{"bufferView":22,"componentType":5126,"count":24,"max":[1,1],"min":[0,0],"type":"VEC2"},{"bufferView":23,"componentType":5126,"count":39,"max":[2],"min":[0],"type":"SCALAR"},{"bufferView":24,"componentType":5126,"count":39,"max":[6.661338412448735e-17,2,-1.6736289262771606],"min":[6.661338412448735e-17,1.875,-1.6736289262771606],"type":"VEC3"},{"bufferView":25,"componentType":5126,"count":1,"max":[0],"min":[0],"type":"SCALAR"},{"bufferView":26,"componentType":5126,"count":1,"max":[1.7000000476837158,1.7000000476837158,1.7000000476837158],"min":[1.7000000476837158,1.7000000476837158,1.7000000476837158],"type":"VEC3"}],"materials":[{"pbrMetallicRoughness":{"metallicFactor":0,"roughnessFactor":1,"baseColorTexture":{"index":0}},"alphaMode":"MASK","alphaCutoff":0.05,"doubleSided":true},{"pbrMetallicRoughness":{"metallicFactor":0,"roughnessFactor":1,"baseColorTexture":{"index":1}},"alphaMode":"MASK","alphaCutoff":0.2}],"textures":[{"sampler":0,"source":0,"name":"fx_frost_shield"},{"sampler":1,"source":1}],"samplers":[{"magFilter":9728,"minFilter":9728,"wrapS":33071,"wrapT":33071},{"magFilter":9728,"minFilter":9728,"wrapS":33071,"wrapT":33071}],"images":[{"mimeType":"image/png","uri":"data:image/png;base64,"},{"mimeType":"image/png","uri":"data:image/png;base64,"}],"meshes":[{"primitives":[{"mode":4,"attributes":{"POSITION":0,"NORMAL":1,"TEXCOORD_0":2},"indices":3,"material":0}]},{"primitives":[{"mode":4,"attributes":{"POSITION":4,"NORMAL":5,"TEXCOORD_0":6},"indices":7,"material":0}]},{"primitives":[{"mode":4,"attributes":{"POSITION":8,"NORMAL":9,"TEXCOORD_0":10},"indices":11,"material":0}]},{"primitives":[{"mode":4,"attributes":{"POSITION":12,"NORMAL":13,"TEXCOORD_0":14},"indices":15,"material":0}]},{"primitives":[{"mode":4,"attributes":{"POSITION":16,"NORMAL":17,"TEXCOORD_0":18},"indices":19,"material":0}]},{"primitives":[{"mode":4,"attributes":{"POSITION":20,"NORMAL":21,"TEXCOORD_0":22},"material":1}]}],"animations":[{"name":"idle","samplers":[{"input":23,"output":24,"interpolation":"LINEAR"},{"input":25,"output":26,"interpolation":"LINEAR"}],"channels":[{"sampler":0,"target":{"node":5,"path":"translation"}},{"sampler":1,"target":{"node":5,"path":"scale"}}]}]}