{"asset":{"version":"2.0","generator":"Blockbench 5.0.5 glTF exporter"},"scenes":[{"nodes":[1],"name":"blockbench_export"}],"scene":0,"nodes":[{"name":"cube","mesh":0},{"translation":[0,1.0636875000000001,0],"name":"body","children":[0]}],"bufferViews":[{"buffer":0,"byteOffset":0,"byteLength":288,"target":34962,"byteStride":12},{"buffer":0,"byteOffset":288,"byteLength":288,"target":34962,"byteStride":12},{"buffer":0,"byteOffset":576,"byteLength":192,"target":34962,"byteStride":8},{"buffer":0,"byteOffset":768,"byteLength":72,"target":34963},{"buffer":0,"byteOffset":840,"byteLength":12},{"buffer":0,"byteOffset":852,"byteLength":48},{"buffer":0,"byteOffset":900,"byteLength":24},{"buffer":0,"byteOffset":924,"byteLength":72},{"buffer":0,"byteOffset":996,"byteLength":12},{"buffer":0,"byteOffset":1008,"byteLength":48},{"buffer":0,"byteOffset":1056,"byteLength":24},{"buffer":0,"byteOffset":1080,"byteLength":72},{"buffer":0,"byteOffset":1152,"byteLength":12},{"buffer":0,"byteOffset":1164,"byteLength":48},{"buffer":0,"byteOffset":1212,"byteLength":8},{"buffer":0,"byteOffset":1220,"byteLength":24},{"buffer":0,"byteOffset":1244,"byteLength":24},{"buffer":0,"byteOffset":1268,"byteLength":72}],"buffers":[{"byteLength":1340,"uri":"data:application/octet-stream;base64,"}],"accessors":[{"bufferView":0,"componentType":5126,"count":24,"max":[2.21875,0.0000625000029685907,2.21875],"min":[-2.21875,0,-2.21875],"type":"VEC3"},{"bufferView":1,"componentType":5126,"count":24,"max":[1,1,1],"min":[-1,-1,-1],"type":"VEC3"},{"bufferView":2,"componentType":5126,"count":24,"max":[1,1],"min":[0,0],"type":"VEC2"},{"bufferView":3,"componentType":5123,"count":36,"max":[23],"min":[0],"type":"SCALAR"},{"bufferView":4,"componentType":5126,"count":3,"max":[0.25],"min":[0],"type":"SCALAR"},{"bufferView":5,"componentType":5126,"count":3,"max":[-0.016898563131690025,0.44403472542762756,-0.009738067165017128,0.9993146061897278],"min":[-0.03564027324318886,-0.3600601851940155,-0.03285570815205574,0.8952475190162659],"type":"VEC4"},{"bufferView":6,"componentType":5126,"count":6,"max":[0.25],"min":[0],"type":"SCALAR"},{"bufferView":7,"componentType":5126,"count":6,"max":[1.600000023841858,1.600000023841858,1.600000023841858],"min":[1.5,1.5,1.5],"type":"VEC3"},{"bufferView":8,"componentType":5126,"count":3,"max":[0.25],"min":[0],"type":"SCALAR"},{"bufferView":9,"componentType":5126,"count":3,"max":[0.3600601851940155,0.03564027324318886,0.9993146061897278,-0.009738067165017128],"min":[-0.44403472542762756,0.016898563131690025,0.8952475190162659,-0.03285570815205574],"type":"VEC4"},{"bufferView":10,"componentType":5126,"count":6,"max":[0.25],"min":[0],"type":"SCALAR"},{"bufferView":11,"componentType":5126,"count":6,"max":[1.600000023841858,1.600000023841858,1.600000023841858],"min":[1.5,1.5,1.5],"type":"VEC3"},{"bufferView":12,"componentType":5126,"count":3,"max":[0.25],"min":[0],"type":"SCALAR"},{"bufferView":13,"componentType":5126,"count":3,"max":[-0.0912100076675415,-0.08731140941381454,0.6969782114028931,-0.2900490164756775],"min":[-0.6413700580596924,-0.648040235042572,0.2907918393611908,-0.7058886885643005],"type":"VEC4"},{"bufferView":14,"componentType":5126,"count":2,"max":[0.25],"min":[0],"type":"SCALAR"},{"bufferView":15,"componentType":5126,"count":2,"max":[0,2.063687562942505,0.4375],"min":[0,2.063687562942505,-0.75],"type":"VEC3"},{"bufferView":16,"componentType":5126,"count":6,"max":[0.25],"min":[0],"type":"SCALAR"},{"bufferView":17,"componentType":5126,"count":6,"max":[1.600000023841858,1.600000023841858,1.600000023841858],"min":[1.5,1.5,1.5],"type":"VEC3"}],"materials":[{"pbrMetallicRoughness":{"metallicFactor":0,"roughnessFactor":1,"baseColorTexture":{"index":0}},"alphaMode":"MASK","alphaCutoff":0.05,"doubleSided":true}],"textures":[{"sampler":0,"source":0,"name":"frost_slash_4.png"}],"samplers":[{"magFilter":9728,"minFilter":9728,"wrapS":33071,"wrapT":33071}],"images":[{"mimeType":"image/png","uri":"data:image/png;base64,"}],"meshes":[{"primitives":[{"mode":4,"attributes":{"POSITION":0,"NORMAL":1,"TEXCOORD_0":2},"indices":3,"material":0}]}],"animations":[{"name":"skill","samplers":[{"input":4,"output":5,"interpolation":"LINEAR"},{"input":6,"output":7,"interpolation":"LINEAR"}],"channels":[{"sampler":0,"target":{"node":1,"path":"rotation"}},{"sampler":1,"target":{"node":1,"path":"scale"}}]},{"name":"skill2","samplers":[{"input":8,"output":9,"interpolation":"LINEAR"},{"input":10,"output":11,"interpolation":"LINEAR"}],"channels":[{"sampler":0,"target":{"node":1,"path":"rotation"}},{"sampler":1,"target":{"node":1,"path":"scale"}}]},{"name":"skill3","samplers":[{"input":12,"output":13,"interpolation":"LINEAR"},{"input":14,"output":15,"interpolation":"LINEAR"},{"input":16,"output":17,"interpolation":"LINEAR"}],"channels":[{"sampler":0,"target":{"node":1,"path":"rotation"}},{"sampler":1,"target":{"node":1,"path":"translation"}},{"sampler":2,"target":{"node":1,"path":"scale"}}]}]}