{"asset":{"version":"2.0","generator":"Blockbench 5.0.5 glTF exporter"},"scenes":[{"nodes":[17],"name":"blockbench_export"}],"scene":0,"nodes":[{"rotation":[0,0,0.19509032201612825,0.9807852804032304],"name":"cube","mesh":0},{"rotation":[0,0,-0.19509032201612825,0.9807852804032304],"name":"cube","mesh":1},{"rotation":[0,0,0.19509032201612825,0.9807852804032304],"name":"cube","mesh":2},{"rotation":[0,0,-0.19509032201612825,0.9807852804032304],"name":"cube","mesh":3},{"name":"cube","mesh":4},{"rotation":[0,0,0.25881904510252074,0.9659258262890683],"translation":[8.326672684688681e-18,0,-0.00036093750000000513],"name":"h_bone","children":[0,1,2,3,4]},{"rotation":[0,0,-0.19509032201612825,0.9807852804032304],"translation":[-4.7184478546569146e-17,0,-0.0006187500000000088],"name":"cube","mesh":5},{"rotation":[0,0,0.19509032201612825,0.9807852804032304],"translation":[-4.7184478546569146e-17,0,-0.0006187500000000088],"name":"cube","mesh":6},{"rotation":[0,0,-0.19509032201612825,0.9807852804032304],"translation":[-4.7184478546569146e-17,0,-0.0006187500000000088],"name":"cube","mesh":7},{"rotation":[0,0,0.19509032201612825,0.9807852804032304],"translation":[-4.7184478546569146e-17,0,-0.0006187500000000088],"name":"cube","mesh":8},{"rotation":[0,0,-0.3826834323650898,0.9238795325112867],"translation":[-4.7184478546569146e-17,0,-0.0006187500000000088],"name":"cube","mesh":9},{"rotation":[0,0,0.10886687485196457,0.9940563382223196],"translation":[1.3877787807814457e-17,0,0.0005156250000000074],"name":"h_bone2","children":[6,7,8,9,10]},{"rotation":[0,0,-0.19509032201612825,0.9807852804032304],"translation":[-3.330669073875469e-17,0,-0.00010312500000000149],"name":"cube","mesh":10},{"rotation":[0,0,0.19509032201612825,0.9807852804032304],"translation":[-3.330669073875469e-17,0,-0.00010312500000000149],"name":"cube","mesh":11},{"rotation":[0,0,-0.19509032201612825,0.9807852804032304],"translation":[-3.330669073875469e-17,0,-0.00010312500000000149],"name":"cube","mesh":12},{"rotation":[0,0,0.19509032201612825,0.9807852804032304],"translation":[-3.330669073875469e-17,0,-0.00010312500000000149],"name":"cube","mesh":13},{"translation":[-3.330669073875469e-17,0,-0.00010312500000000149],"name":"cube","mesh":14},{"translation":[3.330669073875469e-17,0.8125,0.00010312500000000127],"name":"h_body","children":[5,11,12,13,14,15,16]}],"bufferViews":[{"buffer":0,"byteOffset":0,"byteLength":288,"target":34962,"byteStride":12},{"buffer":0,"byteOffset":288,"byteLength":288,"target":34962,"byteStride":12},{"buffer":0,"byteOffset":576,"byteLength":192,"target":34962,"byteStride":8},{"buffer":0,"byteOffset":768,"byteLength":72,"target":34963},{"buffer":0,"byteOffset":840,"byteLength":288,"target":34962,"byteStride":12},{"buffer":0,"byteOffset":1128,"byteLength":288,"target":34962,"byteStride":12},{"buffer":0,"byteOffset":1416,"byteLength":192,"target":34962,"byteStride":8},{"buffer":0,"byteOffset":1608,"byteLength":72,"target":34963},{"buffer":0,"byteOffset":1680,"byteLength":288,"target":34962,"byteStride":12},{"buffer":0,"byteOffset":1968,"byteLength":288,"target":34962,"byteStride":12},{"buffer":0,"byteOffset":2256,"byteLength":192,"target":34962,"byteStride":8},{"buffer":0,"byteOffset":2448,"byteLength":72,"target":34963},{"buffer":0,"byteOffset":2520,"byteLength":288,"target":34962,"byteStride":12},{"buffer":0,"byteOffset":2808,"byteLength":288,"target":34962,"byteStride":12},{"buffer":0,"byteOffset":3096,"byteLength":192,"target":34962,"byteStride":8},{"buffer":0,"byteOffset":3288,"byteLength":72,"target":34963},{"buffer":0,"byteOffset":3360,"byteLength":288,"target":34962,"byteStride":12},{"buffer":0,"byteOffset":3648,"byteLength":288,"target":34962,"byteStride":12},{"buffer":0,"byteOffset":3936,"byteLength":192,"target":34962,"byteStride":8},{"buffer":0,"byteOffset":4128,"byteLength":72,"target":34963},{"buffer":0,"byteOffset":4200,"byteLength":288,"target":34962,"byteStride":12},{"buffer":0,"byteOffset":4488,"byteLength":288,"target":34962,"byteStride":12},{"buffer":0,"byteOffset":4776,"byteLength":192,"target":34962,"byteStride":8},{"buffer":0,"byteOffset":4968,"byteLength":72,"target":34963},{"buffer":0,"byteOffset":5040,"byteLength":288,"target":34962,"byteStride":12},{"buffer":0,"byteOffset":5328,"byteLength":288,"target":34962,"byteStride":12},{"buffer":0,"byteOffset":5616,"byteLength":192,"target":34962,"byteStride":8},{"buffer":0,"byteOffset":5808,"byteLength":72,"target":34963},{"buffer":0,"byteOffset":5880,"byteLength":288,"target":34962,"byteStride":12},{"buffer":0,"byteOffset":6168,"byteLength":288,"target":34962,"byteStride":12},{"buffer":0,"byteOffset":6456,"byteLength":192,"target":34962,"byteStride":8},{"buffer":0,"byteOffset":6648,"byteLength":72,"target":34963},{"buffer":0,"byteOffset":6720,"byteLength":288,"target":34962,"byteStride":12},{"buffer":0,"byteOffset":7008,"byteLength":288,"target":34962,"byteStride":12},{"buffer":0,"byteOffset":7296,"byteLength":192,"target":34962,"byteStride":8},{"buffer":0,"byteOffset":7488,"byteLength":72,"target":34963},{"buffer":0,"byteOffset":7560,"byteLength":288,"target":34962,"byteStride":12},{"buffer":0,"byteOffset":7848,"byteLength":288,"target":34962,"byteStride":12},{"buffer":0,"byteOffset":8136,"byteLength":192,"target":34962,"byteStride":8},{"buffer":0,"byteOffset":8328,"byteLength":72,"target":34963},{"buffer":0,"byteOffset":8400,"byteLength":288,"target":34962,"byteStride":12},{"buffer":0,"byteOffset":8688,"byteLength":288,"target":34962,"byteStride":12},{"buffer":0,"byteOffset":8976,"byteLength":192,"target":34962,"byteStride":8},{"buffer":0,"byteOffset":9168,"byteLength":72,"target":34963},{"buffer":0,"byteOffset":9240,"byteLength":288,"target":34962,"byteStride":12},{"buffer":0,"byteOffset":9528,"byteLength":288,"target":34962,"byteStride":12},{"buffer":0,"byteOffset":9816,"byteLength":192,"target":34962,"byteStride":8},{"buffer":0,"byteOffset":10008,"byteLength":72,"target":34963},{"buffer":0,"byteOffset":10080,"byteLength":288,"target":34962,"byteStride":12},{"buffer":0,"byteOffset":10368,"byteLength":288,"target":34962,"byteStride":12},{"buffer":0,"byteOffset":10656,"byteLength":192,"target":34962,"byteStride":8},{"buffer":0,"byteOffset":10848,"byteLength":72,"target":34963},{"buffer":0,"byteOffset":10920,"byteLength":288,"target":34962,"byteStride":12},{"buffer":0,"byteOffset":11208,"byteLength":288,"target":34962,"byteStride":12},{"buffer":0,"byteOffset":11496,"byteLength":192,"target":34962,"byteStride":8},{"buffer":0,"byteOffset":11688,"byteLength":72,"target":34963},{"buffer":0,"byteOffset":11760,"byteLength":288,"target":34962,"byteStride":12},{"buffer":0,"byteOffset":12048,"byteLength":288,"target":34962,"byteStride":12},{"buffer":0,"byteOffset":12336,"byteLength":192,"target":34962,"byteStride":8},{"buffer":0,"byteOffset":12528,"byteLength":72,"target":34963},{"buffer":0,"byteOffset":12600,"byteLength":88},{"buffer":0,"byteOffset":12688,"byteLength":352},{"buffer":0,"byteOffset":13040,"byteLength":88},{"buffer":0,"byteOffset":13128,"byteLength":264},{"buffer":0,"byteOffset":13392,"byteLength":88},{"buffer":0,"byteOffset":13480,"byteLength":264},{"buffer":0,"byteOffset":13744,"byteLength":88},{"buffer":0,"byteOffset":13832,"byteLength":352},{"buffer":0,"byteOffset":14184,"byteLength":88},{"buffer":0,"byteOffset":14272,"byteLength":264},{"buffer":0,"byteOffset":14536,"byteLength":88},{"buffer":0,"byteOffset":14624,"byteLength":264},{"buffer":0,"byteOffset":14888,"byteLength":88},{"buffer":0,"byteOffset":14976,"byteLength":352},{"buffer":0,"byteOffset":15328,"byteLength":88},{"buffer":0,"byteOffset":15416,"byteLength":264},{"buffer":0,"byteOffset":15680,"byteLength":88},{"buffer":0,"byteOffset":15768,"byteLength":264},{"buffer":0,"byteOffset":16032,"byteLength":88},{"buffer":0,"byteOffset":16120,"byteLength":352},{"buffer":0,"byteOffset":16472,"byteLength":88},{"buffer":0,"byteOffset":16560,"byteLength":264},{"buffer":0,"byteOffset":16824,"byteLength":88},{"buffer":0,"byteOffset":16912,"byteLength":264},{"buffer":0,"byteOffset":17176,"byteLength":88},{"buffer":0,"byteOffset":17264,"byteLength":352},{"buffer":0,"byteOffset":17616,"byteLength":88},{"buffer":0,"byteOffset":17704,"byteLength":264},{"buffer":0,"byteOffset":17968,"byteLength":88},{"buffer":0,"byteOffset":18056,"byteLength":264},{"buffer":0,"byteOffset":18320,"byteLength":88},{"buffer":0,"byteOffset":18408,"byteLength":352},{"buffer":0,"byteOffset":18760,"byteLength":88},{"buffer":0,"byteOffset":18848,"byteLength":264},{"buffer":0,"byteOffset":19112,"byteLength":88},{"buffer":0,"byteOffset":19200,"byteLength":264}],"buffers":[{"byteLength":19464,"uri":"data:application/octet-stream;base64,"}],"accessors":[{"bufferView":0,"componentType":5126,"count":24,"max":[0.12791191041469574,-0.046438075602054596,-0.00019531250291038305],"min":[0.06603691726922989,-0.14956307411193848,-0.00025781249860301614],"type":"VEC3"},{"bufferView":1,"componentType":5126,"count":24,"max":[1,1,1],"min":[-1,-1,-1],"type":"VEC3"},{"bufferView":2,"componentType":5126,"count":24,"max":[0.625,0.609375],"min":[0.078125,0],"type":"VEC2"},{"bufferView":3,"componentType":5123,"count":36,"max":[23],"min":[0],"type":"SCALAR"},{"bufferView":4,"componentType":5126,"count":24,"max":[0.12791191041469574,0.14956307411193848,-0.00019531250291038305],"min":[0.06603691726922989,0.046438075602054596,-0.00025781249860301614],"type":"VEC3"},{"bufferView":5,"componentType":5126,"count":24,"max":[1,1,1],"min":[-1,-1,-1],"type":"VEC3"},{"bufferView":6,"componentType":5126,"count":24,"max":[0.625,0.609375],"min":[0.078125,0],"type":"VEC2"},{"bufferView":7,"componentType":5123,"count":36,"max":[23],"min":[0],"type":"SCALAR"},{"bufferView":8,"componentType":5126,"count":24,"max":[-0.06603691726922989,0.14956307411193848,-0.00019531250291038305],"min":[-0.12791191041469574,0.046438075602054596,-0.00025781249860301614],"type":"VEC3"},{"bufferView":9,"componentType":5126,"count":24,"max":[1,1,1],"min":[-1,-1,-1],"type":"VEC3"},{"bufferView":10,"componentType":5126,"count":24,"max":[0.625,0.609375],"min":[0.078125,0],"type":"VEC2"},{"bufferView":11,"componentType":5123,"count":36,"max":[23],"min":[0],"type":"SCALAR"},{"bufferView":12,"componentType":5126,"count":24,"max":[-0.06603691726922989,-0.046438075602054596,-0.00019531250291038305],"min":[-0.12791191041469574,-0.14956307411193848,-0.00025781249860301614],"type":"VEC3"},{"bufferView":13,"componentType":5126,"count":24,"max":[1,1,1],"min":[-1,-1,-1],"type":"VEC3"},{"bufferView":14,"componentType":5126,"count":24,"max":[0.625,0.609375],"min":[0.078125,0],"type":"VEC2"},{"bufferView":15,"componentType":5123,"count":36,"max":[23],"min":[0],"type":"SCALAR"},{"bufferView":16,"componentType":5126,"count":24,"max":[0.19593749940395355,0.19593749940395355,0.00032031250884756446],"min":[-0.19593749940395355,-0.19593749940395355,0.00025781249860301614],"type":"VEC3"},{"bufferView":17,"componentType":5126,"count":24,"max":[1,1,1],"min":[-1,-1,-1],"type":"VEC3"},{"bufferView":18,"componentType":5126,"count":24,"max":[0.625,0.609375],"min":[0,0],"type":"VEC2"},{"bufferView":19,"componentType":5123,"count":36,"max":[23],"min":[0],"type":"SCALAR"},{"bufferView":20,"componentType":5126,"count":24,"max":[0.12791191041469574,-0.046438075602054596,0.0005781250074505806],"min":[0.06603691726922989,-0.14956307411193848,0.0005156249972060323],"type":"VEC3"},{"bufferView":21,"componentType":5126,"count":24,"max":[1,1,1],"min":[-1,-1,-1],"type":"VEC3"},{"bufferView":22,"componentType":5126,"count":24,"max":[0.625,0.609375],"min":[0.078125,0],"type":"VEC2"},{"bufferView":23,"componentType":5123,"count":36,"max":[23],"min":[0],"type":"SCALAR"},{"bufferView":24,"componentType":5126,"count":24,"max":[0.14956307411193848,-0.06603691726922989,0.0005781250074505806],"min":[0.046438075602054596,-0.12791191041469574,0.0005156249972060323],"type":"VEC3"},{"bufferView":25,"componentType":5126,"count":24,"max":[1,1,1],"min":[-1,-1,-1],"type":"VEC3"},{"bufferView":26,"componentType":5126,"count":24,"max":[0.625,0.609375],"min":[0.078125,0],"type":"VEC2"},{"bufferView":27,"componentType":5123,"count":36,"max":[23],"min":[0],"type":"SCALAR"},{"bufferView":28,"componentType":5126,"count":24,"max":[-0.06603691726922989,0.14956307411193848,0.0005781250074505806],"min":[-0.12791191041469574,0.046438075602054596,0.0005156249972060323],"type":"VEC3"},{"bufferView":29,"componentType":5126,"count":24,"max":[1,1,1],"min":[-1,-1,-1],"type":"VEC3"},{"bufferView":30,"componentType":5126,"count":24,"max":[0.625,0.609375],"min":[0.078125,0],"type":"VEC2"},{"bufferView":31,"componentType":5123,"count":36,"max":[23],"min":[0],"type":"SCALAR"},{"bufferView":32,"componentType":5126,"count":24,"max":[-0.046438075602054596,0.12791191041469574,0.0005781250074505806],"min":[-0.14956307411193848,0.06603691726922989,0.0005156249972060323],"type":"VEC3"},{"bufferView":33,"componentType":5126,"count":24,"max":[1,1,1],"min":[-1,-1,-1],"type":"VEC3"},{"bufferView":34,"componentType":5126,"count":24,"max":[0.625,0.609375],"min":[0.078125,0],"type":"VEC2"},{"bufferView":35,"componentType":5123,"count":36,"max":[23],"min":[0],"type":"SCALAR"},{"bufferView":36,"componentType":5126,"count":24,"max":[0.19593749940395355,0.19593749940395355,0.0010937500046566129],"min":[-0.19593749940395355,-0.19593749940395355,0.0010312499944120646],"type":"VEC3"},{"bufferView":37,"componentType":5126,"count":24,"max":[1,1,1],"min":[-1,-1,-1],"type":"VEC3"},{"bufferView":38,"componentType":5126,"count":24,"max":[0.625,0.609375],"min":[0,0],"type":"VEC2"},{"bufferView":39,"componentType":5123,"count":36,"max":[23],"min":[0],"type":"SCALAR"},{"bufferView":40,"componentType":5126,"count":24,"max":[-0.046438075602054596,0.12791191041469574,0.0000625000029685907],"min":[-0.14956307411193848,0.06603691726922989,0],"type":"VEC3"},{"bufferView":41,"componentType":5126,"count":24,"max":[1,1,1],"min":[-1,-1,-1],"type":"VEC3"},{"bufferView":42,"componentType":5126,"count":24,"max":[0.625,0.609375],"min":[0.078125,0],"type":"VEC2"},{"bufferView":43,"componentType":5123,"count":36,"max":[23],"min":[0],"type":"SCALAR"},{"bufferView":44,"componentType":5126,"count":24,"max":[0.14956307411193848,0.12791191041469574,0.0000625000029685907],"min":[0.046438075602054596,0.06603691726922989,0],"type":"VEC3"},{"bufferView":45,"componentType":5126,"count":24,"max":[1,1,1],"min":[-1,-1,-1],"type":"VEC3"},{"bufferView":46,"componentType":5126,"count":24,"max":[0.625,0.609375],"min":[0.078125,0],"type":"VEC2"},{"bufferView":47,"componentType":5123,"count":36,"max":[23],"min":[0],"type":"SCALAR"},{"bufferView":48,"componentType":5126,"count":24,"max":[0.14956307411193848,-0.06603691726922989,0.0000625000029685907],"min":[0.046438075602054596,-0.12791191041469574,0],"type":"VEC3"},{"bufferView":49,"componentType":5126,"count":24,"max":[1,1,1],"min":[-1,-1,-1],"type":"VEC3"},{"bufferView":50,"componentType":5126,"count":24,"max":[0.625,0.609375],"min":[0.078125,0],"type":"VEC2"},{"bufferView":51,"componentType":5123,"count":36,"max":[23],"min":[0],"type":"SCALAR"},{"bufferView":52,"componentType":5126,"count":24,"max":[-0.046438075602054596,-0.06603691726922989,0.0000625000029685907],"min":[-0.14956307411193848,-0.12791191041469574,0],"type":"VEC3"},{"bufferView":53,"componentType":5126,"count":24,"max":[1,1,1],"min":[-1,-1,-1],"type":"VEC3"},{"bufferView":54,"componentType":5126,"count":24,"max":[0.625,0.609375],"min":[0.078125,0],"type":"VEC2"},{"bufferView":55,"componentType":5123,"count":36,"max":[23],"min":[0],"type":"SCALAR"},{"bufferView":56,"componentType":5126,"count":24,"max":[0.19593749940395355,0.19593749940395355,0.0005781250074505806],"min":[-0.19593749940395355,-0.19593749940395355,0.0005156249972060323],"type":"VEC3"},{"bufferView":57,"componentType":5126,"count":24,"max":[1,1,1],"min":[-1,-1,-1],"type":"VEC3"},{"bufferView":58,"componentType":5126,"count":24,"max":[0.625,0.609375],"min":[0,0],"type":"VEC2"},{"bufferView":59,"componentType":5123,"count":36,"max":[23],"min":[0],"type":"SCALAR"},{"bufferView":60,"componentType":5126,"count":22,"max":[1.25],"min":[0],"type":"SCALAR"},{"bufferView":61,"componentType":5126,"count":22,"max":[0.3420509696006775,0,0.5636825561523438,1],"min":[0,-0.39003437757492065,0,0.6427567601203918],"type":"VEC4"},{"bufferView":62,"componentType":5126,"count":22,"max":[1.25],"min":[0],"type":"SCALAR"},{"bufferView":63,"componentType":5126,"count":22,"max":[3.3306692062243676e-17,1,0.00010312499944120646],"min":[3.3306692062243676e-17,0.8125,0.00010312499944120646],"type":"VEC3"},{"bufferView":64,"componentType":5126,"count":22,"max":[1.25],"min":[0],"type":"SCALAR"},{"bufferView":65,"componentType":5126,"count":22,"max":[1,1,1],"min":[0,0,0],"type":"VEC3"},{"bufferView":66,"componentType":5126,"count":22,"max":[1.25],"min":[0],"type":"SCALAR"},{"bufferView":67,"componentType":5126,"count":22,"max":[0.3420509696006775,0.39003437757492065,0,1],"min":[0,0,-0.5636825561523438,0.6427567601203918],"type":"VEC4"},{"bufferView":68,"componentType":5126,"count":22,"max":[1.25],"min":[0],"type":"SCALAR"},{"bufferView":69,"componentType":5126,"count":22,"max":[3.3306692062243676e-17,1,0.00010312499944120646],"min":[3.3306692062243676e-17,0.8125,0.00010312499944120646],"type":"VEC3"},{"bufferView":70,"componentType":5126,"count":22,"max":[1.25],"min":[0],"type":"SCALAR"},{"bufferView":71,"componentType":5126,"count":22,"max":[1,1,1],"min":[0,0,0],"type":"VEC3"},{"bufferView":72,"componentType":5126,"count":22,"max":[1.25],"min":[0],"type":"SCALAR"},{"bufferView":73,"componentType":5126,"count":22,"max":[0.3420509696006775,0,0.5636825561523438,1],"min":[0,-0.39003437757492065,0,0.6427567601203918],"type":"VEC4"},{"bufferView":74,"componentType":5126,"count":22,"max":[1.25],"min":[0],"type":"SCALAR"},{"bufferView":75,"componentType":5126,"count":22,"max":[-0.3125,1.1875,0.00010312499944120646],"min":[-0.4375,1.0625,0.00010312499944120646],"type":"VEC3"},{"bufferView":76,"componentType":5126,"count":22,"max":[1.25],"min":[0],"type":"SCALAR"},{"bufferView":77,"componentType":5126,"count":22,"max":[1,1,1],"min":[0,0,0],"type":"VEC3"},{"bufferView":78,"componentType":5126,"count":22,"max":[1.25],"min":[0],"type":"SCALAR"},{"bufferView":79,"componentType":5126,"count":22,"max":[0.3420509696006775,0.39003437757492065,0,1],"min":[0,0,-0.5636825561523438,0.6427567601203918],"type":"VEC4"},{"bufferView":80,"componentType":5126,"count":22,"max":[1.25],"min":[0],"type":"SCALAR"},{"bufferView":81,"componentType":5126,"count":22,"max":[0.4375,0.8125,0.00010312499944120646],"min":[0.3125,0.6875,0.00010312499944120646],"type":"VEC3"},{"bufferView":82,"componentType":5126,"count":22,"max":[1.25],"min":[0],"type":"SCALAR"},{"bufferView":83,"componentType":5126,"count":22,"max":[1,1,1],"min":[0,0,0],"type":"VEC3"},{"bufferView":84,"componentType":5126,"count":22,"max":[1.25],"min":[0],"type":"SCALAR"},{"bufferView":85,"componentType":5126,"count":22,"max":[0,0.39003437757492065,0.5636825561523438,1],"min":[-0.3420509696006775,0,0,0.6427567601203918],"type":"VEC4"},{"bufferView":86,"componentType":5126,"count":22,"max":[1.25],"min":[0],"type":"SCALAR"},{"bufferView":87,"componentType":5126,"count":22,"max":[0.1875,0.8125,0.4376031160354614],"min":[0.0625,0.6875,0.3126031160354614],"type":"VEC3"},{"bufferView":88,"componentType":5126,"count":22,"max":[1.25],"min":[0],"type":"SCALAR"},{"bufferView":89,"componentType":5126,"count":22,"max":[1,1,1],"min":[0,0,0],"type":"VEC3"},{"bufferView":90,"componentType":5126,"count":22,"max":[1.25],"min":[0],"type":"SCALAR"},{"bufferView":91,"componentType":5126,"count":22,"max":[0.3420509696006775,0.39003437757492065,0,1],"min":[0,0,-0.5636825561523438,0.6427567601203918],"type":"VEC4"},{"bufferView":92,"componentType":5126,"count":22,"max":[1.25],"min":[0],"type":"SCALAR"},{"bufferView":93,"componentType":5126,"count":22,"max":[-0.0625,1.4375,-0.3123968839645386],"min":[-0.1875,1.25,-0.4373968839645386],"type":"VEC3"},{"bufferView":94,"componentType":5126,"count":22,"max":[1.25],"min":[0],"type":"SCALAR"},{"bufferView":95,"componentType":5126,"count":22,"max":[1,1,1],"min":[0,0,0],"type":"VEC3"}],"materials":[{"pbrMetallicRoughness":{"metallicFactor":0,"roughnessFactor":1,"baseColorTexture":{"index":0}},"alphaMode":"MASK","alphaCutoff":0.05,"doubleSided":true}],"textures":[{"sampler":0,"source":0,"name":"snowflake_fx"}],"samplers":[{"magFilter":9728,"minFilter":9728,"wrapS":33071,"wrapT":33071}],"images":[{"mimeType":"image/png","uri":"data:image/png;base64,"}],"meshes":[{"primitives":[{"mode":4,"attributes":{"POSITION":0,"NORMAL":1,"TEXCOORD_0":2},"indices":3,"material":0}]},{"primitives":[{"mode":4,"attributes":{"POSITION":4,"NORMAL":5,"TEXCOORD_0":6},"indices":7,"material":0}]},{"primitives":[{"mode":4,"attributes":{"POSITION":8,"NORMAL":9,"TEXCOORD_0":10},"indices":11,"material":0}]},{"primitives":[{"mode":4,"attributes":{"POSITION":12,"NORMAL":13,"TEXCOORD_0":14},"indices":15,"material":0}]},{"primitives":[{"mode":4,"attributes":{"POSITION":16,"NORMAL":17,"TEXCOORD_0":18},"indices":19,"material":0}]},{"primitives":[{"mode":4,"attributes":{"POSITION":20,"NORMAL":21,"TEXCOORD_0":22},"indices":23,"material":0}]},{"primitives":[{"mode":4,"attributes":{"POSITION":24,"NORMAL":25,"TEXCOORD_0":26},"indices":27,"material":0}]},{"primitives":[{"mode":4,"attributes":{"POSITION":28,"NORMAL":29,"TEXCOORD_0":30},"indices":31,"material":0}]},{"primitives":[{"mode":4,"attributes":{"POSITION":32,"NORMAL":33,"TEXCOORD_0":34},"indices":35,"material":0}]},{"primitives":[{"mode":4,"attributes":{"POSITION":36,"NORMAL":37,"TEXCOORD_0":38},"indices":39,"material":0}]},{"primitives":[{"mode":4,"attributes":{"POSITION":40,"NORMAL":41,"TEXCOORD_0":42},"indices":43,"material":0}]},{"primitives":[{"mode":4,"attributes":{"POSITION":44,"NORMAL":45,"TEXCOORD_0":46},"indices":47,"material":0}]},{"primitives":[{"mode":4,"attributes":{"POSITION":48,"NORMAL":49,"TEXCOORD_0":50},"indices":51,"material":0}]},{"primitives":[{"mode":4,"attributes":{"POSITION":52,"NORMAL":53,"TEXCOORD_0":54},"indices":55,"material":0}]},{"primitives":[{"mode":4,"attributes":{"POSITION":56,"NORMAL":57,"TEXCOORD_0":58},"indices":59,"material":0}]}],"animations":[{"name":"skill1","samplers":[{"input":60,"output":61,"interpolation":"LINEAR"},{"input":62,"output":63,"interpolation":"LINEAR"},{"input":64,"output":65,"interpolation":"LINEAR"}],"channels":[{"sampler":0,"target":{"node":17,"path":"rotation"}},{"sampler":1,"target":{"node":17,"path":"translation"}},{"sampler":2,"target":{"node":17,"path":"scale"}}]},{"name":"skill2","samplers":[{"input":66,"output":67,"interpolation":"LINEAR"},{"input":68,"output":69,"interpolation":"LINEAR"},{"input":70,"output":71,"interpolation":"LINEAR"}],"channels":[{"sampler":0,"target":{"node":17,"path":"rotation"}},{"sampler":1,"target":{"node":17,"path":"translation"}},{"sampler":2,"target":{"node":17,"path":"scale"}}]},{"name":"skill11","samplers":[{"input":72,"output":73,"interpolation":"LINEAR"},{"input":74,"output":75,"interpolation":"LINEAR"},{"input":76,"output":77,"interpolation":"LINEAR"}],"channels":[{"sampler":0,"target":{"node":17,"path":"rotation"}},{"sampler":1,"target":{"node":17,"path":"translation"}},{"sampler":2,"target":{"node":17,"path":"scale"}}]},{"name":"skill12","samplers":[{"input":78,"output":79,"interpolation":"LINEAR"},{"input":80,"output":81,"interpolation":"LINEAR"},{"input":82,"output":83,"interpolation":"LINEAR"}],"channels":[{"sampler":0,"target":{"node":17,"path":"rotation"}},{"sampler":1,"target":{"node":17,"path":"translation"}},{"sampler":2,"target":{"node":17,"path":"scale"}}]},{"name":"skill13","samplers":[{"input":84,"output":85,"interpolation":"LINEAR"},{"input":86,"output":87,"interpolation":"LINEAR"},{"input":88,"output":89,"interpolation":"LINEAR"}],"channels":[{"sampler":0,"target":{"node":17,"path":"rotation"}},{"sampler":1,"target":{"node":17,"path":"translation"}},{"sampler":2,"target":{"node":17,"path":"scale"}}]},{"name":"skill14","samplers":[{"input":90,"output":91,"interpolation":"LINEAR"},{"input":92,"output":93,"interpolation":"LINEAR"},{"input":94,"output":95,"interpolation":"LINEAR"}],"channels":[{"sampler":0,"target":{"node":17,"path":"rotation"}},{"sampler":1,"target":{"node":17,"path":"translation"}},{"sampler":2,"target":{"node":17,"path":"scale"}}]}]}