{"asset":{"version":"2.0","generator":"Blockbench 5.0.5 glTF exporter"},"scenes":[{"nodes":[9],"name":"blockbench_export"}],"scene":0,"nodes":[{"rotation":[0,-0.3826834323650898,0,0.9238795325112867],"translation":[0.13281250149858573,0,0.5073525429449551],"name":"cube","mesh":0},{"translation":[0.000666260736238905,0,-0.3741037607362387],"name":"string5","children":[0]},{"translation":[0.13347876223482463,0,0.13324878220871644],"name":"cube","mesh":1},{"translation":[-0.2658470869120796,0,-0.26629126073623877],"name":"string4","children":[1,2]},{"rotation":[0,0.3826834323650898,0,0.9238795325112867],"translation":[-0.13236832467725496,0,-0.13304247852752232],"name":"cube","mesh":2},{"translation":[0.001118325426547856,0,-0.3741037607362389],"name":"string3","children":[3,4]},{"translation":[-0.1312499992507071,0,-0.5071462392637612],"name":"cube","mesh":3},{"translation":[0.25624999925070713,0,-0.24285376073623877],"name":"string2","children":[5,6]},{"rotation":[0,-0.3826834323650898,0,0.9238795325112867],"translation":[0.125,0,-0.75],"name":"cube","mesh":4},{"translation":[-0.12500000000000003,0.4375,0.75],"name":"strings","children":[7,8]}],"bufferViews":[{"buffer":0,"byteOffset":0,"byteLength":288,"target":34962,"byteStride":12},{"buffer":0,"byteOffset":288,"byteLength":288,"target":34962,"byteStride":12},{"buffer":0,"byteOffset":576,"byteLength":192,"target":34962,"byteStride":8},{"buffer":0,"byteOffset":768,"byteLength":72,"target":34963},{"buffer":0,"byteOffset":840,"byteLength":288,"target":34962,"byteStride":12},{"buffer":0,"byteOffset":1128,"byteLength":288,"target":34962,"byteStride":12},{"buffer":0,"byteOffset":1416,"byteLength":192,"target":34962,"byteStride":8},{"buffer":0,"byteOffset":1608,"byteLength":72,"target":34963},{"buffer":0,"byteOffset":1680,"byteLength":288,"target":34962,"byteStride":12},{"buffer":0,"byteOffset":1968,"byteLength":288,"target":34962,"byteStride":12},{"buffer":0,"byteOffset":2256,"byteLength":192,"target":34962,"byteStride":8},{"buffer":0,"byteOffset":2448,"byteLength":72,"target":34963},{"buffer":0,"byteOffset":2520,"byteLength":288,"target":34962,"byteStride":12},{"buffer":0,"byteOffset":2808,"byteLength":288,"target":34962,"byteStride":12},{"buffer":0,"byteOffset":3096,"byteLength":192,"target":34962,"byteStride":8},{"buffer":0,"byteOffset":3288,"byteLength":72,"target":34963},{"buffer":0,"byteOffset":3360,"byteLength":288,"target":34962,"byteStride":12},{"buffer":0,"byteOffset":3648,"byteLength":288,"target":34962,"byteStride":12},{"buffer":0,"byteOffset":3936,"byteLength":192,"target":34962,"byteStride":8},{"buffer":0,"byteOffset":4128,"byteLength":72,"target":34963},{"buffer":0,"byteOffset":4200,"byteLength":92},{"buffer":0,"byteOffset":4292,"byteLength":368},{"buffer":0,"byteOffset":4660,"byteLength":92},{"buffer":0,"byteOffset":4752,"byteLength":276},{"buffer":0,"byteOffset":5028,"byteLength":92},{"buffer":0,"byteOffset":5120,"byteLength":368},{"buffer":0,"byteOffset":5488,"byteLength":92},{"buffer":0,"byteOffset":5580,"byteLength":368},{"buffer":0,"byteOffset":5948,"byteLength":92},{"buffer":0,"byteOffset":6040,"byteLength":368},{"buffer":0,"byteOffset":6408,"byteLength":92},{"buffer":0,"byteOffset":6500,"byteLength":368}],"buffers":[{"byteLength":6868,"uri":"data:application/octet-stream;base64,"}],"accessors":[{"bufferView":0,"componentType":5126,"count":24,"max":[-0.4526025354862213,0.3125,-0.2651650309562683],"min":[-0.4526650309562683,-0.3125,-0.6401650309562683],"type":"VEC3"},{"bufferView":1,"componentType":5126,"count":24,"max":[1,1,1],"min":[-1,-1,-1],"type":"VEC3"},{"bufferView":2,"componentType":5126,"count":24,"max":[0.265625,0.5],"min":[0.109375,0],"type":"VEC2"},{"bufferView":3,"componentType":5123,"count":36,"max":[23],"min":[0],"type":"SCALAR"},{"bufferView":4,"componentType":5126,"count":24,"max":[-0.13252002000808716,0.3125,-0.13258251547813416],"min":[-0.13258253037929535,-0.3125,-0.5075825452804565],"type":"VEC3"},{"bufferView":5,"componentType":5126,"count":24,"max":[1,1,1],"min":[-1,-1,-1],"type":"VEC3"},{"bufferView":6,"componentType":5126,"count":24,"max":[0.328125,0.5],"min":[0.109375,0.171875],"type":"VEC2"},{"bufferView":7,"componentType":5123,"count":36,"max":[23],"min":[0],"type":"SCALAR"},{"bufferView":8,"componentType":5126,"count":24,"max":[0.00006249894067877904,0.3125,0.1875],"min":[-1.0596602484369555e-9,-0.3125,-0.1875],"type":"VEC3"},{"bufferView":9,"componentType":5126,"count":24,"max":[1,1,1],"min":[-1,-1,-1],"type":"VEC3"},{"bufferView":10,"componentType":5126,"count":24,"max":[0.453125,0.546875],"min":[0.109375,0],"type":"VEC2"},{"bufferView":11,"componentType":5123,"count":36,"max":[23],"min":[0],"type":"SCALAR"},{"bufferView":12,"componentType":5126,"count":24,"max":[0.13264502584934235,0.3125,0.5075825452804565],"min":[0.13258253037929535,-0.3125,0.13258251547813416],"type":"VEC3"},{"bufferView":13,"componentType":5126,"count":24,"max":[1,1,1],"min":[-1,-1,-1],"type":"VEC3"},{"bufferView":14,"componentType":5126,"count":24,"max":[0.4375,0.5],"min":[0.328125,0],"type":"VEC2"},{"bufferView":15,"componentType":5123,"count":36,"max":[23],"min":[0],"type":"SCALAR"},{"bufferView":16,"componentType":5126,"count":24,"max":[0.4527275562286377,0.3125,0.6401650309562683],"min":[0.4526650309562683,-0.3125,0.2651650309562683],"type":"VEC3"},{"bufferView":17,"componentType":5126,"count":24,"max":[1,1,1],"min":[-1,-1,-1],"type":"VEC3"},{"bufferView":18,"componentType":5126,"count":24,"max":[0.390625,0.5],"min":[0.21875,0.171875],"type":"VEC2"},{"bufferView":19,"componentType":5123,"count":36,"max":[23],"min":[0],"type":"SCALAR"},{"bufferView":20,"componentType":5126,"count":23,"max":[1.3333333730697632],"min":[0],"type":"SCALAR"},{"bufferView":21,"componentType":5126,"count":23,"max":[0,0.7372773289680481,0,1],"min":[0,0,0,0.6755902171134949],"type":"VEC4"},{"bufferView":22,"componentType":5126,"count":23,"max":[1.3333333730697632],"min":[0],"type":"SCALAR"},{"bufferView":23,"componentType":5126,"count":23,"max":[0.0625,0.4375,0.8125],"min":[-0.3125,0.4375,0.6875],"type":"VEC3"},{"bufferView":24,"componentType":5126,"count":23,"max":[1.3333333730697632],"min":[0],"type":"SCALAR"},{"bufferView":25,"componentType":5126,"count":23,"max":[0,0.09449519217014313,0,1],"min":[0,-0.7836121320724487,0,0.621250331401825],"type":"VEC4"},{"bufferView":26,"componentType":5126,"count":23,"max":[1.3333333730697632],"min":[0],"type":"SCALAR"},{"bufferView":27,"componentType":5126,"count":23,"max":[0,0.09462414681911469,0,1],"min":[0,-0.7841535210609436,0,0.6205669045448303],"type":"VEC4"},{"bufferView":28,"componentType":5126,"count":23,"max":[1.3333333730697632],"min":[0],"type":"SCALAR"},{"bufferView":29,"componentType":5126,"count":23,"max":[0,0.7792935371398926,0,1],"min":[0,-0.09332051873207092,0,0.626659095287323],"type":"VEC4"},{"bufferView":30,"componentType":5126,"count":23,"max":[1.3333333730697632],"min":[0],"type":"SCALAR"},{"bufferView":31,"componentType":5126,"count":23,"max":[0,0.7691033482551575,0,1],"min":[0,-0.0980171412229538,0,0.6391244530677795],"type":"VEC4"}],"materials":[{"pbrMetallicRoughness":{"metallicFactor":0,"roughnessFactor":1,"baseColorTexture":{"index":0}},"alphaMode":"MASK","alphaCutoff":0.05,"doubleSided":true}],"textures":[{"sampler":0,"source":0,"name":"black_strings"}],"samplers":[{"magFilter":9728,"minFilter":9728,"wrapS":33071,"wrapT":33071}],"images":[{"mimeType":"image/png","uri":"data:image/png;base64,"}],"meshes":[{"primitives":[{"mode":4,"attributes":{"POSITION":0,"NORMAL":1,"TEXCOORD_0":2},"indices":3,"material":0}]},{"primitives":[{"mode":4,"attributes":{"POSITION":4,"NORMAL":5,"TEXCOORD_0":6},"indices":7,"material":0}]},{"primitives":[{"mode":4,"attributes":{"POSITION":8,"NORMAL":9,"TEXCOORD_0":10},"indices":11,"material":0}]},{"primitives":[{"mode":4,"attributes":{"POSITION":12,"NORMAL":13,"TEXCOORD_0":14},"indices":15,"material":0}]},{"primitives":[{"mode":4,"attributes":{"POSITION":16,"NORMAL":17,"TEXCOORD_0":18},"indices":19,"material":0}]}],"animations":[{"name":"idle","samplers":[{"input":20,"output":21,"interpolation":"LINEAR"},{"input":22,"output":23,"interpolation":"LINEAR"},{"input":24,"output":25,"interpolation":"LINEAR"},{"input":26,"output":27,"interpolation":"LINEAR"},{"input":28,"output":29,"interpolation":"LINEAR"},{"input":30,"output":31,"interpolation":"LINEAR"}],"channels":[{"sampler":0,"target":{"node":9,"path":"rotation"}},{"sampler":1,"target":{"node":9,"path":"translation"}},{"sampler":2,"target":{"node":7,"path":"rotation"}},{"sampler":3,"target":{"node":5,"path":"rotation"}},{"sampler":4,"target":{"node":3,"path":"rotation"}},{"sampler":5,"target":{"node":1,"path":"rotation"}}]}]}