{"asset":{"version":"2.0","generator":"Blockbench 5.0.5 glTF exporter"},"scenes":[{"nodes":[18],"name":"blockbench_export"}],"scene":0,"nodes":[{"translation":[-0.0007812500000000111,-0.09842904732021474,0.109375],"name":"cube","mesh":0},{"rotation":[-0.3826834323650898,0,0,0.9238795325112867],"translation":[0,-0.09842904732021474,0.109375],"name":"cube","mesh":1},{"rotation":[0.06540312923014306,0,0,0.9978589232386035],"translation":[0,0.09392533617729448,-0.14902151013561438],"name":"h_head","children":[0,1]},{"translation":[0,-0.14072759077625463,-0.13336771728019903],"name":"cube","mesh":2},{"rotation":[0.21643961393810288,0,0,0.9762960071199334],"translation":[0,0.13622387963333438,0.09372120714458465],"name":"tail","children":[3]},{"translation":[0.1875,-0.01572759077625474,-0.07086771728019903],"name":"cube","mesh":3},{"translation":[-0.0625,-0.10937499999999989,0.234375],"name":"left_wing_end","children":[5]},{"translation":[0.125,-0.12510259077625463,0.16350728271980097],"name":"cube","mesh":4},{"rotation":[0.3820869842299461,-0.1936451024485723,-0.6229892844995555,0.6545192603571564],"translation":[-0.125,0.05809887963333438,-0.01565379285541535],"name":"left_wing","children":[6,7]},{"translation":[-0.1875,-0.01572759077625474,-0.07086771728019903],"name":"cube","mesh":5},{"translation":[0.0625,-0.10937499999999989,0.234375],"name":"right_wing_end","children":[9]},{"translation":[-0.125,-0.12510259077625463,0.16350728271980097],"name":"cube","mesh":6},{"rotation":[0.3820869842299461,0.1936451024485723,0.6229892844995555,0.6545192603571564],"translation":[0.125,0.05809887963333438,-0.01565379285541535],"name":"right_wing","children":[10,11]},{"translation":[0,-0.0045037111429202525,-0.03964651013561438],"name":"cube","mesh":7},{"rotation":[-0.19509032201612825,0,0,0.9807852804032304],"translation":[0,-0.0045037111429202525,-0.03964651013561438],"name":"cube","mesh":8},{"rotation":[-0.19509032201612825,0,0,0.9807852804032304],"translation":[0,-0.0045037111429202525,-0.03964651013561438],"name":"cube","mesh":9},{"rotation":[-0.19509032201612825,0,0,0.9807852804032304],"translation":[0,-0.0045037111429202525,-0.03964651013561438],"name":"cube","mesh":10},{"rotation":[-0.19509032201612825,0,0,0.9807852804032304],"translation":[0,-0.0045037111429202525,-0.03964651013561438],"name":"cube","mesh":11},{"rotation":[-0.08715574274765817,0,0,0.9961946980917455],"translation":[0,0.8795037111429203,0.03964651013561438],"name":"body","children":[2,4,8,12,13,14,15,16,17]}],"bufferViews":[{"buffer":0,"byteOffset":0,"byteLength":288,"target":34962,"byteStride":12},{"buffer":0,"byteOffset":288,"byteLength":288,"target":34962,"byteStride":12},{"buffer":0,"byteOffset":576,"byteLength":192,"target":34962,"byteStride":8},{"buffer":0,"byteOffset":768,"byteLength":72,"target":34963},{"buffer":0,"byteOffset":840,"byteLength":288,"target":34962,"byteStride":12},{"buffer":0,"byteOffset":1128,"byteLength":288,"target":34962,"byteStride":12},{"buffer":0,"byteOffset":1416,"byteLength":192,"target":34962,"byteStride":8},{"buffer":0,"byteOffset":1608,"byteLength":72,"target":34963},{"buffer":0,"byteOffset":1680,"byteLength":288,"target":34962,"byteStride":12},{"buffer":0,"byteOffset":1968,"byteLength":288,"target":34962,"byteStride":12},{"buffer":0,"byteOffset":2256,"byteLength":192,"target":34962,"byteStride":8},{"buffer":0,"byteOffset":2448,"byteLength":72,"target":34963},{"buffer":0,"byteOffset":2520,"byteLength":288,"target":34962,"byteStride":12},{"buffer":0,"byteOffset":2808,"byteLength":288,"target":34962,"byteStride":12},{"buffer":0,"byteOffset":3096,"byteLength":192,"target":34962,"byteStride":8},{"buffer":0,"byteOffset":3288,"byteLength":72,"target":34963},{"buffer":0,"byteOffset":3360,"byteLength":288,"target":34962,"byteStride":12},{"buffer":0,"byteOffset":3648,"byteLength":288,"target":34962,"byteStride":12},{"buffer":0,"byteOffset":3936,"byteLength":192,"target":34962,"byteStride":8},{"buffer":0,"byteOffset":4128,"byteLength":72,"target":34963},{"buffer":0,"byteOffset":4200,"byteLength":288,"target":34962,"byteStride":12},{"buffer":0,"byteOffset":4488,"byteLength":288,"target":34962,"byteStride":12},{"buffer":0,"byteOffset":4776,"byteLength":192,"target":34962,"byteStride":8},{"buffer":0,"byteOffset":4968,"byteLength":72,"target":34963},{"buffer":0,"byteOffset":5040,"byteLength":288,"target":34962,"byteStride":12},{"buffer":0,"byteOffset":5328,"byteLength":288,"target":34962,"byteStride":12},{"buffer":0,"byteOffset":5616,"byteLength":192,"target":34962,"byteStride":8},{"buffer":0,"byteOffset":5808,"byteLength":72,"target":34963},{"buffer":0,"byteOffset":5880,"byteLength":288,"target":34962,"byteStride":12},{"buffer":0,"byteOffset":6168,"byteLength":288,"target":34962,"byteStride":12},{"buffer":0,"byteOffset":6456,"byteLength":192,"target":34962,"byteStride":8},{"buffer":0,"byteOffset":6648,"byteLength":72,"target":34963},{"buffer":0,"byteOffset":6720,"byteLength":288,"target":34962,"byteStride":12},{"buffer":0,"byteOffset":7008,"byteLength":288,"target":34962,"byteStride":12},{"buffer":0,"byteOffset":7296,"byteLength":192,"target":34962,"byteStride":8},{"buffer":0,"byteOffset":7488,"byteLength":72,"target":34963},{"buffer":0,"byteOffset":7560,"byteLength":288,"target":34962,"byteStride":12},{"buffer":0,"byteOffset":7848,"byteLength":288,"target":34962,"byteStride":12},{"buffer":0,"byteOffset":8136,"byteLength":192,"target":34962,"byteStride":8},{"buffer":0,"byteOffset":8328,"byteLength":72,"target":34963},{"buffer":0,"byteOffset":8400,"byteLength":288,"target":34962,"byteStride":12},{"buffer":0,"byteOffset":8688,"byteLength":288,"target":34962,"byteStride":12},{"buffer":0,"byteOffset":8976,"byteLength":192,"target":34962,"byteStride":8},{"buffer":0,"byteOffset":9168,"byteLength":72,"target":34963},{"buffer":0,"byteOffset":9240,"byteLength":288,"target":34962,"byteStride":12},{"buffer":0,"byteOffset":9528,"byteLength":288,"target":34962,"byteStride":12},{"buffer":0,"byteOffset":9816,"byteLength":192,"target":34962,"byteStride":8},{"buffer":0,"byteOffset":10008,"byteLength":72,"target":34963},{"buffer":0,"byteOffset":10080,"byteLength":40},{"buffer":0,"byteOffset":10120,"byteLength":120},{"buffer":0,"byteOffset":10240,"byteLength":40},{"buffer":0,"byteOffset":10280,"byteLength":160},{"buffer":0,"byteOffset":10440,"byteLength":40},{"buffer":0,"byteOffset":10480,"byteLength":160},{"buffer":0,"byteOffset":10640,"byteLength":40},{"buffer":0,"byteOffset":10680,"byteLength":160},{"buffer":0,"byteOffset":10840,"byteLength":40},{"buffer":0,"byteOffset":10880,"byteLength":160},{"buffer":0,"byteOffset":11040,"byteLength":40},{"buffer":0,"byteOffset":11080,"byteLength":160},{"buffer":0,"byteOffset":11240,"byteLength":40},{"buffer":0,"byteOffset":11280,"byteLength":160},{"buffer":0,"byteOffset":11440,"byteLength":4},{"buffer":0,"byteOffset":11444,"byteLength":16},{"buffer":0,"byteOffset":11460,"byteLength":24},{"buffer":0,"byteOffset":11484,"byteLength":72},{"buffer":0,"byteOffset":11556,"byteLength":24},{"buffer":0,"byteOffset":11580,"byteLength":96},{"buffer":0,"byteOffset":11676,"byteLength":24},{"buffer":0,"byteOffset":11700,"byteLength":96},{"buffer":0,"byteOffset":11796,"byteLength":24},{"buffer":0,"byteOffset":11820,"byteLength":96},{"buffer":0,"byteOffset":11916,"byteLength":24},{"buffer":0,"byteOffset":11940,"byteLength":96},{"buffer":0,"byteOffset":12036,"byteLength":24},{"buffer":0,"byteOffset":12060,"byteLength":96},{"buffer":0,"byteOffset":12156,"byteLength":24},{"buffer":0,"byteOffset":12180,"byteLength":96}],"buffers":[{"byteLength":12276,"uri":"data:application/octet-stream;base64,"}],"accessors":[{"bufferView":0,"componentType":5126,"count":24,"max":[0.12656250596046448,0.29697757959365845,-0.08538228273391724],"min":[-0.125,0.04697759076952934,-0.33538228273391724],"type":"VEC3"},{"bufferView":1,"componentType":5126,"count":24,"max":[1,1,1],"min":[-1,-1,-1],"type":"VEC3"},{"bufferView":2,"componentType":5126,"count":24,"max":[0.40625,0.40625],"min":[0.078125,0],"type":"VEC2"},{"bufferView":3,"componentType":5123,"count":36,"max":[23],"min":[0],"type":"SCALAR"},{"bufferView":4,"componentType":5126,"count":24,"max":[0.0625,0.3953692615032196,-0.05840621888637543],"min":[-0.0625,0.2703692615032196,-0.18340621888637543],"type":"VEC3"},{"bufferView":5,"componentType":5126,"count":24,"max":[1,1,1],"min":[-1,-1,-1],"type":"VEC3"},{"bufferView":6,"componentType":5126,"count":24,"max":[0.4375,0.4375],"min":[0.265625,0],"type":"VEC2"},{"bufferView":7,"componentType":5123,"count":36,"max":[23],"min":[0],"type":"SCALAR"},{"bufferView":8,"componentType":5126,"count":24,"max":[0.125,0.14079008996486664,0.5083677172660828],"min":[-0.125,0.14072759449481964,0.13336771726608276],"type":"VEC3"},{"bufferView":9,"componentType":5126,"count":24,"max":[1,1,1],"min":[-1,-1,-1],"type":"VEC3"},{"bufferView":10,"componentType":5126,"count":24,"max":[0.515625,0.234375],"min":[0,0],"type":"VEC2"},{"bufferView":11,"componentType":5123,"count":36,"max":[23],"min":[0],"type":"SCALAR"},{"bufferView":12,"componentType":5126,"count":24,"max":[-0.187437504529953,0.14072759449481964,0.38336771726608276],"min":[-0.1875,-0.10927240550518036,0.07086771726608276],"type":"VEC3"},{"bufferView":13,"componentType":5126,"count":24,"max":[1,1,1],"min":[-1,-1,-1],"type":"VEC3"},{"bufferView":14,"componentType":5126,"count":24,"max":[0.359375,0.5],"min":[0.1875,0],"type":"VEC2"},{"bufferView":15,"componentType":5123,"count":36,"max":[23],"min":[0],"type":"SCALAR"},{"bufferView":16,"componentType":5126,"count":24,"max":[-0.125,0.14072759449481964,0.07086771726608276],"min":[-0.1875,-0.10927240550518036,-0.17913228273391724],"type":"VEC3"},{"bufferView":17,"componentType":5126,"count":24,"max":[1,1,1],"min":[-1,-1,-1],"type":"VEC3"},{"bufferView":18,"componentType":5126,"count":24,"max":[0.390625,0.421875],"min":[0,0.078125],"type":"VEC2"},{"bufferView":19,"componentType":5123,"count":36,"max":[23],"min":[0],"type":"SCALAR"},{"bufferView":20,"componentType":5126,"count":24,"max":[0.187562495470047,0.14072759449481964,0.38336771726608276],"min":[0.1875,-0.10927240550518036,0.07086771726608276],"type":"VEC3"},{"bufferView":21,"componentType":5126,"count":24,"max":[1,1,1],"min":[-1,-1,-1],"type":"VEC3"},{"bufferView":22,"componentType":5126,"count":24,"max":[0.359375,0.5],"min":[0.1875,0],"type":"VEC2"},{"bufferView":23,"componentType":5123,"count":36,"max":[23],"min":[0],"type":"SCALAR"},{"bufferView":24,"componentType":5126,"count":24,"max":[0.1875,0.14072759449481964,0.07086771726608276],"min":[0.125,-0.10927240550518036,-0.17913228273391724],"type":"VEC3"},{"bufferView":25,"componentType":5126,"count":24,"max":[1,1,1],"min":[-1,-1,-1],"type":"VEC3"},{"bufferView":26,"componentType":5126,"count":24,"max":[0.390625,0.421875],"min":[0,0.078125],"type":"VEC2"},{"bufferView":27,"componentType":5123,"count":36,"max":[23],"min":[0],"type":"SCALAR"},{"bufferView":28,"componentType":5126,"count":24,"max":[0.125,0.14072759449481964,0.13336771726608276],"min":[-0.125,-0.10927240550518036,-0.17913228273391724],"type":"VEC3"},{"bufferView":29,"componentType":5126,"count":24,"max":[1,1,1],"min":[-1,-1,-1],"type":"VEC3"},{"bufferView":30,"componentType":5126,"count":24,"max":[0.328125,0.3125],"min":[0,0],"type":"VEC2"},{"bufferView":31,"componentType":5123,"count":36,"max":[23],"min":[0],"type":"SCALAR"},{"bufferView":32,"componentType":5126,"count":24,"max":[-0.0625,-0.11706691235303879,-0.00019872163829859346],"min":[-0.125,-0.17956691980361938,-0.00026122163399122655],"type":"VEC3"},{"bufferView":33,"componentType":5126,"count":24,"max":[1,1,1],"min":[-1,-1,-1],"type":"VEC3"},{"bufferView":34,"componentType":5126,"count":24,"max":[0.25,0.4375],"min":[0.0625,0.078125],"type":"VEC2"},{"bufferView":35,"componentType":5123,"count":36,"max":[23],"min":[0],"type":"SCALAR"},{"bufferView":36,"componentType":5126,"count":24,"max":[-0.0625,-0.1795044094324112,0.04661377891898155],"min":[-0.125,-0.17956691980361938,-0.07838622480630875],"type":"VEC3"},{"bufferView":37,"componentType":5126,"count":24,"max":[1,1,1],"min":[-1,-1,-1],"type":"VEC3"},{"bufferView":38,"componentType":5126,"count":24,"max":[0.453125,0.265625],"min":[0.28125,0.046875],"type":"VEC2"},{"bufferView":39,"componentType":5123,"count":36,"max":[23],"min":[0],"type":"SCALAR"},{"bufferView":40,"componentType":5126,"count":24,"max":[0.125,-0.11706691235303879,-0.00019872163829859346],"min":[0.0625,-0.17956691980361938,-0.00026122163399122655],"type":"VEC3"},{"bufferView":41,"componentType":5126,"count":24,"max":[1,1,1],"min":[-1,-1,-1],"type":"VEC3"},{"bufferView":42,"componentType":5126,"count":24,"max":[0.25,0.4375],"min":[0.0625,0.078125],"type":"VEC2"},{"bufferView":43,"componentType":5123,"count":36,"max":[23],"min":[0],"type":"SCALAR"},{"bufferView":44,"componentType":5126,"count":24,"max":[0.125,-0.1795044094324112,0.04661377891898155],"min":[0.0625,-0.17956691980361938,-0.07838622480630875],"type":"VEC3"},{"bufferView":45,"componentType":5126,"count":24,"max":[1,1,1],"min":[-1,-1,-1],"type":"VEC3"},{"bufferView":46,"componentType":5126,"count":24,"max":[0.453125,0.265625],"min":[0.28125,0.046875],"type":"VEC2"},{"bufferView":47,"componentType":5123,"count":36,"max":[23],"min":[0],"type":"SCALAR"},{"bufferView":48,"componentType":5126,"count":10,"max":[0.5],"min":[0],"type":"SCALAR"},{"bufferView":49,"componentType":5126,"count":10,"max":[0,0.9420037269592285,0.039646510034799576],"min":[0,0.7545037269592285,0.039646510034799576],"type":"VEC3"},{"bufferView":50,"componentType":5126,"count":10,"max":[0.5],"min":[0],"type":"SCALAR"},{"bufferView":51,"componentType":5126,"count":10,"max":[0.6542975306510925,-0.06691838055849075,-0.327985554933548,0.6781166195869446],"min":[0.2782016694545746,-0.5134486556053162,-0.7663277983665466,0.2677984833717346],"type":"VEC4"},{"bufferView":52,"componentType":5126,"count":10,"max":[0.5],"min":[0],"type":"SCALAR"},{"bufferView":53,"componentType":5126,"count":10,"max":[0.10886687785387039,0,0,0.9978589415550232],"min":[0.06540312618017197,0,0,0.9940563440322876],"type":"VEC4"},{"bufferView":54,"componentType":5126,"count":10,"max":[0.5],"min":[0],"type":"SCALAR"},{"bufferView":55,"componentType":5126,"count":10,"max":[0.30070579051971436,0,0,0.9985129833221436],"min":[-0.19509032368659973,0,0,0.9537169337272644],"type":"VEC4"},{"bufferView":56,"componentType":5126,"count":10,"max":[0.5],"min":[0],"type":"SCALAR"},{"bufferView":57,"componentType":5126,"count":10,"max":[0.6542975306510925,0.5134486556053162,0.7663277983665466,0.6781166195869446],"min":[0.2782016694545746,0.06691838055849075,0.327985554933548,0.2677984833717346],"type":"VEC4"},{"bufferView":58,"componentType":5126,"count":10,"max":[0.5],"min":[0],"type":"SCALAR"},{"bufferView":59,"componentType":5126,"count":10,"max":[0,0.258819043636322,0,0.9985129833221436],"min":[0,-0.36243805289268494,0,0.9320078492164612],"type":"VEC4"},{"bufferView":60,"componentType":5126,"count":10,"max":[0.5],"min":[0],"type":"SCALAR"},{"bufferView":61,"componentType":5126,"count":10,"max":[0,0.36243805289268494,0,0.9985129833221436],"min":[0,-0.258819043636322,0,0.9320078492164612],"type":"VEC4"},{"bufferView":62,"componentType":5126,"count":1,"max":[0],"min":[0],"type":"SCALAR"},{"bufferView":63,"componentType":5126,"count":1,"max":[-0.19509032368659973,0,0,0.9807852506637573],"min":[-0.19509032368659973,0,0,0.9807852506637573],"type":"VEC4"},{"bufferView":64,"componentType":5126,"count":6,"max":[0.3333333432674408],"min":[0],"type":"SCALAR"},{"bufferView":65,"componentType":5126,"count":6,"max":[0,0.8795037269592285,0.039646510034799576],"min":[0,0.7857537269592285,0.039646510034799576],"type":"VEC3"},{"bufferView":66,"componentType":5126,"count":6,"max":[0.3333333432674408],"min":[0],"type":"SCALAR"},{"bufferView":67,"componentType":5126,"count":6,"max":[0.6542975306510925,-0.06691838055849075,-0.327985554933548,0.6781166195869446],"min":[0.2782016694545746,-0.5134486556053162,-0.7663277983665466,0.2677984833717346],"type":"VEC4"},{"bufferView":68,"componentType":5126,"count":6,"max":[0.3333333432674408],"min":[0],"type":"SCALAR"},{"bufferView":69,"componentType":5126,"count":6,"max":[0.10886687785387039,0,0,0.9978589415550232],"min":[0.06540312618017197,0,0,0.9940563440322876],"type":"VEC4"},{"bufferView":70,"componentType":5126,"count":6,"max":[0.3333333432674408],"min":[0],"type":"SCALAR"},{"bufferView":71,"componentType":5126,"count":6,"max":[0.30070579051971436,0,0,0.9985129833221436],"min":[-0.19509032368659973,0,0,0.9537169337272644],"type":"VEC4"},{"bufferView":72,"componentType":5126,"count":6,"max":[0.3333333432674408],"min":[0],"type":"SCALAR"},{"bufferView":73,"componentType":5126,"count":6,"max":[0.6542975306510925,0.5134486556053162,0.7663277983665466,0.6781166195869446],"min":[0.2782016694545746,0.06691838055849075,0.327985554933548,0.2677984833717346],"type":"VEC4"},{"bufferView":74,"componentType":5126,"count":6,"max":[0.3333333432674408],"min":[0],"type":"SCALAR"},{"bufferView":75,"componentType":5126,"count":6,"max":[0,0.258819043636322,0,0.9985129833221436],"min":[0,-0.36243805289268494,0,0.9320078492164612],"type":"VEC4"},{"bufferView":76,"componentType":5126,"count":6,"max":[0.3333333432674408],"min":[0],"type":"SCALAR"},{"bufferView":77,"componentType":5126,"count":6,"max":[0,0.36243805289268494,0,0.9985129833221436],"min":[0,-0.258819043636322,0,0.9320078492164612],"type":"VEC4"}],"materials":[{"pbrMetallicRoughness":{"metallicFactor":0,"roughnessFactor":1,"baseColorTexture":{"index":0}},"alphaMode":"MASK","alphaCutoff":0.05,"doubleSided":true}],"textures":[{"sampler":0,"source":0,"name":"blue_bird"}],"samplers":[{"magFilter":9728,"minFilter":9728,"wrapS":33071,"wrapT":33071}],"images":[{"mimeType":"image/png","uri":"data:image/png;base64,"}],"meshes":[{"primitives":[{"mode":4,"attributes":{"POSITION":0,"NORMAL":1,"TEXCOORD_0":2},"indices":3,"material":0}]},{"primitives":[{"mode":4,"attributes":{"POSITION":4,"NORMAL":5,"TEXCOORD_0":6},"indices":7,"material":0}]},{"primitives":[{"mode":4,"attributes":{"POSITION":8,"NORMAL":9,"TEXCOORD_0":10},"indices":11,"material":0}]},{"primitives":[{"mode":4,"attributes":{"POSITION":12,"NORMAL":13,"TEXCOORD_0":14},"indices":15,"material":0}]},{"primitives":[{"mode":4,"attributes":{"POSITION":16,"NORMAL":17,"TEXCOORD_0":18},"indices":19,"material":0}]},{"primitives":[{"mode":4,"attributes":{"POSITION":20,"NORMAL":21,"TEXCOORD_0":22},"indices":23,"material":0}]},{"primitives":[{"mode":4,"attributes":{"POSITION":24,"NORMAL":25,"TEXCOORD_0":26},"indices":27,"material":0}]},{"primitives":[{"mode":4,"attributes":{"POSITION":28,"NORMAL":29,"TEXCOORD_0":30},"indices":31,"material":0}]},{"primitives":[{"mode":4,"attributes":{"POSITION":32,"NORMAL":33,"TEXCOORD_0":34},"indices":35,"material":0}]},{"primitives":[{"mode":4,"attributes":{"POSITION":36,"NORMAL":37,"TEXCOORD_0":38},"indices":39,"material":0}]},{"primitives":[{"mode":4,"attributes":{"POSITION":40,"NORMAL":41,"TEXCOORD_0":42},"indices":43,"material":0}]},{"primitives":[{"mode":4,"attributes":{"POSITION":44,"NORMAL":45,"TEXCOORD_0":46},"indices":47,"material":0}]}],"animations":[{"name":"idle","samplers":[{"input":48,"output":49,"interpolation":"LINEAR"},{"input":50,"output":51,"interpolation":"LINEAR"},{"input":52,"output":53,"interpolation":"LINEAR"},{"input":54,"output":55,"interpolation":"LINEAR"},{"input":56,"output":57,"interpolation":"LINEAR"},{"input":58,"output":59,"interpolation":"LINEAR"},{"input":60,"output":61,"interpolation":"LINEAR"}],"channels":[{"sampler":0,"target":{"node":18,"path":"translation"}},{"sampler":1,"target":{"node":8,"path":"rotation"}},{"sampler":2,"target":{"node":2,"path":"rotation"}},{"sampler":3,"target":{"node":4,"path":"rotation"}},{"sampler":4,"target":{"node":12,"path":"rotation"}},{"sampler":5,"target":{"node":6,"path":"rotation"}},{"sampler":6,"target":{"node":10,"path":"rotation"}}]},{"name":"walk","samplers":[{"input":62,"output":63,"interpolation":"LINEAR"},{"input":64,"output":65,"interpolation":"LINEAR"},{"input":66,"output":67,"interpolation":"LINEAR"},{"input":68,"output":69,"interpolation":"LINEAR"},{"input":70,"output":71,"interpolation":"LINEAR"},{"input":72,"output":73,"interpolation":"LINEAR"},{"input":74,"output":75,"interpolation":"LINEAR"},{"input":76,"output":77,"interpolation":"LINEAR"}],"channels":[{"sampler":0,"target":{"node":18,"path":"rotation"}},{"sampler":1,"target":{"node":18,"path":"translation"}},{"sampler":2,"target":{"node":8,"path":"rotation"}},{"sampler":3,"target":{"node":2,"path":"rotation"}},{"sampler":4,"target":{"node":4,"path":"rotation"}},{"sampler":5,"target":{"node":12,"path":"rotation"}},{"sampler":6,"target":{"node":6,"path":"rotation"}},{"sampler":7,"target":{"node":10,"path":"rotation"}}]}]}