{"asset":{"version":"2.0","generator":"Blockbench 5.0.5 glTF exporter"},"scenes":[{"nodes":[20],"name":"blockbench_export"}],"scene":0,"nodes":[{"rotation":[0,0.3826834323650898,0,0.9238795325112867],"translation":[0.3861277777943606,-0.788993125,-1.4750336583920123],"name":"cube","mesh":0},{"translation":[0.0019370298323799773,0,1.0876374751448779],"name":"string9","children":[0]},{"translation":[0.38806480762674056,-0.788993125,-0.3873961832471345],"name":"cube","mesh":1},{"translation":[-0.7729012234857944,0,0.7741925767073781],"name":"string8","children":[1,2]},{"rotation":[0,-0.3826834323650898,0,0.9238795325112867],"translation":[-0.3848364158590538,-0.788993125,0.3867963934602436],"name":"cube","mesh":2},{"translation":[0.0032513242874827597,0,1.0876374751448783],"name":"string7","children":[3,4]},{"translation":[-0.38158509157157106,-0.788993125,1.474433868605122],"name":"cube","mesh":3},{"translation":[0.7449994665715725,0,0.706052381394878],"name":"string6","children":[5,6]},{"rotation":[0,0.3826834323650898,0,0.9238795325112867],"translation":[0.3634143750000014,-0.788993125,2.18048625],"name":"cube","mesh":4},{"translation":[5.025099062499999,0.9707003125,-2.18048625],"name":"strings2","children":[7,8]},{"rotation":[0,-0.3826834323650898,0,0.9238795325112867],"translation":[0.3861277777943588,-0.788993125,1.4750336583920123],"name":"cube","mesh":5},{"translation":[0.0019370298323817536,0,-1.0876374751448779],"name":"string5","children":[10]},{"translation":[0.38806480762674056,-0.788993125,0.3873961832471345],"name":"cube","mesh":6},{"translation":[-0.7729012234857944,0,-0.7741925767073781],"name":"string4","children":[11,12]},{"rotation":[0,0.3826834323650898,0,0.9238795325112867],"translation":[-0.3848364158590538,-0.788993125,-0.3867963934602436],"name":"cube","mesh":7},{"translation":[0.0032513242874863124,0,-1.0876374751448783],"name":"string3","children":[13,14]},{"translation":[-0.3815850915715675,-0.788993125,-1.474433868605122],"name":"cube","mesh":8},{"translation":[0.7449994665715671,0,-0.706052381394878],"name":"string2","children":[15,16]},{"rotation":[0,-0.3826834323650898,0,0.9238795325112867],"translation":[0.3634143749999996,-0.788993125,-2.18048625],"name":"cube","mesh":9},{"translation":[-5.0194278125,0.9707003125,2.18048625],"name":"strings","children":[17,18]},{"rotation":[0,-0.3826834323650898,0,0.9238795325112867],"translation":[0,0.9375,0],"name":"bone","children":[9,19]}],"bufferViews":[{"buffer":0,"byteOffset":0,"byteLength":288,"target":34962,"byteStride":12},{"buffer":0,"byteOffset":288,"byteLength":288,"target":34962,"byteStride":12},{"buffer":0,"byteOffset":576,"byteLength":192,"target":34962,"byteStride":8},{"buffer":0,"byteOffset":768,"byteLength":72,"target":34963},{"buffer":0,"byteOffset":840,"byteLength":288,"target":34962,"byteStride":12},{"buffer":0,"byteOffset":1128,"byteLength":288,"target":34962,"byteStride":12},{"buffer":0,"byteOffset":1416,"byteLength":192,"target":34962,"byteStride":8},{"buffer":0,"byteOffset":1608,"byteLength":72,"target":34963},{"buffer":0,"byteOffset":1680,"byteLength":288,"target":34962,"byteStride":12},{"buffer":0,"byteOffset":1968,"byteLength":288,"target":34962,"byteStride":12},{"buffer":0,"byteOffset":2256,"byteLength":192,"target":34962,"byteStride":8},{"buffer":0,"byteOffset":2448,"byteLength":72,"target":34963},{"buffer":0,"byteOffset":2520,"byteLength":288,"target":34962,"byteStride":12},{"buffer":0,"byteOffset":2808,"byteLength":288,"target":34962,"byteStride":12},{"buffer":0,"byteOffset":3096,"byteLength":192,"target":34962,"byteStride":8},{"buffer":0,"byteOffset":3288,"byteLength":72,"target":34963},{"buffer":0,"byteOffset":3360,"byteLength":288,"target":34962,"byteStride":12},{"buffer":0,"byteOffset":3648,"byteLength":288,"target":34962,"byteStride":12},{"buffer":0,"byteOffset":3936,"byteLength":192,"target":34962,"byteStride":8},{"buffer":0,"byteOffset":4128,"byteLength":72,"target":34963},{"buffer":0,"byteOffset":4200,"byteLength":288,"target":34962,"byteStride":12},{"buffer":0,"byteOffset":4488,"byteLength":288,"target":34962,"byteStride":12},{"buffer":0,"byteOffset":4776,"byteLength":192,"target":34962,"byteStride":8},{"buffer":0,"byteOffset":4968,"byteLength":72,"target":34963},{"buffer":0,"byteOffset":5040,"byteLength":288,"target":34962,"byteStride":12},{"buffer":0,"byteOffset":5328,"byteLength":288,"target":34962,"byteStride":12},{"buffer":0,"byteOffset":5616,"byteLength":192,"target":34962,"byteStride":8},{"buffer":0,"byteOffset":5808,"byteLength":72,"target":34963},{"buffer":0,"byteOffset":5880,"byteLength":288,"target":34962,"byteStride":12},{"buffer":0,"byteOffset":6168,"byteLength":288,"target":34962,"byteStride":12},{"buffer":0,"byteOffset":6456,"byteLength":192,"target":34962,"byteStride":8},{"buffer":0,"byteOffset":6648,"byteLength":72,"target":34963},{"buffer":0,"byteOffset":6720,"byteLength":288,"target":34962,"byteStride":12},{"buffer":0,"byteOffset":7008,"byteLength":288,"target":34962,"byteStride":12},{"buffer":0,"byteOffset":7296,"byteLength":192,"target":34962,"byteStride":8},{"buffer":0,"byteOffset":7488,"byteLength":72,"target":34963},{"buffer":0,"byteOffset":7560,"byteLength":288,"target":34962,"byteStride":12},{"buffer":0,"byteOffset":7848,"byteLength":288,"target":34962,"byteStride":12},{"buffer":0,"byteOffset":8136,"byteLength":192,"target":34962,"byteStride":8},{"buffer":0,"byteOffset":8328,"byteLength":72,"target":34963},{"buffer":0,"byteOffset":8400,"byteLength":180},{"buffer":0,"byteOffset":8580,"byteLength":720},{"buffer":0,"byteOffset":9300,"byteLength":180},{"buffer":0,"byteOffset":9480,"byteLength":540},{"buffer":0,"byteOffset":10020,"byteLength":180},{"buffer":0,"byteOffset":10200,"byteLength":720},{"buffer":0,"byteOffset":10920,"byteLength":180},{"buffer":0,"byteOffset":11100,"byteLength":720},{"buffer":0,"byteOffset":11820,"byteLength":180},{"buffer":0,"byteOffset":12000,"byteLength":720},{"buffer":0,"byteOffset":12720,"byteLength":180},{"buffer":0,"byteOffset":12900,"byteLength":720},{"buffer":0,"byteOffset":13620,"byteLength":180},{"buffer":0,"byteOffset":13800,"byteLength":720},{"buffer":0,"byteOffset":14520,"byteLength":180},{"buffer":0,"byteOffset":14700,"byteLength":540},{"buffer":0,"byteOffset":15240,"byteLength":180},{"buffer":0,"byteOffset":15420,"byteLength":720},{"buffer":0,"byteOffset":16140,"byteLength":180},{"buffer":0,"byteOffset":16320,"byteLength":720},{"buffer":0,"byteOffset":17040,"byteLength":180},{"buffer":0,"byteOffset":17220,"byteLength":720},{"buffer":0,"byteOffset":17940,"byteLength":180},{"buffer":0,"byteOffset":18120,"byteLength":720},{"buffer":0,"byteOffset":18840,"byteLength":20},{"buffer":0,"byteOffset":18860,"byteLength":80}],"buffers":[{"byteLength":18940,"uri":"data:application/octet-stream;base64,"}],"accessors":[{"bufferView":0,"componentType":5126,"count":24,"max":[-1.3159773349761963,0.9085359573364258,1.861161470413208],"min":[-1.3160399198532104,-0.9085359573364258,0.7709183096885681],"type":"VEC3"},{"bufferView":1,"componentType":5126,"count":24,"max":[1,1,1],"min":[-1,-1,-1],"type":"VEC3"},{"bufferView":2,"componentType":5126,"count":24,"max":[0.265625,0.5],"min":[0.109375,0],"type":"VEC2"},{"bufferView":3,"componentType":5123,"count":36,"max":[23],"min":[0],"type":"SCALAR"},{"bufferView":4,"componentType":5126,"count":24,"max":[-0.38539665937423706,0.9085359573364258,1.4757022857666016],"min":[-0.38545915484428406,-0.9085359573364258,0.38545915484428406],"type":"VEC3"},{"bufferView":5,"componentType":5126,"count":24,"max":[1,1,1],"min":[-1,-1,-1],"type":"VEC3"},{"bufferView":6,"componentType":5126,"count":24,"max":[0.328125,0.5],"min":[0.109375,0.171875],"type":"VEC2"},{"bufferView":7,"componentType":5123,"count":36,"max":[23],"min":[0],"type":"SCALAR"},{"bufferView":8,"componentType":5126,"count":24,"max":[0.00006249691796256229,0.9085359573364258,0.5451215505599976],"min":[-3.080765864638124e-9,-0.9085359573364258,-0.5451215505599976],"type":"VEC3"},{"bufferView":9,"componentType":5126,"count":24,"max":[1,1,1],"min":[-1,-1,-1],"type":"VEC3"},{"bufferView":10,"componentType":5126,"count":24,"max":[0.453125,0.546875],"min":[0.109375,0],"type":"VEC2"},{"bufferView":11,"componentType":5123,"count":36,"max":[23],"min":[0],"type":"SCALAR"},{"bufferView":12,"componentType":5126,"count":24,"max":[0.38552165031433105,0.9085359573364258,-0.38545915484428406],"min":[0.38545915484428406,-0.9085359573364258,-1.4757022857666016],"type":"VEC3"},{"bufferView":13,"componentType":5126,"count":24,"max":[1,1,1],"min":[-1,-1,-1],"type":"VEC3"},{"bufferView":14,"componentType":5126,"count":24,"max":[0.4375,0.5],"min":[0.328125,0],"type":"VEC2"},{"bufferView":15,"componentType":5123,"count":36,"max":[23],"min":[0],"type":"SCALAR"},{"bufferView":16,"componentType":5126,"count":24,"max":[1.316102385520935,0.9085359573364258,-0.7709183096885681],"min":[1.3160399198532104,-0.9085359573364258,-1.861161470413208],"type":"VEC3"},{"bufferView":17,"componentType":5126,"count":24,"max":[1,1,1],"min":[-1,-1,-1],"type":"VEC3"},{"bufferView":18,"componentType":5126,"count":24,"max":[0.390625,0.5],"min":[0.21875,0.171875],"type":"VEC2"},{"bufferView":19,"componentType":5123,"count":36,"max":[23],"min":[0],"type":"SCALAR"},{"bufferView":20,"componentType":5126,"count":24,"max":[-1.3159773349761963,0.9085359573364258,-0.7709183096885681],"min":[-1.3160399198532104,-0.9085359573364258,-1.861161470413208],"type":"VEC3"},{"bufferView":21,"componentType":5126,"count":24,"max":[1,1,1],"min":[-1,-1,-1],"type":"VEC3"},{"bufferView":22,"componentType":5126,"count":24,"max":[0.265625,0.5],"min":[0.109375,0],"type":"VEC2"},{"bufferView":23,"componentType":5123,"count":36,"max":[23],"min":[0],"type":"SCALAR"},{"bufferView":24,"componentType":5126,"count":24,"max":[-0.38539665937423706,0.9085359573364258,-0.38545915484428406],"min":[-0.38545915484428406,-0.9085359573364258,-1.4757022857666016],"type":"VEC3"},{"bufferView":25,"componentType":5126,"count":24,"max":[1,1,1],"min":[-1,-1,-1],"type":"VEC3"},{"bufferView":26,"componentType":5126,"count":24,"max":[0.328125,0.5],"min":[0.109375,0.171875],"type":"VEC2"},{"bufferView":27,"componentType":5123,"count":36,"max":[23],"min":[0],"type":"SCALAR"},{"bufferView":28,"componentType":5126,"count":24,"max":[0.00006249691796256229,0.9085359573364258,0.5451215505599976],"min":[-3.080765864638124e-9,-0.9085359573364258,-0.5451215505599976],"type":"VEC3"},{"bufferView":29,"componentType":5126,"count":24,"max":[1,1,1],"min":[-1,-1,-1],"type":"VEC3"},{"bufferView":30,"componentType":5126,"count":24,"max":[0.453125,0.546875],"min":[0.109375,0],"type":"VEC2"},{"bufferView":31,"componentType":5123,"count":36,"max":[23],"min":[0],"type":"SCALAR"},{"bufferView":32,"componentType":5126,"count":24,"max":[0.38552165031433105,0.9085359573364258,1.4757022857666016],"min":[0.38545915484428406,-0.9085359573364258,0.38545915484428406],"type":"VEC3"},{"bufferView":33,"componentType":5126,"count":24,"max":[1,1,1],"min":[-1,-1,-1],"type":"VEC3"},{"bufferView":34,"componentType":5126,"count":24,"max":[0.4375,0.5],"min":[0.328125,0],"type":"VEC2"},{"bufferView":35,"componentType":5123,"count":36,"max":[23],"min":[0],"type":"SCALAR"},{"bufferView":36,"componentType":5126,"count":24,"max":[1.316102385520935,0.9085359573364258,1.861161470413208],"min":[1.3160399198532104,-0.9085359573364258,0.7709183096885681],"type":"VEC3"},{"bufferView":37,"componentType":5126,"count":24,"max":[1,1,1],"min":[-1,-1,-1],"type":"VEC3"},{"bufferView":38,"componentType":5126,"count":24,"max":[0.390625,0.5],"min":[0.21875,0.171875],"type":"VEC2"},{"bufferView":39,"componentType":5123,"count":36,"max":[23],"min":[0],"type":"SCALAR"},{"bufferView":40,"componentType":5126,"count":45,"max":[2.6666667461395264],"min":[0],"type":"SCALAR"},{"bufferView":41,"componentType":5126,"count":45,"max":[0,0.7372773289680481,0,1],"min":[0,0,0,0.6755902171134949],"type":"VEC4"},{"bufferView":42,"componentType":5126,"count":45,"max":[2.6666667461395264],"min":[0],"type":"SCALAR"},{"bufferView":43,"componentType":5126,"count":45,"max":[-4.83192777633667,0.9707003235816956,2.2429862022399902],"min":[-5.20692777633667,0.9707003235816956,2.1179862022399902],"type":"VEC3"},{"bufferView":44,"componentType":5126,"count":45,"max":[2.6666667461395264],"min":[0],"type":"SCALAR"},{"bufferView":45,"componentType":5126,"count":45,"max":[0,0.09988415986299515,0,1],"min":[0,-0.7857312560081482,0,0.6185680627822876],"type":"VEC4"},{"bufferView":46,"componentType":5126,"count":45,"max":[2.6666667461395264],"min":[0],"type":"SCALAR"},{"bufferView":47,"componentType":5126,"count":45,"max":[0,0.09462414681911469,0,1],"min":[0,-0.7879267930984497,0,0.6157689094543457],"type":"VEC4"},{"bufferView":48,"componentType":5126,"count":45,"max":[2.6666667461395264],"min":[0],"type":"SCALAR"},{"bufferView":49,"componentType":5126,"count":45,"max":[0,0.7792935371398926,0,1],"min":[0,-0.09911894053220749,0,0.626659095287323],"type":"VEC4"},{"bufferView":50,"componentType":5126,"count":45,"max":[2.6666667461395264],"min":[0],"type":"SCALAR"},{"bufferView":51,"componentType":5126,"count":45,"max":[0,0.7730104327201843,0,1],"min":[0,-0.0980171412229538,0,0.6343932747840881],"type":"VEC4"},{"bufferView":52,"componentType":5126,"count":45,"max":[2.6666667461395264],"min":[0],"type":"SCALAR"},{"bufferView":53,"componentType":5126,"count":45,"max":[0,0,0,1],"min":[0,-0.7372773289680481,0,0.6755902171134949],"type":"VEC4"},{"bufferView":54,"componentType":5126,"count":45,"max":[2.6666667461395264],"min":[0],"type":"SCALAR"},{"bufferView":55,"componentType":5126,"count":45,"max":[5.212599277496338,0.9707003235816956,-2.1179862022399902],"min":[4.837599277496338,0.9707003235816956,-2.2429862022399902],"type":"VEC3"},{"bufferView":56,"componentType":5126,"count":45,"max":[2.6666667461395264],"min":[0],"type":"SCALAR"},{"bufferView":57,"componentType":5126,"count":45,"max":[0,0.7857312560081482,0,1],"min":[0,-0.09988415986299515,0,0.6185680627822876],"type":"VEC4"},{"bufferView":58,"componentType":5126,"count":45,"max":[2.6666667461395264],"min":[0],"type":"SCALAR"},{"bufferView":59,"componentType":5126,"count":45,"max":[0,0.7879267930984497,0,1],"min":[0,-0.09462414681911469,0,0.6157689094543457],"type":"VEC4"},{"bufferView":60,"componentType":5126,"count":45,"max":[2.6666667461395264],"min":[0],"type":"SCALAR"},{"bufferView":61,"componentType":5126,"count":45,"max":[0,0.09911894053220749,0,1],"min":[0,-0.7792935371398926,0,0.626659095287323],"type":"VEC4"},{"bufferView":62,"componentType":5126,"count":45,"max":[2.6666667461395264],"min":[0],"type":"SCALAR"},{"bufferView":63,"componentType":5126,"count":45,"max":[0,0.0980171412229538,0,1],"min":[0,-0.7730104327201843,0,0.6343932747840881],"type":"VEC4"},{"bufferView":64,"componentType":5126,"count":5,"max":[2.6666667461395264],"min":[0],"type":"SCALAR"},{"bufferView":65,"componentType":5126,"count":5,"max":[0,0.3826834261417389,0,0.9238795042037964],"min":[0,-0.9238795042037964,0,-0.9238795042037964],"type":"VEC4"}],"materials":[{"pbrMetallicRoughness":{"metallicFactor":0,"roughnessFactor":1,"baseColorTexture":{"index":0}},"alphaMode":"MASK","alphaCutoff":0.05,"doubleSided":true}],"textures":[{"sampler":0,"source":0,"name":"ult_strings"}],"samplers":[{"magFilter":9728,"minFilter":9728,"wrapS":33071,"wrapT":33071}],"images":[{"mimeType":"image/png","uri":"data:image/png;base64,"}],"meshes":[{"primitives":[{"mode":4,"attributes":{"POSITION":0,"NORMAL":1,"TEXCOORD_0":2},"indices":3,"material":0}]},{"primitives":[{"mode":4,"attributes":{"POSITION":4,"NORMAL":5,"TEXCOORD_0":6},"indices":7,"material":0}]},{"primitives":[{"mode":4,"attributes":{"POSITION":8,"NORMAL":9,"TEXCOORD_0":10},"indices":11,"material":0}]},{"primitives":[{"mode":4,"attributes":{"POSITION":12,"NORMAL":13,"TEXCOORD_0":14},"indices":15,"material":0}]},{"primitives":[{"mode":4,"attributes":{"POSITION":16,"NORMAL":17,"TEXCOORD_0":18},"indices":19,"material":0}]},{"primitives":[{"mode":4,"attributes":{"POSITION":20,"NORMAL":21,"TEXCOORD_0":22},"indices":23,"material":0}]},{"primitives":[{"mode":4,"attributes":{"POSITION":24,"NORMAL":25,"TEXCOORD_0":26},"indices":27,"material":0}]},{"primitives":[{"mode":4,"attributes":{"POSITION":28,"NORMAL":29,"TEXCOORD_0":30},"indices":31,"material":0}]},{"primitives":[{"mode":4,"attributes":{"POSITION":32,"NORMAL":33,"TEXCOORD_0":34},"indices":35,"material":0}]},{"primitives":[{"mode":4,"attributes":{"POSITION":36,"NORMAL":37,"TEXCOORD_0":38},"indices":39,"material":0}]}],"animations":[{"name":"spin","samplers":[{"input":40,"output":41,"interpolation":"LINEAR"},{"input":42,"output":43,"interpolation":"LINEAR"},{"input":44,"output":45,"interpolation":"LINEAR"},{"input":46,"output":47,"interpolation":"LINEAR"},{"input":48,"output":49,"interpolation":"LINEAR"},{"input":50,"output":51,"interpolation":"LINEAR"},{"input":52,"output":53,"interpolation":"LINEAR"},{"input":54,"output":55,"interpolation":"LINEAR"},{"input":56,"output":57,"interpolation":"LINEAR"},{"input":58,"output":59,"interpolation":"LINEAR"},{"input":60,"output":61,"interpolation":"LINEAR"},{"input":62,"output":63,"interpolation":"LINEAR"},{"input":64,"output":65,"interpolation":"LINEAR"}],"channels":[{"sampler":0,"target":{"node":19,"path":"rotation"}},{"sampler":1,"target":{"node":19,"path":"translation"}},{"sampler":2,"target":{"node":17,"path":"rotation"}},{"sampler":3,"target":{"node":15,"path":"rotation"}},{"sampler":4,"target":{"node":13,"path":"rotation"}},{"sampler":5,"target":{"node":11,"path":"rotation"}},{"sampler":6,"target":{"node":9,"path":"rotation"}},{"sampler":7,"target":{"node":9,"path":"translation"}},{"sampler":8,"target":{"node":7,"path":"rotation"}},{"sampler":9,"target":{"node":5,"path":"rotation"}},{"sampler":10,"target":{"node":3,"path":"rotation"}},{"sampler":11,"target":{"node":1,"path":"rotation"}},{"sampler":12,"target":{"node":20,"path":"rotation"}}]}]}