{"asset":{"version":"2.0","generator":"Blockbench 5.0.5 glTF exporter"},"scenes":[{"nodes":[18],"name":"blockbench_export"}],"scene":0,"nodes":[{"translation":[0.28125,-0.75,0],"name":"cube","mesh":0},{"translation":[0.28125,-0.75,0],"name":"cube","mesh":1},{"translation":[-0.28125,0.6785361771743652,-0.4053302892509068],"name":"left_wing","children":[0,1]},{"translation":[0,-0.8229166666666667,-0.010416666666666671],"name":"cube","mesh":2},{"translation":[0,-0.8229166666666667,-0.010416666666666671],"name":"cube","mesh":3},{"translation":[0,-0.8229166666666667,-0.010416666666666671],"name":"cube","mesh":4},{"translation":[0,0.751452843841032,-0.3949136225842401],"name":"head","children":[3,4,5]},{"translation":[-0.28125,-0.75,0],"name":"cube","mesh":5},{"translation":[-0.28125,-0.75,0],"name":"cube","mesh":6},{"translation":[0.28125,0.6785361771743652,-0.4053302892509068],"name":"right_wing","children":[7,8]},{"translation":[-0.125,-0.0625,0],"name":"cube","mesh":7},{"translation":[0.125,-0.008963822825634737,-0.4053302892509068],"name":"right_foot","children":[10]},{"translation":[0.125,-0.0625,0],"name":"cube","mesh":8},{"translation":[-0.125,-0.008963822825634737,-0.4053302892509068],"name":"left_foot","children":[12]},{"translation":[0,-0.875,0],"name":"cube","mesh":9},{"translation":[0,0.8035361771743652,-0.4053302892509068],"name":"hitbox","children":[14]},{"translation":[0,-0.07146382282563474,-0.4053302892509068],"name":"cube","mesh":10},{"rotation":[0.19509032201612825,0,0,0.9807852804032304],"translation":[0,-0.008963822825634737,-0.1553302892509068],"name":"cube","mesh":11},{"translation":[0,0.07146382282563474,0.4053302892509068],"name":"bs_vm_penguin","children":[2,6,9,11,13,15,16,17]}],"bufferViews":[{"buffer":0,"byteOffset":0,"byteLength":288,"target":34962,"byteStride":12},{"buffer":0,"byteOffset":288,"byteLength":288,"target":34962,"byteStride":12},{"buffer":0,"byteOffset":576,"byteLength":192,"target":34962,"byteStride":8},{"buffer":0,"byteOffset":768,"byteLength":72,"target":34963},{"buffer":0,"byteOffset":840,"byteLength":288,"target":34962,"byteStride":12},{"buffer":0,"byteOffset":1128,"byteLength":288,"target":34962,"byteStride":12},{"buffer":0,"byteOffset":1416,"byteLength":192,"target":34962,"byteStride":8},{"buffer":0,"byteOffset":1608,"byteLength":72,"target":34963},{"buffer":0,"byteOffset":1680,"byteLength":288,"target":34962,"byteStride":12},{"buffer":0,"byteOffset":1968,"byteLength":288,"target":34962,"byteStride":12},{"buffer":0,"byteOffset":2256,"byteLength":192,"target":34962,"byteStride":8},{"buffer":0,"byteOffset":2448,"byteLength":72,"target":34963},{"buffer":0,"byteOffset":2520,"byteLength":288,"target":34962,"byteStride":12},{"buffer":0,"byteOffset":2808,"byteLength":288,"target":34962,"byteStride":12},{"buffer":0,"byteOffset":3096,"byteLength":192,"target":34962,"byteStride":8},{"buffer":0,"byteOffset":3288,"byteLength":72,"target":34963},{"buffer":0,"byteOffset":3360,"byteLength":288,"target":34962,"byteStride":12},{"buffer":0,"byteOffset":3648,"byteLength":288,"target":34962,"byteStride":12},{"buffer":0,"byteOffset":3936,"byteLength":192,"target":34962,"byteStride":8},{"buffer":0,"byteOffset":4128,"byteLength":72,"target":34963},{"buffer":0,"byteOffset":4200,"byteLength":288,"target":34962,"byteStride":12},{"buffer":0,"byteOffset":4488,"byteLength":288,"target":34962,"byteStride":12},{"buffer":0,"byteOffset":4776,"byteLength":192,"target":34962,"byteStride":8},{"buffer":0,"byteOffset":4968,"byteLength":72,"target":34963},{"buffer":0,"byteOffset":5040,"byteLength":288,"target":34962,"byteStride":12},{"buffer":0,"byteOffset":5328,"byteLength":288,"target":34962,"byteStride":12},{"buffer":0,"byteOffset":5616,"byteLength":192,"target":34962,"byteStride":8},{"buffer":0,"byteOffset":5808,"byteLength":72,"target":34963},{"buffer":0,"byteOffset":5880,"byteLength":288,"target":34962,"byteStride":12},{"buffer":0,"byteOffset":6168,"byteLength":288,"target":34962,"byteStride":12},{"buffer":0,"byteOffset":6456,"byteLength":192,"target":34962,"byteStride":8},{"buffer":0,"byteOffset":6648,"byteLength":72,"target":34963},{"buffer":0,"byteOffset":6720,"byteLength":288,"target":34962,"byteStride":12},{"buffer":0,"byteOffset":7008,"byteLength":288,"target":34962,"byteStride":12},{"buffer":0,"byteOffset":7296,"byteLength":192,"target":34962,"byteStride":8},{"buffer":0,"byteOffset":7488,"byteLength":72,"target":34963},{"buffer":0,"byteOffset":7560,"byteLength":288,"target":34962,"byteStride":12},{"buffer":0,"byteOffset":7848,"byteLength":288,"target":34962,"byteStride":12},{"buffer":0,"byteOffset":8136,"byteLength":192,"target":34962,"byteStride":8},{"buffer":0,"byteOffset":8328,"byteLength":72,"target":34963},{"buffer":0,"byteOffset":8400,"byteLength":288,"target":34962,"byteStride":12},{"buffer":0,"byteOffset":8688,"byteLength":288,"target":34962,"byteStride":12},{"buffer":0,"byteOffset":8976,"byteLength":192,"target":34962,"byteStride":8},{"buffer":0,"byteOffset":9168,"byteLength":72,"target":34963},{"buffer":0,"byteOffset":9240,"byteLength":288,"target":34962,"byteStride":12},{"buffer":0,"byteOffset":9528,"byteLength":288,"target":34962,"byteStride":12},{"buffer":0,"byteOffset":9816,"byteLength":192,"target":34962,"byteStride":8},{"buffer":0,"byteOffset":10008,"byteLength":72,"target":34963},{"buffer":0,"byteOffset":10080,"byteLength":36},{"buffer":0,"byteOffset":10116,"byteLength":144},{"buffer":0,"byteOffset":10260,"byteLength":436},{"buffer":0,"byteOffset":10696,"byteLength":1308},{"buffer":0,"byteOffset":12004,"byteLength":36},{"buffer":0,"byteOffset":12040,"byteLength":144},{"buffer":0,"byteOffset":12184,"byteLength":420},{"buffer":0,"byteOffset":12604,"byteLength":1260},{"buffer":0,"byteOffset":13864,"byteLength":368},{"buffer":0,"byteOffset":14232,"byteLength":1472},{"buffer":0,"byteOffset":15704,"byteLength":220},{"buffer":0,"byteOffset":15924,"byteLength":660},{"buffer":0,"byteOffset":16584,"byteLength":36},{"buffer":0,"byteOffset":16620,"byteLength":144},{"buffer":0,"byteOffset":16764,"byteLength":420},{"buffer":0,"byteOffset":17184,"byteLength":1260},{"buffer":0,"byteOffset":18444,"byteLength":36},{"buffer":0,"byteOffset":18480,"byteLength":144},{"buffer":0,"byteOffset":18624,"byteLength":436},{"buffer":0,"byteOffset":19060,"byteLength":1308},{"buffer":0,"byteOffset":20368,"byteLength":36},{"buffer":0,"byteOffset":20404,"byteLength":144},{"buffer":0,"byteOffset":20548,"byteLength":436},{"buffer":0,"byteOffset":20984,"byteLength":1308},{"buffer":0,"byteOffset":22292,"byteLength":88},{"buffer":0,"byteOffset":22380,"byteLength":352},{"buffer":0,"byteOffset":22732,"byteLength":20},{"buffer":0,"byteOffset":22752,"byteLength":60},{"buffer":0,"byteOffset":22812,"byteLength":88},{"buffer":0,"byteOffset":22900,"byteLength":352},{"buffer":0,"byteOffset":23252,"byteLength":12},{"buffer":0,"byteOffset":23264,"byteLength":36},{"buffer":0,"byteOffset":23300,"byteLength":84},{"buffer":0,"byteOffset":23384,"byteLength":336},{"buffer":0,"byteOffset":23720,"byteLength":12},{"buffer":0,"byteOffset":23732,"byteLength":36},{"buffer":0,"byteOffset":23768,"byteLength":84},{"buffer":0,"byteOffset":23852,"byteLength":336},{"buffer":0,"byteOffset":24188,"byteLength":12},{"buffer":0,"byteOffset":24200,"byteLength":36},{"buffer":0,"byteOffset":24236,"byteLength":88},{"buffer":0,"byteOffset":24324,"byteLength":352},{"buffer":0,"byteOffset":24676,"byteLength":32},{"buffer":0,"byteOffset":24708,"byteLength":96},{"buffer":0,"byteOffset":24804,"byteLength":88},{"buffer":0,"byteOffset":24892,"byteLength":352},{"buffer":0,"byteOffset":25244,"byteLength":32},{"buffer":0,"byteOffset":25276,"byteLength":96}],"buffers":[{"byteLength":25372,"uri":"data:application/octet-stream;base64,"}],"accessors":[{"bufferView":0,"componentType":5126,"count":24,"max":[-0.28125,0.75,0.1875],"min":[-0.34375,0.25,-0.1875],"type":"VEC3"},{"bufferView":1,"componentType":5126,"count":24,"max":[1,1,1],"min":[-1,-1,-1],"type":"VEC3"},{"bufferView":2,"componentType":5126,"count":24,"max":[0.515625,0.6875],"min":[0,0],"type":"VEC2"},{"bufferView":3,"componentType":5123,"count":36,"max":[23],"min":[0],"type":"SCALAR"},{"bufferView":4,"componentType":5126,"count":24,"max":[-0.28125,0.25,0.125],"min":[-0.34375,0.1875,-0.1875],"type":"VEC3"},{"bufferView":5,"componentType":5126,"count":24,"max":[1,1,1],"min":[-1,-1,-1],"type":"VEC3"},{"bufferView":6,"componentType":5126,"count":24,"max":[0.59375,0.640625],"min":[0.1875,0.109375],"type":"VEC2"},{"bufferView":7,"componentType":5123,"count":36,"max":[23],"min":[0],"type":"SCALAR"},{"bufferView":8,"componentType":5126,"count":24,"max":[0.21875,1.125,0.21875],"min":[-0.21875,0.8125,-0.21875],"type":"VEC3"},{"bufferView":9,"componentType":5126,"count":24,"max":[1,1,1],"min":[-1,-1,-1],"type":"VEC3"},{"bufferView":10,"componentType":5126,"count":24,"max":[0.578125,0.5625],"min":[0,0.25],"type":"VEC2"},{"bufferView":11,"componentType":5123,"count":36,"max":[23],"min":[0],"type":"SCALAR"},{"bufferView":12,"componentType":5126,"count":24,"max":[0.0625,0.96875,-0.15625],"min":[-0.0625,0.84375,-0.34375],"type":"VEC3"},{"bufferView":13,"componentType":5126,"count":24,"max":[1,1,1],"min":[-1,-1,-1],"type":"VEC3"},{"bufferView":14,"componentType":5126,"count":24,"max":[0.609375,0.421875],"min":[0.21875,0.203125],"type":"VEC2"},{"bufferView":15,"componentType":5123,"count":36,"max":[23],"min":[0],"type":"SCALAR"},{"bufferView":16,"componentType":5126,"count":24,"max":[0.25,1.15625,0.25],"min":[-0.25,0.78125,-0.25],"type":"VEC3"},{"bufferView":17,"componentType":5126,"count":24,"max":[1,1,1],"min":[-1,-1,-1],"type":"VEC3"},{"bufferView":18,"componentType":5126,"count":24,"max":[0.625,0.578125],"min":[0,0],"type":"VEC2"},{"bufferView":19,"componentType":5123,"count":36,"max":[23],"min":[0],"type":"SCALAR"},{"bufferView":20,"componentType":5126,"count":24,"max":[0.34375,0.25,0.125],"min":[0.28125,0.1875,-0.1875],"type":"VEC3"},{"bufferView":21,"componentType":5126,"count":24,"max":[1,1,1],"min":[-1,-1,-1],"type":"VEC3"},{"bufferView":22,"componentType":5126,"count":24,"max":[0.640625,0.640625],"min":[0.375,0.140625],"type":"VEC2"},{"bufferView":23,"componentType":5123,"count":36,"max":[23],"min":[0],"type":"SCALAR"},{"bufferView":24,"componentType":5126,"count":24,"max":[0.34375,0.75,0.1875],"min":[0.28125,0.25,-0.1875],"type":"VEC3"},{"bufferView":25,"componentType":5126,"count":24,"max":[1,1,1],"min":[-1,-1,-1],"type":"VEC3"},{"bufferView":26,"componentType":5126,"count":24,"max":[0.40625,0.6875],"min":[0.03125,0.421875],"type":"VEC2"},{"bufferView":27,"componentType":5123,"count":36,"max":[23],"min":[0],"type":"SCALAR"},{"bufferView":28,"componentType":5126,"count":24,"max":[0.21875,0.0625,0],"min":[0.03125,0,-0.3125],"type":"VEC3"},{"bufferView":29,"componentType":5126,"count":24,"max":[1,1,1],"min":[-1,-1,-1],"type":"VEC3"},{"bufferView":30,"componentType":5126,"count":24,"max":[0.640625,0.625],"min":[0.21875,0.28125],"type":"VEC2"},{"bufferView":31,"componentType":5123,"count":36,"max":[23],"min":[0],"type":"SCALAR"},{"bufferView":32,"componentType":5126,"count":24,"max":[-0.03125,0.0625,0],"min":[-0.21875,0,-0.3125],"type":"VEC3"},{"bufferView":33,"componentType":5126,"count":24,"max":[1,1,1],"min":[-1,-1,-1],"type":"VEC3"},{"bufferView":34,"componentType":5126,"count":24,"max":[0.640625,0.5625],"min":[0.46875,0.265625],"type":"VEC2"},{"bufferView":35,"componentType":5123,"count":36,"max":[23],"min":[0],"type":"SCALAR"},{"bufferView":36,"componentType":5126,"count":24,"max":[0.40625,1.3125,0.40625],"min":[-0.40625,0.0625,-0.40625],"type":"VEC3"},{"bufferView":37,"componentType":5126,"count":24,"max":[1,1,1],"min":[-1,-1,-1],"type":"VEC3"},{"bufferView":38,"componentType":5126,"count":24,"max":[0.859375,0.3125],"min":[0.65625,0],"type":"VEC2"},{"bufferView":39,"componentType":5123,"count":36,"max":[23],"min":[0],"type":"SCALAR"},{"bufferView":40,"componentType":5126,"count":24,"max":[0.28125,0.8125,0.25],"min":[-0.28125,0.0625,-0.25],"type":"VEC3"},{"bufferView":41,"componentType":5126,"count":24,"max":[1,1,1],"min":[-1,-1,-1],"type":"VEC3"},{"bufferView":42,"componentType":5126,"count":24,"max":[0.421875,0.375],"min":[0,0],"type":"VEC2"},{"bufferView":43,"componentType":5123,"count":36,"max":[23],"min":[0],"type":"SCALAR"},{"bufferView":44,"componentType":5126,"count":24,"max":[0.1875,0.1640625,0.05624999850988388],"min":[-0.1875,-0.0234375,-0.06875000149011612],"type":"VEC3"},{"bufferView":45,"componentType":5126,"count":24,"max":[1,1,1],"min":[-1,-1,-1],"type":"VEC3"},{"bufferView":46,"componentType":5126,"count":24,"max":[0.609375,0.609375],"min":[0.125,0.078125],"type":"VEC2"},{"bufferView":47,"componentType":5123,"count":36,"max":[23],"min":[0],"type":"SCALAR"},{"bufferView":48,"componentType":5126,"count":9,"max":[6],"min":[0],"type":"SCALAR"},{"bufferView":49,"componentType":5126,"count":9,"max":[0,0,0,1],"min":[0,0,0,1],"type":"VEC4"},{"bufferView":50,"componentType":5126,"count":109,"max":[6],"min":[0],"type":"SCALAR"},{"bufferView":51,"componentType":5126,"count":109,"max":[0,0.07146382331848145,0.4053303003311157],"min":[0,0.040213823318481445,0.4053303003311157],"type":"VEC3"},{"bufferView":52,"componentType":5126,"count":9,"max":[6],"min":[0],"type":"SCALAR"},{"bufferView":53,"componentType":5126,"count":9,"max":[0,0,0,1],"min":[0,0,0,1],"type":"VEC4"},{"bufferView":54,"componentType":5126,"count":105,"max":[6],"min":[0],"type":"SCALAR"},{"bufferView":55,"componentType":5126,"count":105,"max":[-0.28125,0.7097861766815186,-0.4053303003311157],"min":[-0.28125,0.6447861790657043,-0.4053303003311157],"type":"VEC3"},{"bufferView":56,"componentType":5126,"count":92,"max":[6],"min":[0],"type":"SCALAR"},{"bufferView":57,"componentType":5126,"count":92,"max":[0.026176948100328445,0,0,1],"min":[-0.019633691757917404,0,0,0.9996573328971863],"type":"VEC4"},{"bufferView":58,"componentType":5126,"count":55,"max":[6],"min":[0],"type":"SCALAR"},{"bufferView":59,"componentType":5126,"count":55,"max":[0,0.7514528632164001,-0.38565436005592346],"min":[0,0.7514528632164001,-0.5291011333465576],"type":"VEC3"},{"bufferView":60,"componentType":5126,"count":9,"max":[6],"min":[0],"type":"SCALAR"},{"bufferView":61,"componentType":5126,"count":9,"max":[0,0,0,1],"min":[0,0,0,1],"type":"VEC4"},{"bufferView":62,"componentType":5126,"count":105,"max":[6],"min":[0],"type":"SCALAR"},{"bufferView":63,"componentType":5126,"count":105,"max":[0.28125,0.7097861766815186,-0.4053303003311157],"min":[0.28125,0.6447861790657043,-0.4053303003311157],"type":"VEC3"},{"bufferView":64,"componentType":5126,"count":9,"max":[6],"min":[0],"type":"SCALAR"},{"bufferView":65,"componentType":5126,"count":9,"max":[0,0,0,1],"min":[0,0,0,1],"type":"VEC4"},{"bufferView":66,"componentType":5126,"count":109,"max":[6],"min":[0],"type":"SCALAR"},{"bufferView":67,"componentType":5126,"count":109,"max":[0.125,0.022286176681518555,-0.4053303003311157],"min":[0.125,-0.00896382238715887,-0.4053303003311157],"type":"VEC3"},{"bufferView":68,"componentType":5126,"count":9,"max":[6],"min":[0],"type":"SCALAR"},{"bufferView":69,"componentType":5126,"count":9,"max":[0,0,0,1],"min":[0,0,0,1],"type":"VEC4"},{"bufferView":70,"componentType":5126,"count":109,"max":[6],"min":[0],"type":"SCALAR"},{"bufferView":71,"componentType":5126,"count":109,"max":[-0.125,0.022286176681518555,-0.4053303003311157],"min":[-0.125,-0.00896382238715887,-0.4053303003311157],"type":"VEC3"},{"bufferView":72,"componentType":5126,"count":22,"max":[1.25],"min":[0],"type":"SCALAR"},{"bufferView":73,"componentType":5126,"count":22,"max":[0.0026110103353857994,0.0005551664507947862,0.07349903881549835,0.9997854828834534],"min":[-0.021813586354255676,-0.0005551664507947862,-0.07297684997320175,0.9972918629646301],"type":"VEC4"},{"bufferView":74,"componentType":5126,"count":5,"max":[1.25],"min":[0],"type":"SCALAR"},{"bufferView":75,"componentType":5126,"count":5,"max":[0,0.10271382331848145,0.4053303003311157],"min":[0,0.06521382182836533,0.4053303003311157],"type":"VEC3"},{"bufferView":76,"componentType":5126,"count":22,"max":[1.25],"min":[0],"type":"SCALAR"},{"bufferView":77,"componentType":5126,"count":22,"max":[0.0617959126830101,0.08962846547365189,-0.2854374647140503,0.9583973288536072],"min":[-0.05566288158297539,-0.09356088936328888,-0.5738056898117065,0.8131321668624878],"type":"VEC4"},{"bufferView":78,"componentType":5126,"count":3,"max":[1.25],"min":[0],"type":"SCALAR"},{"bufferView":79,"componentType":5126,"count":3,"max":[-0.28125,0.6785361766815186,-0.4053303003311157],"min":[-0.28125,0.6785361766815186,-0.4053303003311157],"type":"VEC3"},{"bufferView":80,"componentType":5126,"count":21,"max":[1.25],"min":[0],"type":"SCALAR"},{"bufferView":81,"componentType":5126,"count":21,"max":[0.06659910827875137,0.0016722858417779207,0.04361938685178757,0.9999089241027832],"min":[-0.07627590745687485,-0.0016755352262407541,-0.04361938685178757,0.9969806671142578],"type":"VEC4"},{"bufferView":82,"componentType":5126,"count":3,"max":[1.25],"min":[0],"type":"SCALAR"},{"bufferView":83,"componentType":5126,"count":3,"max":[0,0.7514528632164001,-0.39491361379623413],"min":[0,0.7514528632164001,-0.39491361379623413],"type":"VEC3"},{"bufferView":84,"componentType":5126,"count":21,"max":[1.25],"min":[0],"type":"SCALAR"},{"bufferView":85,"componentType":5126,"count":21,"max":[0.0617959126830101,0.09356088936328888,0.5678822994232178,0.9583973288536072],"min":[-0.05566288158297539,-0.08962846547365189,0.2854374647140503,0.8183916807174683],"type":"VEC4"},{"bufferView":86,"componentType":5126,"count":3,"max":[1.25],"min":[0],"type":"SCALAR"},{"bufferView":87,"componentType":5126,"count":3,"max":[0.28125,0.6785361766815186,-0.4053303003311157],"min":[0.28125,0.6785361766815186,-0.4053303003311157],"type":"VEC3"},{"bufferView":88,"componentType":5126,"count":22,"max":[1.25],"min":[0],"type":"SCALAR"},{"bufferView":89,"componentType":5126,"count":22,"max":[0.05816381052136421,0.01695050299167633,0.07066965103149414,0.9998066425323486],"min":[-0.6289998888969421,-0.28296327590942383,-0.04937419667840004,0.7772823572158813],"type":"VEC4"},{"bufferView":90,"componentType":5126,"count":8,"max":[1.25],"min":[0],"type":"SCALAR"},{"bufferView":91,"componentType":5126,"count":8,"max":[0.125,0.2144736796617508,-0.2803303003311157],"min":[0.125,-0.021463822573423386,-0.5318927764892578],"type":"VEC3"},{"bufferView":92,"componentType":5126,"count":22,"max":[1.25],"min":[0],"type":"SCALAR"},{"bufferView":93,"componentType":5126,"count":22,"max":[0.05816381052136421,0.28296327590942383,0.042595308274030685,0.9998066425323486],"min":[-0.6434522867202759,-0.01695050299167633,-0.07066965103149414,0.7654718160629272],"type":"VEC4"},{"bufferView":94,"componentType":5126,"count":8,"max":[1.25],"min":[0],"type":"SCALAR"},{"bufferView":95,"componentType":5126,"count":8,"max":[-0.125,0.2144736796617508,-0.2803303003311157],"min":[-0.125,-0.021463822573423386,-0.5318927764892578],"type":"VEC3"}],"materials":[{"pbrMetallicRoughness":{"metallicFactor":0,"roughnessFactor":1,"baseColorTexture":{"index":0}},"alphaMode":"MASK","alphaCutoff":0.05,"doubleSided":true}],"textures":[{"sampler":0,"source":0,"name":"bs_vm_penguin_texture.png"}],"samplers":[{"magFilter":9728,"minFilter":9728,"wrapS":33071,"wrapT":33071}],"images":[{"mimeType":"image/png","uri":"data:image/png;base64,"}],"meshes":[{"primitives":[{"mode":4,"attributes":{"POSITION":0,"NORMAL":1,"TEXCOORD_0":2},"indices":3,"material":0}]},{"primitives":[{"mode":4,"attributes":{"POSITION":4,"NORMAL":5,"TEXCOORD_0":6},"indices":7,"material":0}]},{"primitives":[{"mode":4,"attributes":{"POSITION":8,"NORMAL":9,"TEXCOORD_0":10},"indices":11,"material":0}]},{"primitives":[{"mode":4,"attributes":{"POSITION":12,"NORMAL":13,"TEXCOORD_0":14},"indices":15,"material":0}]},{"primitives":[{"mode":4,"attributes":{"POSITION":16,"NORMAL":17,"TEXCOORD_0":18},"indices":19,"material":0}]},{"primitives":[{"mode":4,"attributes":{"POSITION":20,"NORMAL":21,"TEXCOORD_0":22},"indices":23,"material":0}]},{"primitives":[{"mode":4,"attributes":{"POSITION":24,"NORMAL":25,"TEXCOORD_0":26},"indices":27,"material":0}]},{"primitives":[{"mode":4,"attributes":{"POSITION":28,"NORMAL":29,"TEXCOORD_0":30},"indices":31,"material":0}]},{"primitives":[{"mode":4,"attributes":{"POSITION":32,"NORMAL":33,"TEXCOORD_0":34},"indices":35,"material":0}]},{"primitives":[{"mode":4,"attributes":{"POSITION":36,"NORMAL":37,"TEXCOORD_0":38},"indices":39,"material":0}]},{"primitives":[{"mode":4,"attributes":{"POSITION":40,"NORMAL":41,"TEXCOORD_0":42},"indices":43,"material":0}]},{"primitives":[{"mode":4,"attributes":{"POSITION":44,"NORMAL":45,"TEXCOORD_0":46},"indices":47,"material":0}]}],"animations":[{"name":"idle","samplers":[{"input":48,"output":49,"interpolation":"LINEAR"},{"input":50,"output":51,"interpolation":"LINEAR"},{"input":52,"output":53,"interpolation":"LINEAR"},{"input":54,"output":55,"interpolation":"LINEAR"},{"input":56,"output":57,"interpolation":"LINEAR"},{"input":58,"output":59,"interpolation":"LINEAR"},{"input":60,"output":61,"interpolation":"LINEAR"},{"input":62,"output":63,"interpolation":"LINEAR"},{"input":64,"output":65,"interpolation":"LINEAR"},{"input":66,"output":67,"interpolation":"LINEAR"},{"input":68,"output":69,"interpolation":"LINEAR"},{"input":70,"output":71,"interpolation":"LINEAR"}],"channels":[{"sampler":0,"target":{"node":18,"path":"rotation"}},{"sampler":1,"target":{"node":18,"path":"translation"}},{"sampler":2,"target":{"node":2,"path":"rotation"}},{"sampler":3,"target":{"node":2,"path":"translation"}},{"sampler":4,"target":{"node":6,"path":"rotation"}},{"sampler":5,"target":{"node":6,"path":"translation"}},{"sampler":6,"target":{"node":9,"path":"rotation"}},{"sampler":7,"target":{"node":9,"path":"translation"}},{"sampler":8,"target":{"node":11,"path":"rotation"}},{"sampler":9,"target":{"node":11,"path":"translation"}},{"sampler":10,"target":{"node":13,"path":"rotation"}},{"sampler":11,"target":{"node":13,"path":"translation"}}]},{"name":"walk","samplers":[{"input":72,"output":73,"interpolation":"LINEAR"},{"input":74,"output":75,"interpolation":"LINEAR"},{"input":76,"output":77,"interpolation":"LINEAR"},{"input":78,"output":79,"interpolation":"LINEAR"},{"input":80,"output":81,"interpolation":"LINEAR"},{"input":82,"output":83,"interpolation":"LINEAR"},{"input":84,"output":85,"interpolation":"LINEAR"},{"input":86,"output":87,"interpolation":"LINEAR"},{"input":88,"output":89,"interpolation":"LINEAR"},{"input":90,"output":91,"interpolation":"LINEAR"},{"input":92,"output":93,"interpolation":"LINEAR"},{"input":94,"output":95,"interpolation":"LINEAR"}],"channels":[{"sampler":0,"target":{"node":18,"path":"rotation"}},{"sampler":1,"target":{"node":18,"path":"translation"}},{"sampler":2,"target":{"node":2,"path":"rotation"}},{"sampler":3,"target":{"node":2,"path":"translation"}},{"sampler":4,"target":{"node":6,"path":"rotation"}},{"sampler":5,"target":{"node":6,"path":"translation"}},{"sampler":6,"target":{"node":9,"path":"rotation"}},{"sampler":7,"target":{"node":9,"path":"translation"}},{"sampler":8,"target":{"node":11,"path":"rotation"}},{"sampler":9,"target":{"node":11,"path":"translation"}},{"sampler":10,"target":{"node":13,"path":"rotation"}},{"sampler":11,"target":{"node":13,"path":"translation"}}]}]}