{"asset":{"version":"2.0","generator":"Blockbench 5.0.5 glTF exporter"},"scenes":[{"nodes":[6],"name":"blockbench_export"}],"scene":0,"nodes":[{"translation":[0,0.18374999999999986,0],"name":"cube","mesh":0},{"translation":[0,0.13031250000000005,0],"name":"middle","children":[0]},{"translation":[0,0.27562500000000023,0],"name":"cube","mesh":1},{"translation":[0,-0.05343750000000025,0],"name":"letters","children":[2]},{"translation":[0,0.36750000000000016,0],"name":"cube","mesh":2},{"translation":[0,-0.32906250000000004,0],"name":"outer","children":[4]},{"translation":[0,2.4375,0],"name":"body","children":[1,3,5]}],"bufferViews":[{"buffer":0,"byteOffset":0,"byteLength":288,"target":34962,"byteStride":12},{"buffer":0,"byteOffset":288,"byteLength":288,"target":34962,"byteStride":12},{"buffer":0,"byteOffset":576,"byteLength":192,"target":34962,"byteStride":8},{"buffer":0,"byteOffset":768,"byteLength":72,"target":34963},{"buffer":0,"byteOffset":840,"byteLength":288,"target":34962,"byteStride":12},{"buffer":0,"byteOffset":1128,"byteLength":288,"target":34962,"byteStride":12},{"buffer":0,"byteOffset":1416,"byteLength":192,"target":34962,"byteStride":8},{"buffer":0,"byteOffset":1608,"byteLength":72,"target":34963},{"buffer":0,"byteOffset":1680,"byteLength":288,"target":34962,"byteStride":12},{"buffer":0,"byteOffset":1968,"byteLength":288,"target":34962,"byteStride":12},{"buffer":0,"byteOffset":2256,"byteLength":192,"target":34962,"byteStride":8},{"buffer":0,"byteOffset":2448,"byteLength":72,"target":34963},{"buffer":0,"byteOffset":2520,"byteLength":204},{"buffer":0,"byteOffset":2724,"byteLength":612},{"buffer":0,"byteOffset":3336,"byteLength":24},{"buffer":0,"byteOffset":3360,"byteLength":96},{"buffer":0,"byteOffset":3456,"byteLength":16},{"buffer":0,"byteOffset":3472,"byteLength":64},{"buffer":0,"byteOffset":3536,"byteLength":16},{"buffer":0,"byteOffset":3552,"byteLength":64}],"buffers":[{"byteLength":3616,"uri":"data:application/octet-stream;base64,"}],"accessors":[{"bufferView":0,"componentType":5126,"count":24,"max":[1.332187533378601,-0.1836874932050705,1.332187533378601],"min":[-1.332187533378601,-0.1837500035762787,-1.332187533378601],"type":"VEC3"},{"bufferView":1,"componentType":5126,"count":24,"max":[1,1,1],"min":[-1,-1,-1],"type":"VEC3"},{"bufferView":2,"componentType":5126,"count":24,"max":[0.4921875,0.44140625],"min":[0.2109375,0.03125],"type":"VEC2"},{"bufferView":3,"componentType":5123,"count":36,"max":[23],"min":[0],"type":"SCALAR"},{"bufferView":4,"componentType":5126,"count":24,"max":[2.2509374618530273,-0.27556249499320984,2.2509374618530273],"min":[-2.2509374618530273,-0.27562499046325684,-2.2509374618530273],"type":"VEC3"},{"bufferView":5,"componentType":5126,"count":24,"max":[1,1,1],"min":[-1,-1,-1],"type":"VEC3"},{"bufferView":6,"componentType":5126,"count":24,"max":[0.5859375,0.25],"min":[0.375,0],"type":"VEC2"},{"bufferView":7,"componentType":5123,"count":36,"max":[23],"min":[0],"type":"SCALAR"},{"bufferView":8,"componentType":5126,"count":24,"max":[2.434687614440918,-0.3674375116825104,2.434687614440918],"min":[-2.434687614440918,-0.3675000071525574,-2.434687614440918],"type":"VEC3"},{"bufferView":9,"componentType":5126,"count":24,"max":[1,1,1],"min":[-1,-1,-1],"type":"VEC3"},{"bufferView":10,"componentType":5126,"count":24,"max":[0.58203125,0.20703125],"min":[0,0],"type":"VEC2"},{"bufferView":11,"componentType":5123,"count":36,"max":[23],"min":[0],"type":"SCALAR"},{"bufferView":12,"componentType":5126,"count":51,"max":[3],"min":[0],"type":"SCALAR"},{"bufferView":13,"componentType":5126,"count":51,"max":[0,2.625,0],"min":[0,2.4375,0],"type":"VEC3"},{"bufferView":14,"componentType":5126,"count":6,"max":[3],"min":[0],"type":"SCALAR"},{"bufferView":15,"componentType":5126,"count":6,"max":[0,0.9510565400123596,0,1],"min":[0,-0.9510565400123596,0,-0.80901700258255],"type":"VEC4"},{"bufferView":16,"componentType":5126,"count":4,"max":[3],"min":[0],"type":"SCALAR"},{"bufferView":17,"componentType":5126,"count":4,"max":[0,0.8660253882408142,0,1],"min":[0,0,0,-1],"type":"VEC4"},{"bufferView":18,"componentType":5126,"count":4,"max":[3],"min":[0],"type":"SCALAR"},{"bufferView":19,"componentType":5126,"count":4,"max":[0,0,0,1],"min":[0,-0.8660253882408142,0,-1],"type":"VEC4"}],"materials":[{"pbrMetallicRoughness":{"metallicFactor":0,"roughnessFactor":1,"baseColorTexture":{"index":0}},"alphaMode":"MASK","alphaCutoff":0.05,"doubleSided":true}],"textures":[{"sampler":0,"source":0,"name":"arcane_magic_circle"}],"samplers":[{"magFilter":9728,"minFilter":9728,"wrapS":33071,"wrapT":33071}],"images":[{"mimeType":"image/png","uri":"data:image/png;base64,"}],"meshes":[{"primitives":[{"mode":4,"attributes":{"POSITION":0,"NORMAL":1,"TEXCOORD_0":2},"indices":3,"material":0}]},{"primitives":[{"mode":4,"attributes":{"POSITION":4,"NORMAL":5,"TEXCOORD_0":6},"indices":7,"material":0}]},{"primitives":[{"mode":4,"attributes":{"POSITION":8,"NORMAL":9,"TEXCOORD_0":10},"indices":11,"material":0}]}],"animations":[{"name":"idle","samplers":[{"input":12,"output":13,"interpolation":"LINEAR"},{"input":14,"output":15,"interpolation":"LINEAR"},{"input":16,"output":17,"interpolation":"LINEAR"},{"input":18,"output":19,"interpolation":"LINEAR"}],"channels":[{"sampler":0,"target":{"node":6,"path":"translation"}},{"sampler":1,"target":{"node":1,"path":"rotation"}},{"sampler":2,"target":{"node":3,"path":"rotation"}},{"sampler":3,"target":{"node":5,"path":"rotation"}}]}]}